<svg width="288" height="115" viewBox="0 0 288 115" fill="none" xmlns="http://www.w3.org/2000/svg">
<path d="M82.8516 62.957C81.75 64.7383 80.2617 66.5078 78.3867 68.2656C76.5117 70 74.3672 71.5703 71.9531 72.9766C69.5625 74.3594 66.9492 75.4727 64.1133 76.3164C61.2773 77.1836 58.3477 77.6172 55.3242 77.6172C52.957 77.6172 50.5898 77.4062 48.2227 76.9844C45.8789 76.5625 43.6172 75.918 41.4375 75.0508C39.2812 74.1836 37.2656 73.0938 35.3906 71.7812C33.5391 70.4453 31.9219 68.875 30.5391 67.0703C29.1562 65.2656 28.0664 63.2148 27.2695 60.918C26.4961 58.6211 26.1094 56.0664 26.1094 53.2539C26.1094 50.5117 26.5078 47.9102 27.3047 45.4492C28.125 42.9883 29.2617 40.7148 30.7148 38.6289C32.168 36.5195 33.8906 34.6211 35.8828 32.9336C37.875 31.2461 40.0547 29.8164 42.4219 28.6445C44.7891 27.4492 47.2852 26.5352 49.9102 25.9023C52.5352 25.2695 55.2188 24.9531 57.9609 24.9531C60.9844 24.9531 63.8203 25.3164 66.4688 26.043C69.1406 26.7461 71.4727 27.7539 73.4648 29.0664C75.457 30.3555 77.0273 31.9141 78.1758 33.7422C79.3477 35.5469 79.9336 37.5625 79.9336 39.7891C79.9336 41.8516 79.4531 43.8203 78.4922 45.6953C77.5312 47.5469 76.207 49.1758 74.5195 50.582C72.8555 51.9883 70.8984 53.1016 68.6484 53.9219C66.4219 54.7422 64.043 55.1523 61.5117 55.1523C59.4727 55.1523 57.668 54.9062 56.0977 54.4141C54.5273 53.8984 53.2148 53.1953 52.1602 52.3047C51.1055 51.4141 50.3086 50.3711 49.7695 49.1758C49.2305 47.9805 48.9609 46.6914 48.9609 45.3086C48.9609 44.1602 49.1367 43.1172 49.4883 42.1797C49.8633 41.2188 50.2617 40.3984 50.6836 39.7188C51.1289 39.0391 51.5391 38.5117 51.9141 38.1367C52.3125 37.7383 52.5352 37.5156 52.582 37.4688C52.6992 37.3516 52.8281 37.2812 52.9688 37.2578C53.1328 37.2109 53.2852 37.1875 53.4258 37.1875C53.8008 37.1875 54.1172 37.3047 54.375 37.5391C54.6328 37.7734 54.7617 38.0781 54.7617 38.4531C54.7617 38.875 54.6094 39.2266 54.3047 39.5078C54.2578 39.5312 54.0938 39.6953 53.8125 40C53.5312 40.2812 53.2266 40.6797 52.8984 41.1953C52.5703 41.6875 52.2656 42.2852 51.9844 42.9883C51.7266 43.6914 51.5977 44.4648 51.5977 45.3086C51.5977 46.6445 51.8906 47.7695 52.4766 48.6836C53.0859 49.5977 53.8711 50.3477 54.832 50.9336C55.793 51.4961 56.8594 51.9062 58.0312 52.1641C59.2031 52.3984 60.375 52.5156 61.5469 52.5156C63.7266 52.5156 65.7656 52.1641 67.6641 51.4609C69.5859 50.7578 71.2617 49.8203 72.6914 48.6484C74.1211 47.4766 75.2461 46.1289 76.0664 44.6055C76.8867 43.082 77.2969 41.4883 77.2969 39.8242C77.2969 37.9961 76.7812 36.332 75.75 34.832C74.7188 33.3086 73.3242 32.0195 71.5664 30.9648C69.8086 29.8867 67.7461 29.0547 65.3789 28.4688C63.0352 27.8828 60.5273 27.5898 57.8555 27.5898C55.8398 27.5898 53.7188 27.8359 51.4922 28.3281C49.2891 28.7969 47.1094 29.5117 44.9531 30.4727C42.7969 31.4336 40.7344 32.6289 38.7656 34.0586C36.8203 35.4883 35.1094 37.1641 33.6328 39.0859C32.1562 40.9844 30.9727 43.1172 30.082 45.4844C29.2148 47.8516 28.7812 50.4414 28.7812 53.2539C28.7812 55.8086 29.1328 58.1172 29.8359 60.1797C30.5625 62.2422 31.5586 64.082 32.8242 65.6992C34.0898 67.293 35.5664 68.6758 37.2539 69.8477C38.9648 71.0195 40.793 71.9922 42.7383 72.7656C44.707 73.5156 46.7578 74.0781 48.8906 74.4531C51.0234 74.8047 53.1445 74.9805 55.2539 74.9805C58.0664 74.9805 60.7734 74.5938 63.375 73.8203C65.9766 73.0234 68.3789 71.9922 70.582 70.7266C72.8086 69.4375 74.7773 67.9961 76.4883 66.4023C78.1992 64.8086 79.5586 63.2031 80.5664 61.5859C80.6836 61.375 80.8477 61.2227 81.0586 61.1289C81.2695 61.0117 81.4922 60.9531 81.7266 60.9531C82.125 60.9531 82.4414 61.0938 82.6758 61.375C82.9102 61.6328 83.0273 61.9258 83.0273 62.2539C83.0273 62.3711 83.0156 62.4883 82.9922 62.6055C82.9688 62.7227 82.9219 62.8398 82.8516 62.957ZM102.715 72.1328C102.129 72.1328 101.613 72.0859 101.168 71.9922C100.816 72.6953 100.395 73.3516 99.9023 73.9609C99.4102 74.5469 98.8359 75.0625 98.1797 75.5078C97.5469 75.9531 96.832 76.3047 96.0352 76.5625C95.2383 76.8203 94.3711 76.9492 93.4336 76.9492C92.332 76.9492 91.3242 76.75 90.4102 76.3516C89.4961 75.9766 88.6992 75.4492 88.0195 74.7695C87.3398 74.0664 86.8125 73.2344 86.4375 72.2734C86.0625 71.2891 85.875 70.2109 85.875 69.0391C85.875 67.5391 86.1445 66.2383 86.6836 65.1367C87.2227 64.0117 87.8438 63.0859 88.5469 62.3594C89.25 61.6094 89.9531 61.0586 90.6562 60.707C91.3594 60.332 91.8867 60.1445 92.2383 60.1445C92.6367 60.1445 92.9297 60.25 93.1172 60.4609C93.3281 60.6719 93.4336 60.9531 93.4336 61.3047C93.4336 61.7031 93.3047 62.0078 93.0469 62.2188C92.8125 62.4062 92.5078 62.5938 92.1328 62.7812C91.7578 62.9688 91.3594 63.2383 90.9375 63.5898C90.5156 63.918 90.1172 64.3398 89.7422 64.8555C89.3906 65.3711 89.0977 65.9805 88.8633 66.6836C88.6289 67.3867 88.5117 68.1719 88.5117 69.0391C88.5117 69.8125 88.6289 70.5391 88.8633 71.2188C89.0977 71.875 89.4375 72.4492 89.8828 72.9414C90.3281 73.4102 90.8555 73.7852 91.4648 74.0664C92.0742 74.3242 92.7539 74.4531 93.5039 74.4531C94.8398 74.4531 95.9414 74.1484 96.8086 73.5391C97.6992 72.9062 98.3789 72.1094 98.8477 71.1484C97.4648 70.4219 96.3281 69.3906 95.4375 68.0547C94.5469 66.7188 94.1016 65.2188 94.1016 63.5547C94.1016 62.2188 94.418 61.1289 95.0508 60.2852C95.707 59.4414 96.5625 59.0195 97.6172 59.0195C98.25 59.0195 98.8477 59.1719 99.4102 59.4766C99.9727 59.7812 100.465 60.2617 100.887 60.918C101.332 61.5742 101.684 62.418 101.941 63.4492C102.199 64.4805 102.328 65.7109 102.328 67.1406C102.328 67.8906 102.234 68.6758 102.047 69.4961C102.188 69.5195 102.328 69.5312 102.469 69.5312C102.609 69.5312 102.762 69.5312 102.926 69.5312C103.723 69.5312 104.438 69.4375 105.07 69.25C105.703 69.0625 106.277 68.7812 106.793 68.4062C107.309 68.0312 107.766 67.5508 108.164 66.9648C108.586 66.3789 108.984 65.6992 109.359 64.9258C109.43 64.7852 109.582 64.6562 109.816 64.5391C110.051 64.3984 110.285 64.3281 110.52 64.3281C110.824 64.3281 111.105 64.457 111.363 64.7148C111.645 64.9492 111.785 65.2656 111.785 65.6641C111.785 65.8516 111.738 66.0625 111.645 66.2969C111.551 66.5078 111.457 66.707 111.363 66.8945C110.965 67.5977 110.496 68.2773 109.957 68.9336C109.441 69.5664 108.82 70.1289 108.094 70.6211C107.391 71.0898 106.594 71.4648 105.703 71.7461C104.812 72.0273 103.816 72.1562 102.715 72.1328ZM96.7031 63.2734C96.7031 63.7188 96.7617 64.1875 96.8789 64.6797C96.9961 65.1719 97.1719 65.6641 97.4062 66.1562C97.6641 66.625 97.9688 67.082 98.3203 67.5273C98.6953 67.9492 99.1289 68.3125 99.6211 68.6172C99.6914 68.125 99.7266 67.6445 99.7266 67.1758C99.7266 66.543 99.6797 65.8984 99.5859 65.2422C99.4922 64.5859 99.3516 63.9883 99.1641 63.4492C99 62.8867 98.7891 62.4414 98.5312 62.1133C98.2734 61.7617 97.9688 61.5859 97.6172 61.5859C97.4766 61.5859 97.2891 61.6914 97.0547 61.9023C96.8203 62.1133 96.7031 62.5703 96.7031 63.2734ZM117.094 72.8359C117.469 72.0625 117.902 71.2188 118.395 70.3047C118.887 69.3672 119.414 68.4297 119.977 67.4922C120.539 66.5312 121.125 65.582 121.734 64.6445C122.367 63.707 123.023 62.8164 123.703 61.9727C124.383 61.1523 125.062 60.5664 125.742 60.2148C126.445 59.8398 127.102 59.6523 127.711 59.6523C128.93 59.6523 129.832 60.0977 130.418 60.9883C131.004 61.8789 131.297 62.9805 131.297 64.293C131.297 64.5977 131.273 64.9727 131.227 65.418C131.203 65.8398 131.168 66.2969 131.121 66.7891C131.098 67.2812 131.062 67.7852 131.016 68.3008C130.992 68.793 130.98 69.2617 130.98 69.707C130.98 70.2695 131.004 70.8086 131.051 71.3242C131.121 71.8398 131.238 72.2969 131.402 72.6953C131.566 73.0703 131.801 73.375 132.105 73.6094C132.41 73.8203 132.809 73.9258 133.301 73.9258C134.191 73.9258 135.059 73.5859 135.902 72.9062C136.746 72.2031 137.52 71.3828 138.223 70.4453C138.949 69.4844 139.57 68.5117 140.086 67.5273C140.625 66.543 141.023 65.7461 141.281 65.1367C141.398 64.8789 141.562 64.6797 141.773 64.5391C142.008 64.3984 142.254 64.3281 142.512 64.3281C142.91 64.3281 143.227 64.4805 143.461 64.7852C143.719 65.0664 143.848 65.3711 143.848 65.6992C143.848 65.8633 143.812 66.0273 143.742 66.1914C143.648 66.3789 143.461 66.7656 143.18 67.3516C142.898 67.9375 142.523 68.6172 142.055 69.3906C141.609 70.1406 141.082 70.9492 140.473 71.8164C139.863 72.6602 139.184 73.4336 138.434 74.1367C137.707 74.8398 136.91 75.4258 136.043 75.8945C135.199 76.3633 134.309 76.5977 133.371 76.5977C132.316 76.5977 131.461 76.3984 130.805 76C130.148 75.5781 129.633 75.0391 129.258 74.3828C128.883 73.7031 128.625 72.9648 128.484 72.168C128.367 71.3477 128.309 70.5273 128.309 69.707C128.309 69.3555 128.32 68.957 128.344 68.5117C128.391 68.0664 128.438 67.5977 128.484 67.1055C128.555 66.6133 128.602 66.1211 128.625 65.6289C128.672 65.1367 128.695 64.668 128.695 64.2227C128.695 63.4727 128.578 62.9688 128.344 62.7109C128.109 62.4297 127.898 62.2891 127.711 62.2891C127.336 62.2891 126.902 62.5117 126.41 62.957C125.941 63.3789 125.438 63.9414 124.898 64.6445C124.383 65.3477 123.844 66.1445 123.281 67.0352C122.742 67.9023 122.227 68.7695 121.734 69.6367C121.266 70.5039 120.82 71.3359 120.398 72.1328C120 72.9062 119.684 73.5508 119.449 74.0664C118.98 75.0508 118.512 75.707 118.043 76.0352C117.574 76.3867 117.094 76.5625 116.602 76.5625C115.922 76.5625 115.371 76.3633 114.949 75.9648C114.551 75.543 114.352 74.957 114.352 74.207C114.352 74.043 114.375 73.7266 114.422 73.2578C114.469 72.7656 114.527 72.1914 114.598 71.5352C114.668 70.8555 114.738 70.1289 114.809 69.3555C114.879 68.582 114.949 67.8203 115.02 67.0703C115.09 66.2969 115.148 65.582 115.195 64.9258C115.242 64.2695 115.266 63.7188 115.266 63.2734C115.266 62.6875 115.242 62.125 115.195 61.5859C115.148 61.0469 115.055 60.7188 114.914 60.6016C114.703 60.6719 114.328 61.1172 113.789 61.9375C113.25 62.7344 112.559 64.1523 111.715 66.1914C111.598 66.4492 111.422 66.6484 111.188 66.7891C110.953 66.9297 110.707 67 110.449 67C110.051 67 109.734 66.8711 109.5 66.6133C109.266 66.332 109.148 66.0156 109.148 65.6641C109.148 65.5 109.184 65.3242 109.254 65.1367C110.309 62.6289 111.293 60.7891 112.207 59.6172C113.145 58.4219 114.07 57.8242 114.984 57.8242C115.523 57.8242 115.98 57.9648 116.355 58.2461C116.73 58.5039 117.023 58.8555 117.234 59.3008C117.469 59.7461 117.633 60.2383 117.727 60.7773C117.844 61.3164 117.902 61.8672 117.902 62.4297C117.902 62.8516 117.867 63.5078 117.797 64.3984C117.75 65.2891 117.68 66.25 117.586 67.2812C117.492 68.2891 117.398 69.2969 117.305 70.3047C117.234 71.3125 117.164 72.1562 117.094 72.8359ZM154.078 79.4453C158.484 73.7031 161.543 68.9336 163.254 65.1367C163.371 64.8789 163.523 64.6914 163.711 64.5742C163.922 64.4336 164.156 64.3633 164.414 64.3633C164.812 64.3633 165.141 64.5039 165.398 64.7852C165.656 65.043 165.785 65.3477 165.785 65.6992C165.785 65.8633 165.75 66.0273 165.68 66.1914C164.648 68.5352 163.184 71.1484 161.285 74.0312C159.387 76.9141 156.984 80.1719 154.078 83.8047C154.078 85.2812 154.09 86.7578 154.113 88.2344C154.137 89.7109 154.148 91.3281 154.148 93.0859C154.148 94.8438 154.102 96.5781 154.008 98.2891C153.938 100.023 153.797 101.664 153.586 103.211C153.375 104.781 153.082 106.223 152.707 107.535C152.355 108.871 151.887 110.02 151.301 110.98C150.738 111.965 150.047 112.727 149.227 113.266C148.43 113.828 147.48 114.109 146.379 114.109C144.809 114.109 143.602 113.512 142.758 112.316C141.914 111.121 141.492 109.422 141.492 107.219C141.492 106.047 141.598 104.77 141.809 103.387C142.043 102.027 142.371 100.621 142.793 99.168C143.215 97.7148 143.719 96.2383 144.305 94.7383C144.914 93.2617 145.582 91.8203 146.309 90.4141C147.035 89.0078 147.82 87.6602 148.664 86.3711C149.531 85.082 150.445 83.9102 151.406 82.8555C151.43 81.2148 151.441 79.5859 151.441 77.9688C151.465 76.3516 151.5 74.8633 151.547 73.5039C150.844 74.3945 150 75.0977 149.016 75.6133C148.055 76.1289 147.094 76.3867 146.133 76.3867C145.312 76.3867 144.562 76.2344 143.883 75.9297C143.227 75.6016 142.664 75.1562 142.195 74.5938C141.727 74.0078 141.363 73.3281 141.105 72.5547C140.848 71.7812 140.719 70.9375 140.719 70.0234C140.719 68.1953 141.023 66.5898 141.633 65.207C142.266 63.8008 143.062 62.6289 144.023 61.6914C144.984 60.7539 146.039 60.0508 147.188 59.582C148.359 59.1133 149.484 58.8789 150.562 58.8789C151.289 58.8789 151.957 58.9727 152.566 59.1602C153.176 59.3477 153.691 59.5586 154.113 59.793C154.559 60.0273 154.898 60.25 155.133 60.4609C155.367 60.6719 155.496 60.7891 155.52 60.8125C155.777 61.0938 155.906 61.4102 155.906 61.7617C155.906 62.1133 155.777 62.4297 155.52 62.7109C155.262 62.9688 154.957 63.0977 154.605 63.0977C154.277 63.0977 153.961 62.9688 153.656 62.7109C153.562 62.6406 153.434 62.5469 153.27 62.4297C153.129 62.2891 152.93 62.1484 152.672 62.0078C152.438 61.8672 152.145 61.75 151.793 61.6562C151.465 61.5625 151.066 61.5156 150.598 61.5156C149.895 61.5156 149.121 61.6797 148.277 62.0078C147.434 62.3125 146.648 62.8047 145.922 63.4844C145.195 64.1641 144.586 65.043 144.094 66.1211C143.602 67.1758 143.355 68.4531 143.355 69.9531C143.355 71.0781 143.602 71.9922 144.094 72.6953C144.586 73.375 145.348 73.7148 146.379 73.7148C146.871 73.7148 147.387 73.5742 147.926 73.293C148.488 73.0117 149.027 72.5781 149.543 71.9922C150.059 71.4062 150.504 70.668 150.879 69.7773C151.277 68.8867 151.559 67.832 151.723 66.6133C151.77 66.2852 151.922 66.0156 152.18 65.8047C152.438 65.5703 152.742 65.4531 153.094 65.4531C153.492 65.4531 153.797 65.5938 154.008 65.875C154.242 66.1562 154.359 66.4727 154.359 66.8242C154.359 66.8477 154.348 67.2109 154.324 67.9141C154.301 68.5938 154.277 69.5078 154.254 70.6562C154.23 71.8047 154.195 73.1406 154.148 74.6641C154.125 76.1641 154.102 77.7578 154.078 79.4453ZM151.406 87.1445C150.305 88.668 149.309 90.3203 148.418 92.1016C147.527 93.9062 146.766 95.7227 146.133 97.5508C145.5 99.3789 145.008 101.148 144.656 102.859C144.328 104.594 144.164 106.141 144.164 107.5C144.164 108.367 144.234 109.059 144.375 109.574C144.539 110.09 144.727 110.488 144.938 110.77C145.172 111.051 145.418 111.238 145.676 111.332C145.957 111.426 146.215 111.473 146.449 111.473C147.176 111.473 147.809 111.18 148.348 110.594C148.887 110.008 149.344 109.223 149.719 108.238C150.094 107.277 150.398 106.164 150.633 104.898C150.867 103.633 151.043 102.32 151.16 100.961C151.277 99.625 151.359 98.2891 151.406 96.9531C151.453 95.6172 151.477 94.3867 151.477 93.2617C151.477 92.2539 151.477 91.2461 151.477 90.2383C151.477 89.2305 151.453 88.1992 151.406 87.1445ZM166.98 61.5508C166.887 62.1836 166.77 62.7812 166.629 63.3438C166.488 63.8828 166.348 64.3633 166.207 64.7852C166.09 65.1836 165.984 65.5117 165.891 65.7695C165.797 66.0273 165.738 66.168 165.715 66.1914C165.48 66.7305 165.07 67 164.484 67C164.156 67 163.852 66.8828 163.57 66.6484C163.289 66.3906 163.148 66.0742 163.148 65.6992C163.148 65.5586 163.172 65.4531 163.219 65.3828C163.266 65.3125 163.336 65.1719 163.43 64.9609C163.523 64.75 163.641 64.3984 163.781 63.9062C163.922 63.4141 164.098 62.6523 164.309 61.6211C163.91 61.6211 163.5 61.6094 163.078 61.5859C162.656 61.5625 162.27 61.4805 161.918 61.3398C161.543 61.1992 161.238 60.9766 161.004 60.6719C160.77 60.3672 160.652 59.9453 160.652 59.4062C160.652 59.0078 160.77 58.4688 161.004 57.7891C161.215 57.1094 161.508 56.4414 161.883 55.7852C162.258 55.1289 162.68 54.5664 163.148 54.0977C163.617 53.6055 164.086 53.3594 164.555 53.3594C165.094 53.3594 165.527 53.5586 165.855 53.957C166.207 54.3555 166.477 54.8477 166.664 55.4336C166.852 55.9961 166.98 56.5938 167.051 57.2266C167.145 57.8594 167.191 58.4102 167.191 58.8789C167.59 58.8789 167.977 58.8789 168.352 58.8789C168.75 58.8555 169.125 58.8438 169.477 58.8438C170.812 58.8438 171.832 59.1367 172.535 59.7227C173.238 60.3086 173.59 61.2695 173.59 62.6055C173.59 63.1445 173.555 63.707 173.484 64.293C173.414 64.8789 173.332 65.4883 173.238 66.1211C173.145 66.7305 173.062 67.3398 172.992 67.9492C172.922 68.5586 172.887 69.1562 172.887 69.7422C172.887 70.5859 173.004 71.2891 173.238 71.8516C173.473 72.3906 173.766 72.8242 174.117 73.1523C174.469 73.4805 174.844 73.7148 175.242 73.8555C175.641 73.9727 176.004 74.0312 176.332 74.0312C177.34 74.0312 178.289 73.7031 179.18 73.0469C180.07 72.3906 180.891 71.6055 181.641 70.6914C182.391 69.7539 183.059 68.7695 183.645 67.7383C184.254 66.707 184.758 65.8047 185.156 65.0312C185.273 64.8203 185.438 64.6562 185.648 64.5391C185.859 64.4219 186.082 64.3633 186.316 64.3633C186.738 64.3633 187.066 64.5039 187.301 64.7852C187.535 65.043 187.652 65.3359 187.652 65.6641C187.652 65.8984 187.605 66.1094 187.512 66.2969C186.973 67.2578 186.34 68.3477 185.613 69.5664C184.91 70.7617 184.102 71.8867 183.188 72.9414C182.273 73.9961 181.242 74.8867 180.094 75.6133C178.969 76.3398 177.727 76.7031 176.367 76.7031C175.523 76.7031 174.727 76.5391 173.977 76.2109C173.227 75.9062 172.57 75.4609 172.008 74.875C171.469 74.2656 171.035 73.5273 170.707 72.6602C170.379 71.7695 170.215 70.7734 170.215 69.6719C170.215 68.5 170.332 67.3398 170.566 66.1914C170.801 65.0195 170.918 63.9062 170.918 62.8516C170.918 62.4062 170.812 62.0781 170.602 61.8672C170.414 61.6328 169.98 61.5156 169.301 61.5156C168.973 61.5156 168.609 61.5156 168.211 61.5156C167.836 61.5156 167.426 61.5273 166.98 61.5508ZM164.625 58.9492C164.625 58.7852 164.613 58.5742 164.59 58.3164C164.59 58.0352 164.566 57.7656 164.52 57.5078C164.496 57.25 164.449 57.0273 164.379 56.8398C164.332 56.6523 164.273 56.5586 164.203 56.5586C164.133 56.5586 164.039 56.6523 163.922 56.8398C163.828 57.0039 163.723 57.2148 163.605 57.4727C163.488 57.707 163.383 57.9648 163.289 58.2461C163.195 58.5273 163.125 58.7617 163.078 58.9492H164.625ZM189.375 72.1328C189.867 72.8125 190.5 73.3633 191.273 73.7852C192.047 74.1836 192.996 74.3828 194.121 74.3828C195.27 74.3828 196.312 74.1133 197.25 73.5742C198.188 73.0117 199.043 72.2852 199.816 71.3945C200.59 70.5039 201.281 69.5078 201.891 68.4062C202.5 67.3047 203.051 66.2031 203.543 65.1016C203.66 64.8438 203.824 64.6562 204.035 64.5391C204.246 64.3984 204.48 64.3281 204.738 64.3281C205.137 64.3281 205.453 64.4688 205.688 64.75C205.945 65.0312 206.074 65.3359 206.074 65.6641C206.074 65.7812 206.062 65.8867 206.039 65.9805C206.016 66.0508 205.98 66.1328 205.934 66.2266C204.316 69.7891 202.547 72.4727 200.625 74.2773C198.727 76.082 196.57 77.0078 194.156 77.0547C192.609 77.0547 191.273 76.75 190.148 76.1406C189.023 75.5547 188.098 74.793 187.371 73.8555C186.645 72.8945 186.105 71.8164 185.754 70.6211C185.402 69.4258 185.227 68.2305 185.227 67.0352C185.227 65.8398 185.367 64.7383 185.648 63.7305C185.953 62.7227 186.375 61.8438 186.914 61.0938C187.477 60.3438 188.133 59.7578 188.883 59.3359C189.656 58.9141 190.5 58.7031 191.414 58.7031C191.953 58.7031 192.48 58.8203 192.996 59.0547C193.535 59.2656 194.016 59.582 194.438 60.0039C194.859 60.4023 195.199 60.8945 195.457 61.4805C195.715 62.0664 195.844 62.7344 195.844 63.4844C195.844 64.4453 195.68 65.3477 195.352 66.1914C195.023 67.0352 194.566 67.8203 193.98 68.5469C193.418 69.2734 192.738 69.9414 191.941 70.5508C191.145 71.1602 190.289 71.6875 189.375 72.1328ZM188.32 69.8477C189.047 69.543 189.703 69.1562 190.289 68.6875C190.898 68.2188 191.414 67.7031 191.836 67.1406C192.258 66.5781 192.586 65.9922 192.82 65.3828C193.055 64.75 193.172 64.1172 193.172 63.4844C193.172 62.7812 192.996 62.2539 192.645 61.9023C192.293 61.5273 191.883 61.3398 191.414 61.3398C190.781 61.3398 190.242 61.5156 189.797 61.8672C189.352 62.2188 188.988 62.6758 188.707 63.2383C188.426 63.8008 188.215 64.4336 188.074 65.1367C187.957 65.8164 187.898 66.4961 187.898 67.1758C187.898 67.5977 187.934 68.043 188.004 68.5117C188.098 68.9805 188.203 69.4258 188.32 69.8477ZM216.305 79.4453C220.711 73.7031 223.77 68.9336 225.48 65.1367C225.598 64.8789 225.75 64.6914 225.938 64.5742C226.148 64.4336 226.383 64.3633 226.641 64.3633C227.039 64.3633 227.367 64.5039 227.625 64.7852C227.883 65.043 228.012 65.3477 228.012 65.6992C228.012 65.8633 227.977 66.0273 227.906 66.1914C226.875 68.5352 225.41 71.1484 223.512 74.0312C221.613 76.9141 219.211 80.1719 216.305 83.8047C216.305 85.2812 216.316 86.7578 216.34 88.2344C216.363 89.7109 216.375 91.3281 216.375 93.0859C216.375 94.8438 216.328 96.5781 216.234 98.2891C216.164 100.023 216.023 101.664 215.812 103.211C215.602 104.781 215.309 106.223 214.934 107.535C214.582 108.871 214.113 110.02 213.527 110.98C212.965 111.965 212.273 112.727 211.453 113.266C210.656 113.828 209.707 114.109 208.605 114.109C207.035 114.109 205.828 113.512 204.984 112.316C204.141 111.121 203.719 109.422 203.719 107.219C203.719 106.047 203.824 104.77 204.035 103.387C204.27 102.027 204.598 100.621 205.02 99.168C205.441 97.7148 205.945 96.2383 206.531 94.7383C207.141 93.2617 207.809 91.8203 208.535 90.4141C209.262 89.0078 210.047 87.6602 210.891 86.3711C211.758 85.082 212.672 83.9102 213.633 82.8555C213.656 81.2148 213.668 79.5859 213.668 77.9688C213.691 76.3516 213.727 74.8633 213.773 73.5039C213.07 74.3945 212.227 75.0977 211.242 75.6133C210.281 76.1289 209.32 76.3867 208.359 76.3867C207.539 76.3867 206.789 76.2344 206.109 75.9297C205.453 75.6016 204.891 75.1562 204.422 74.5938C203.953 74.0078 203.59 73.3281 203.332 72.5547C203.074 71.7812 202.945 70.9375 202.945 70.0234C202.945 68.1953 203.25 66.5898 203.859 65.207C204.492 63.8008 205.289 62.6289 206.25 61.6914C207.211 60.7539 208.266 60.0508 209.414 59.582C210.586 59.1133 211.711 58.8789 212.789 58.8789C213.516 58.8789 214.184 58.9727 214.793 59.1602C215.402 59.3477 215.918 59.5586 216.34 59.793C216.785 60.0273 217.125 60.25 217.359 60.4609C217.594 60.6719 217.723 60.7891 217.746 60.8125C218.004 61.0938 218.133 61.4102 218.133 61.7617C218.133 62.1133 218.004 62.4297 217.746 62.7109C217.488 62.9688 217.184 63.0977 216.832 63.0977C216.504 63.0977 216.188 62.9688 215.883 62.7109C215.789 62.6406 215.66 62.5469 215.496 62.4297C215.355 62.2891 215.156 62.1484 214.898 62.0078C214.664 61.8672 214.371 61.75 214.02 61.6562C213.691 61.5625 213.293 61.5156 212.824 61.5156C212.121 61.5156 211.348 61.6797 210.504 62.0078C209.66 62.3125 208.875 62.8047 208.148 63.4844C207.422 64.1641 206.812 65.043 206.32 66.1211C205.828 67.1758 205.582 68.4531 205.582 69.9531C205.582 71.0781 205.828 71.9922 206.32 72.6953C206.812 73.375 207.574 73.7148 208.605 73.7148C209.098 73.7148 209.613 73.5742 210.152 73.293C210.715 73.0117 211.254 72.5781 211.77 71.9922C212.285 71.4062 212.73 70.668 213.105 69.7773C213.504 68.8867 213.785 67.832 213.949 66.6133C213.996 66.2852 214.148 66.0156 214.406 65.8047C214.664 65.5703 214.969 65.4531 215.32 65.4531C215.719 65.4531 216.023 65.5938 216.234 65.875C216.469 66.1562 216.586 66.4727 216.586 66.8242C216.586 66.8477 216.574 67.2109 216.551 67.9141C216.527 68.5938 216.504 69.5078 216.48 70.6562C216.457 71.8047 216.422 73.1406 216.375 74.6641C216.352 76.1641 216.328 77.7578 216.305 79.4453ZM213.633 87.1445C212.531 88.668 211.535 90.3203 210.645 92.1016C209.754 93.9062 208.992 95.7227 208.359 97.5508C207.727 99.3789 207.234 101.148 206.883 102.859C206.555 104.594 206.391 106.141 206.391 107.5C206.391 108.367 206.461 109.059 206.602 109.574C206.766 110.09 206.953 110.488 207.164 110.77C207.398 111.051 207.645 111.238 207.902 111.332C208.184 111.426 208.441 111.473 208.676 111.473C209.402 111.473 210.035 111.18 210.574 110.594C211.113 110.008 211.57 109.223 211.945 108.238C212.32 107.277 212.625 106.164 212.859 104.898C213.094 103.633 213.27 102.32 213.387 100.961C213.504 99.625 213.586 98.2891 213.633 96.9531C213.68 95.6172 213.703 94.3867 213.703 93.2617C213.703 92.2539 213.703 91.2461 213.703 90.2383C213.703 89.2305 213.68 88.1992 213.633 87.1445ZM252.691 66.1914C252.598 66.3789 252.398 66.7773 252.094 67.3867C251.812 67.9727 251.438 68.6523 250.969 69.4258C250.523 70.1992 249.996 71.0078 249.387 71.8516C248.777 72.6953 248.098 73.4688 247.348 74.1719C246.598 74.875 245.789 75.4609 244.922 75.9297C244.055 76.375 243.141 76.5977 242.18 76.5977C240.82 76.5977 239.672 76.1641 238.734 75.2969C237.82 74.4297 237.152 73.3398 236.73 72.0273C235.934 73.3633 234.984 74.4297 233.883 75.2266C232.781 76 231.68 76.3867 230.578 76.3867C229.711 76.3867 228.926 76.2344 228.223 75.9297C227.52 75.6016 226.922 75.1562 226.43 74.5938C225.938 74.0078 225.551 73.3281 225.27 72.5547C225.012 71.7812 224.883 70.9375 224.883 70.0234C224.883 68.1953 225.188 66.5898 225.797 65.207C226.43 63.8008 227.227 62.6289 228.188 61.6914C229.148 60.7539 230.203 60.0508 231.352 59.582C232.523 59.1133 233.648 58.8789 234.727 58.8789C235.453 58.8789 236.121 58.9844 236.73 59.1953C237.34 59.3828 237.855 59.5938 238.277 59.8281C238.723 60.0625 239.062 60.2852 239.297 60.4961C239.531 60.6836 239.66 60.7891 239.684 60.8125C239.941 61.1172 240.07 61.4336 240.07 61.7617C240.07 62.1133 239.941 62.4297 239.684 62.7109C239.426 62.9688 239.121 63.0977 238.77 63.0977C238.395 63.0977 238.078 62.9688 237.82 62.7109C237.773 62.6641 237.668 62.582 237.504 62.4648C237.34 62.3242 237.117 62.1836 236.836 62.043C236.555 61.9023 236.215 61.7852 235.816 61.6914C235.441 61.5742 235.008 61.5156 234.516 61.5156C233.789 61.5156 233.016 61.6797 232.195 62.0078C231.375 62.3359 230.625 62.8516 229.945 63.5547C229.266 64.2344 228.691 65.1016 228.223 66.1562C227.777 67.1875 227.555 68.418 227.555 69.8477C227.555 70.293 227.602 70.75 227.695 71.2188C227.789 71.6641 227.953 72.0742 228.188 72.4492C228.422 72.8242 228.738 73.1289 229.137 73.3633C229.535 73.5977 230.027 73.7148 230.613 73.7148C231.035 73.7148 231.516 73.5742 232.055 73.293C232.617 73.0117 233.145 72.5781 233.637 71.9922C234.152 71.4062 234.609 70.668 235.008 69.7773C235.43 68.8867 235.723 67.832 235.887 66.6133C235.934 66.2852 236.086 66.0156 236.344 65.8047C236.602 65.5703 236.906 65.4531 237.258 65.4531C237.586 65.4531 237.867 65.582 238.102 65.8398C238.359 66.0977 238.5 66.3906 238.523 66.7188C238.547 67.1641 238.594 67.7969 238.664 68.6172C238.734 69.4141 238.887 70.2109 239.121 71.0078C239.379 71.8047 239.754 72.4961 240.246 73.082C240.738 73.668 241.418 73.9609 242.285 73.9609C242.848 73.9609 243.398 73.8086 243.938 73.5039C244.5 73.1992 245.039 72.8008 245.555 72.3086C246.094 71.793 246.598 71.2188 247.066 70.5859C247.559 69.9297 248.004 69.2734 248.402 68.6172C248.801 67.9609 249.152 67.3281 249.457 66.7188C249.762 66.1094 250.02 65.582 250.23 65.1367C250.348 64.8789 250.512 64.6797 250.723 64.5391C250.957 64.3984 251.203 64.3281 251.461 64.3281C251.859 64.3281 252.176 64.4805 252.41 64.7852C252.668 65.0664 252.797 65.3711 252.797 65.6992C252.797 65.8633 252.762 66.0273 252.691 66.1914ZM278.742 40.8086C278.742 41.1836 278.613 41.4883 278.355 41.7227C278.098 41.9336 277.781 42.0391 277.406 42.0391H259.582V42.4258C259.582 43.8555 259.477 45.3789 259.266 46.9961C259.055 48.6133 258.762 50.2305 258.387 51.8477C258.035 53.4414 257.625 55 257.156 56.5234C256.711 58.0469 256.242 59.4531 255.75 60.7422C255.281 62.0312 254.812 63.1562 254.344 64.1172C253.875 65.0547 253.453 65.7578 253.078 66.2266C253.383 67.3047 253.746 68.3125 254.168 69.25C254.59 70.1641 255.059 70.9727 255.574 71.6758C256.113 72.3555 256.688 72.8945 257.297 73.293C257.906 73.6914 258.562 73.8906 259.266 73.8906C260.086 73.8906 260.895 73.5508 261.691 72.8711C262.512 72.168 263.262 71.3477 263.941 70.4102C264.645 69.4492 265.254 68.4883 265.77 67.5273C266.309 66.543 266.695 65.7578 266.93 65.1719C267.164 64.6094 267.574 64.3281 268.16 64.3281C268.559 64.3281 268.875 64.4688 269.109 64.75C269.367 65.0312 269.496 65.3359 269.496 65.6641C269.496 65.8281 269.461 65.9922 269.391 66.1562C269.32 66.3203 269.145 66.6953 268.863 67.2812C268.605 67.8672 268.254 68.5469 267.809 69.3203C267.387 70.0938 266.883 70.9141 266.297 71.7812C265.734 72.625 265.09 73.3984 264.363 74.1016C263.66 74.8047 262.898 75.3906 262.078 75.8594C261.258 76.3281 260.391 76.5625 259.477 76.5625C257.859 76.5625 256.406 76.0352 255.117 74.9805C253.828 73.9258 252.727 72.4492 251.812 70.5508C250.922 68.6523 250.242 66.4023 249.773 63.8008C249.305 61.1992 249.07 58.3516 249.07 55.2578C249.07 54.4844 249.082 53.582 249.105 52.5508C249.129 51.4961 249.176 50.3945 249.246 49.2461C249.316 48.0742 249.422 46.8789 249.562 45.6602C249.703 44.418 249.891 43.2109 250.125 42.0391H237.504C237.129 42.0391 236.812 41.9336 236.555 41.7227C236.297 41.4883 236.168 41.1836 236.168 40.8086C236.168 40.4336 236.297 40.1406 236.555 39.9297C236.812 39.6953 237.129 39.5781 237.504 39.5781H250.723C250.957 38.7344 251.227 37.9609 251.531 37.2578C251.859 36.5547 252.223 35.9453 252.621 35.4297C253.043 34.9141 253.5 34.5156 253.992 34.2344C254.508 33.9297 255.07 33.7773 255.68 33.7773C256.266 33.7773 256.77 33.9297 257.191 34.2344C257.637 34.5156 258.012 34.9141 258.316 35.4297C258.621 35.9453 258.855 36.5547 259.02 37.2578C259.207 37.9609 259.348 38.7344 259.441 39.5781H277.406C277.781 39.5781 278.098 39.6953 278.355 39.9297C278.613 40.1406 278.742 40.4336 278.742 40.8086ZM252.27 62.7109C252.973 61.1641 253.605 59.5 254.168 57.7188C254.754 55.9141 255.246 54.0977 255.645 52.2695C256.066 50.4414 256.383 48.6484 256.594 46.8906C256.828 45.1328 256.945 43.5156 256.945 42.0391H252.797C252.469 43.4922 252.199 45.2969 251.988 47.4531C251.801 49.5859 251.707 52.1875 251.707 55.2578C251.707 56.9688 251.754 58.4102 251.848 59.582C251.941 60.7305 252.082 61.7734 252.27 62.7109ZM255.539 36.4141C255.328 36.4141 255.023 36.6484 254.625 37.1172C254.227 37.5625 253.828 38.3828 253.43 39.5781H256.805C256.688 38.5938 256.512 37.8203 256.277 37.2578C256.066 36.6953 255.82 36.4141 255.539 36.4141ZM252.832 65.2422V65.2773V65.2422ZM271.289 72.1328C271.781 72.8125 272.414 73.3633 273.188 73.7852C273.961 74.1836 274.91 74.3828 276.035 74.3828C277.184 74.3828 278.227 74.1133 279.164 73.5742C280.102 73.0117 280.957 72.2852 281.73 71.3945C282.504 70.5039 283.195 69.5078 283.805 68.4062C284.414 67.3047 284.965 66.2031 285.457 65.1016C285.574 64.8438 285.738 64.6562 285.949 64.5391C286.16 64.3984 286.395 64.3281 286.652 64.3281C287.051 64.3281 287.367 64.4688 287.602 64.75C287.859 65.0312 287.988 65.3359 287.988 65.6641C287.988 65.7812 287.977 65.8867 287.953 65.9805C287.93 66.0508 287.895 66.1328 287.848 66.2266C286.23 69.7891 284.461 72.4727 282.539 74.2773C280.641 76.082 278.484 77.0078 276.07 77.0547C274.523 77.0547 273.188 76.75 272.062 76.1406C270.938 75.5547 270.012 74.793 269.285 73.8555C268.559 72.8945 268.02 71.8164 267.668 70.6211C267.316 69.4258 267.141 68.2305 267.141 67.0352C267.141 65.8398 267.281 64.7383 267.562 63.7305C267.867 62.7227 268.289 61.8438 268.828 61.0938C269.391 60.3438 270.047 59.7578 270.797 59.3359C271.57 58.9141 272.414 58.7031 273.328 58.7031C273.867 58.7031 274.395 58.8203 274.91 59.0547C275.449 59.2656 275.93 59.582 276.352 60.0039C276.773 60.4023 277.113 60.8945 277.371 61.4805C277.629 62.0664 277.758 62.7344 277.758 63.4844C277.758 64.4453 277.594 65.3477 277.266 66.1914C276.938 67.0352 276.48 67.8203 275.895 68.5469C275.332 69.2734 274.652 69.9414 273.855 70.5508C273.059 71.1602 272.203 71.6875 271.289 72.1328ZM270.234 69.8477C270.961 69.543 271.617 69.1562 272.203 68.6875C272.812 68.2188 273.328 67.7031 273.75 67.1406C274.172 66.5781 274.5 65.9922 274.734 65.3828C274.969 64.75 275.086 64.1172 275.086 63.4844C275.086 62.7812 274.91 62.2539 274.559 61.9023C274.207 61.5273 273.797 61.3398 273.328 61.3398C272.695 61.3398 272.156 61.5156 271.711 61.8672C271.266 62.2188 270.902 62.6758 270.621 63.2383C270.34 63.8008 270.129 64.4336 269.988 65.1367C269.871 65.8164 269.812 66.4961 269.812 67.1758C269.812 67.5977 269.848 68.043 269.918 68.5117C270.012 68.9805 270.117 69.4258 270.234 69.8477Z" fill="black"/>
<path fill-rule="evenodd" clip-rule="evenodd" d="M52.112 23.2494C53.7053 29.8485 52.3941 36.4692 49.0001 41.7671L42.7342 86.3181L16.8313 49.5337C11.3939 46.3679 7.2064 41.0748 5.61317 34.4758C2.5131 21.6354 10.4091 8.71322 23.2494 5.61315C36.0897 2.51308 49.012 10.4091 52.112 23.2494ZM30.7336 36.6124C35.0137 35.579 37.6457 31.2716 36.6124 26.9915C35.579 22.7114 31.2716 20.0794 26.9915 21.1128C22.7114 22.1461 20.0794 26.4535 21.1128 30.7336C22.1461 35.0137 26.4535 37.6458 30.7336 36.6124Z" fill="#A3A3A3"/>
<g filter="url(#filter0_d_101_60)">
<path d="M85.3557 62.0573C84.2542 63.8386 82.7659 65.6081 80.8909 67.3659C79.0159 69.1003 76.8713 70.6706 74.4573 72.0769C72.0667 73.4597 69.4534 74.573 66.6174 75.4167C63.7815 76.2839 60.8518 76.7175 57.8284 76.7175C55.4612 76.7175 53.094 76.5066 50.7268 76.0847C48.3831 75.6628 46.1213 75.0183 43.9417 74.1511C41.7854 73.2839 39.7698 72.1941 37.8948 70.8816C36.0432 69.5456 34.426 67.9753 33.0432 66.1706C31.6604 64.3659 30.5706 62.3152 29.7737 60.0183C29.0002 57.7214 28.6135 55.1667 28.6135 52.3542C28.6135 49.612 29.012 47.0105 29.8088 44.5495C30.6292 42.0886 31.7659 39.8152 33.219 37.7292C34.6721 35.6198 36.3948 33.7214 38.387 32.0339C40.3792 30.3464 42.5588 28.9167 44.926 27.7448C47.2932 26.5495 49.7893 25.6355 52.4143 25.0027C55.0393 24.3698 57.7229 24.0534 60.4651 24.0534C63.4885 24.0534 66.3245 24.4167 68.9729 25.1433C71.6448 25.8464 73.9768 26.8542 75.969 28.1667C77.9612 29.4558 79.5315 31.0144 80.6799 32.8425C81.8518 34.6472 82.4377 36.6628 82.4377 38.8894C82.4377 40.9519 81.9573 42.9206 80.9963 44.7956C80.0354 46.6472 78.7112 48.2761 77.0237 49.6823C75.3596 51.0886 73.4026 52.2019 71.1526 53.0222C68.926 53.8425 66.5471 54.2527 64.0159 54.2527C61.9768 54.2527 60.1721 54.0066 58.6018 53.5144C57.0315 52.9987 55.719 52.2956 54.6643 51.405C53.6096 50.5144 52.8127 49.4714 52.2737 48.2761C51.7346 47.0808 51.4651 45.7917 51.4651 44.4089C51.4651 43.2605 51.6409 42.2175 51.9924 41.28C52.3674 40.3191 52.7659 39.4987 53.1877 38.8191C53.6331 38.1394 54.0432 37.612 54.4182 37.237C54.8167 36.8386 55.0393 36.6159 55.0862 36.5691C55.2034 36.4519 55.3323 36.3816 55.4729 36.3581C55.637 36.3112 55.7893 36.2878 55.9299 36.2878C56.3049 36.2878 56.6213 36.405 56.8792 36.6394C57.137 36.8737 57.2659 37.1784 57.2659 37.5534C57.2659 37.9753 57.1135 38.3269 56.8088 38.6081C56.762 38.6316 56.5979 38.7956 56.3167 39.1003C56.0354 39.3816 55.7307 39.78 55.4026 40.2956C55.0745 40.7878 54.7698 41.3855 54.4885 42.0886C54.2307 42.7917 54.1018 43.5652 54.1018 44.4089C54.1018 45.7448 54.3948 46.8698 54.9807 47.7839C55.5901 48.698 56.3752 49.448 57.3362 50.0339C58.2971 50.5964 59.3635 51.0066 60.5354 51.2644C61.7073 51.4987 62.8792 51.6159 64.051 51.6159C66.2307 51.6159 68.2698 51.2644 70.1682 50.5612C72.0901 49.8581 73.7659 48.9206 75.1956 47.7487C76.6252 46.5769 77.7502 45.2292 78.5706 43.7058C79.3909 42.1823 79.801 40.5886 79.801 38.9245C79.801 37.0964 79.2854 35.4323 78.2542 33.9323C77.2229 32.4089 75.8284 31.1198 74.0706 30.0652C72.3127 28.987 70.2502 28.155 67.8831 27.5691C65.5393 26.9831 63.0315 26.6902 60.3596 26.6902C58.344 26.6902 56.2229 26.9362 53.9963 27.4284C51.7932 27.8972 49.6135 28.612 47.4573 29.573C45.301 30.5339 43.2385 31.7292 41.2698 33.1589C39.3245 34.5886 37.6135 36.2644 36.137 38.1862C34.6604 40.0847 33.4768 42.2175 32.5862 44.5847C31.719 46.9519 31.2854 49.5417 31.2854 52.3542C31.2854 54.9089 31.637 57.2175 32.3401 59.28C33.0667 61.3425 34.0627 63.1823 35.3284 64.7995C36.594 66.3933 38.0706 67.7761 39.7581 68.948C41.469 70.1198 43.2971 71.0925 45.2424 71.8659C47.2112 72.6159 49.262 73.1784 51.3948 73.5534C53.5276 73.905 55.6487 74.0808 57.7581 74.0808C60.5706 74.0808 63.2776 73.6941 65.8792 72.9206C68.4807 72.1237 70.8831 71.0925 73.0862 69.8269C75.3127 68.5378 77.2815 67.0964 78.9924 65.5027C80.7034 63.9089 82.0627 62.3034 83.0706 60.6862C83.1877 60.4753 83.3518 60.323 83.5627 60.2292C83.7737 60.112 83.9963 60.0534 84.2307 60.0534C84.6292 60.0534 84.9456 60.1941 85.1799 60.4753C85.4143 60.7331 85.5315 61.0261 85.5315 61.3542C85.5315 61.4714 85.5198 61.5886 85.4963 61.7058C85.4729 61.823 85.426 61.9402 85.3557 62.0573Z" fill="black"/>
<path d="M85.3557 62.0573L87.0567 63.1093L87.0638 63.0979L87.0707 63.0863L85.3557 62.0573ZM80.8909 67.3659L82.249 68.8342L82.2588 68.825L80.8909 67.3659ZM74.4573 72.0769L75.4587 73.8081L75.464 73.805L74.4573 72.0769ZM66.6174 75.4167L66.0471 73.4998L66.0398 73.5019L66.0326 73.5041L66.6174 75.4167ZM50.7268 76.0847L50.3725 78.0531L50.3759 78.0537L50.7268 76.0847ZM43.9417 74.1511L43.1954 76.0067L43.2023 76.0094L43.9417 74.1511ZM37.8948 70.8816L36.7245 72.5035L36.7361 72.5118L36.7479 72.52L37.8948 70.8816ZM29.7737 60.0183L27.8783 60.6565L27.8812 60.6652L27.8842 60.6738L29.7737 60.0183ZM29.8088 44.5495L27.9115 43.9171L27.9088 43.9252L27.9061 43.9334L29.8088 44.5495ZM33.219 37.7292L34.8601 38.8724L34.866 38.8638L33.219 37.7292ZM44.926 27.7448L45.8133 29.5372L45.8204 29.5337L45.8275 29.5301L44.926 27.7448ZM68.9729 25.1433L68.4438 27.072L68.4538 27.0748L68.4639 27.0774L68.9729 25.1433ZM75.969 28.1667L74.8687 29.8368L74.8756 29.8414L74.8825 29.8459L75.969 28.1667ZM80.6799 32.8425L78.9864 33.9064L78.9944 33.9191L79.0025 33.9317L80.6799 32.8425ZM80.9963 44.7956L82.7715 45.7169L82.7762 45.7078L80.9963 44.7956ZM77.0237 49.6823L75.7433 48.1459L75.7328 48.1548L77.0237 49.6823ZM71.1526 53.0222L70.4675 51.1432L70.4612 51.1455L71.1526 53.0222ZM58.6018 53.5144L57.9779 55.4146L57.9907 55.4188L58.0036 55.4228L58.6018 53.5144ZM51.9924 41.28L50.1293 40.5529L50.1244 40.5653L50.1198 40.5778L51.9924 41.28ZM53.1877 38.8191L51.5148 37.723L51.5014 37.7435L51.4885 37.7643L53.1877 38.8191ZM55.4729 36.3581L55.8017 38.3309L55.9134 38.3123L56.0223 38.2812L55.4729 36.3581ZM56.8088 38.6081L57.7033 40.397L57.957 40.2701L58.1654 40.0777L56.8088 38.6081ZM56.3167 39.1003L57.7309 40.5145L57.7591 40.4863L57.7863 40.4569L56.3167 39.1003ZM55.4026 40.2956L57.0667 41.405L57.0785 41.3873L57.0899 41.3694L55.4026 40.2956ZM54.4885 42.0886L52.6316 41.3458L52.6208 41.3728L52.6108 41.4001L54.4885 42.0886ZM54.9807 47.7839L53.297 48.8632L53.3066 48.8784L53.3166 48.8933L54.9807 47.7839ZM57.3362 50.0339L56.295 51.7415L56.3103 51.7509L56.3258 51.7599L57.3362 50.0339ZM60.5354 51.2644L60.1057 53.2177L60.1244 53.2218L60.1432 53.2255L60.5354 51.2644ZM70.1682 50.5612L69.481 48.683L69.4736 48.6858L70.1682 50.5612ZM78.2542 33.9323L76.5979 35.0535L76.602 35.0595L76.6061 35.0654L78.2542 33.9323ZM74.0706 30.0652L73.0249 31.77L73.0332 31.7751L73.0416 31.7801L74.0706 30.0652ZM67.8831 27.5691L67.398 29.5094L67.4025 29.5105L67.8831 27.5691ZM53.9963 27.4284L54.4126 29.3846L54.4203 29.383L54.428 29.3813L53.9963 27.4284ZM41.2698 33.1589L40.0946 31.5406L40.0854 31.5473L41.2698 33.1589ZM36.137 38.1862L37.7157 39.4142L37.7229 39.4047L36.137 38.1862ZM32.5862 44.5847L30.7143 43.8804L30.7112 43.8886L30.7082 43.8967L32.5862 44.5847ZM32.3401 59.28L30.4471 59.9253L30.4503 59.9349L30.4537 59.9445L32.3401 59.28ZM35.3284 64.7995L33.7534 66.0321L33.7577 66.0377L33.7621 66.0433L35.3284 64.7995ZM39.7581 68.948L38.6172 70.5907L38.6279 70.598L39.7581 68.948ZM45.2424 71.8659L44.5035 73.7244L44.5169 73.7298L44.5304 73.7349L45.2424 71.8659ZM51.3948 73.5534L51.0484 75.5232L51.059 75.5251L51.0695 75.5268L51.3948 73.5534ZM65.8792 72.9206L66.4491 74.8377L66.457 74.8353L66.4649 74.8329L65.8792 72.9206ZM73.0862 69.8269L74.0824 71.5611L74.0883 71.5577L73.0862 69.8269ZM83.0706 60.6862L84.7679 61.744L84.7945 61.7014L84.8189 61.6575L83.0706 60.6862ZM83.5627 60.2292L84.375 62.0568L84.4563 62.0207L84.534 61.9775L83.5627 60.2292ZM85.1799 60.4753L83.6435 61.7557L83.6711 61.7888L83.7001 61.8207L85.1799 60.4753ZM83.6547 61.0054C82.6639 62.6075 81.2974 64.2433 79.523 65.9069L82.2588 68.825C84.2343 66.9729 85.8444 65.0697 87.0567 63.1093L83.6547 61.0054ZM79.5328 65.8977C77.7745 67.5241 75.75 69.0092 73.4506 70.3487L75.464 73.805C77.9926 72.332 80.2572 70.6765 82.249 68.8341L79.5328 65.8977ZM73.4559 70.3456C71.2104 71.6445 68.7432 72.6976 66.0471 73.4998L67.1878 77.3337C70.1635 76.4483 72.9229 75.2749 75.4587 73.8081L73.4559 70.3456ZM66.0326 73.5041C63.3899 74.3122 60.6575 74.7175 57.8284 74.7175V78.7175C61.0461 78.7175 64.1731 78.2556 67.2023 77.3293L66.0326 73.5041ZM57.8284 74.7175C55.5807 74.7175 53.3309 74.5173 51.0777 74.1157L50.3759 78.0537C52.8571 78.4959 55.3417 78.7175 57.8284 78.7175V74.7175ZM51.0811 74.1163C48.8671 73.7178 46.7345 73.1097 44.681 72.2928L43.2023 76.0094C45.5082 76.9268 47.8991 77.6078 50.3725 78.0531L51.0811 74.1163ZM44.6879 72.2955C42.6709 71.4843 40.7899 70.4669 39.0417 69.2431L36.7479 72.52C38.7496 73.9213 40.9 75.0835 43.1954 76.0067L44.6879 72.2955ZM39.065 69.2597C37.3709 68.0373 35.8945 66.6034 34.6308 64.9542L31.4557 67.3871C32.9576 69.3472 34.7155 71.0539 36.7245 72.5035L39.065 69.2597ZM34.6308 64.9542C33.3866 63.3305 32.3949 61.4717 31.6632 59.3627L27.8842 60.6738C28.7462 63.1586 29.9342 65.4013 31.4557 67.3871L34.6308 64.9542ZM31.6691 59.38C30.975 57.3188 30.6135 54.9838 30.6135 52.3542H26.6135C26.6135 55.3496 27.0255 58.124 27.8783 60.6565L31.6691 59.38ZM30.6135 52.3542C30.6135 49.8086 30.9829 47.4159 31.7116 45.1657L27.9061 43.9334C27.041 46.605 26.6135 49.4154 26.6135 52.3542H30.6135ZM31.7062 45.182C32.4672 42.8989 33.5186 40.7981 34.8601 38.8724L31.5779 36.586C30.0131 38.8323 28.7911 41.2782 27.9115 43.9171L31.7062 45.182ZM34.866 38.8638C36.2169 36.9028 37.8197 35.1355 39.6797 33.56L37.0943 30.5078C34.9698 32.3074 33.1273 34.3368 31.572 36.5946L34.866 38.8638ZM39.6797 33.56C41.5466 31.9786 43.5899 30.638 45.8133 29.5372L44.0387 25.9525C41.5278 27.1955 39.2117 28.7142 37.0943 30.5078L39.6797 33.56ZM45.8275 29.5301C48.0546 28.4056 50.4052 27.5443 52.883 26.947L51.9456 23.0584C49.1734 23.7266 46.5319 24.6935 44.0245 25.9595L45.8275 29.5301ZM52.883 26.947C55.3521 26.3517 57.8783 26.0534 60.4651 26.0534V22.0534C57.5675 22.0534 54.7265 22.388 51.9456 23.0584L52.883 26.947ZM60.4651 26.0534C63.3276 26.0534 65.9841 26.3972 68.4438 27.072L69.502 23.2145C66.6648 22.4362 63.6495 22.0534 60.4651 22.0534V26.0534ZM68.4639 27.0774C70.9582 27.7338 73.0841 28.6611 74.8687 29.8368L77.0693 26.4966C74.8695 25.0473 72.3313 23.959 69.4819 23.2091L68.4639 27.0774ZM74.8825 29.8459C76.6544 30.9924 78.0078 32.3487 78.9864 33.9064L82.3735 31.7786C81.0551 29.68 79.2679 27.9192 77.0555 26.4876L74.8825 29.8459ZM79.0025 33.9317C79.9563 35.4004 80.4377 37.0352 80.4377 38.8894H84.4377C84.4377 36.2904 83.7473 33.8939 82.3573 31.7533L79.0025 33.9317ZM80.4377 38.8894C80.4377 40.6276 80.036 42.2844 79.2165 43.8834L82.7762 45.7078C83.8786 43.5568 84.4377 41.2761 84.4377 38.8894H80.4377ZM79.2212 43.8743C78.3891 45.4776 77.2376 46.9006 75.7433 48.1459L78.3041 51.2188C80.1847 49.6516 81.6817 47.8168 82.7715 45.7169L79.2212 43.8743ZM75.7328 48.1548C74.2654 49.3948 72.5184 50.3955 70.4675 51.1432L71.8376 54.9012C74.2868 54.0083 76.4538 52.7824 78.3146 51.2099L75.7328 48.1548ZM70.4612 51.1455C68.4704 51.8789 66.327 52.2527 64.0159 52.2527V56.2527C66.7672 56.2527 69.3816 55.8061 71.844 54.8989L70.4612 51.1455ZM64.0159 52.2527C62.1333 52.2527 60.5369 52.025 59.2 51.6059L58.0036 55.4228C59.8074 55.9882 61.8204 56.2527 64.0159 56.2527V52.2527ZM59.2257 51.6142C57.8523 51.1632 56.7786 50.5727 55.9547 49.8769L53.3739 52.9331C54.6594 54.0186 56.2107 54.8343 57.9779 55.4146L59.2257 51.6142ZM55.9547 49.8769C55.1157 49.1685 54.5067 48.3628 54.0969 47.4539L50.4505 49.0983C51.1187 50.58 52.1035 51.8603 53.3739 52.9331L55.9547 49.8769ZM54.0969 47.4539C53.6807 46.531 53.4651 45.524 53.4651 44.4089H49.4651C49.4651 46.0594 49.7886 47.6305 50.4505 49.0983L54.0969 47.4539ZM53.4651 44.4089C53.4651 43.4655 53.6091 42.6648 53.8651 41.9822L50.1198 40.5778C49.6726 41.7702 49.4651 43.0554 49.4651 44.4089H53.4651ZM53.8556 42.0071C54.1981 41.1293 54.5451 40.4247 54.887 39.8738L51.4885 37.7643C50.9867 38.5728 50.5367 39.5088 50.1293 40.5529L53.8556 42.0071ZM54.8607 39.9151C55.266 39.2964 55.5911 38.8926 55.8324 38.6512L53.004 35.8228C52.4954 36.3315 52.0001 36.9823 51.5148 37.723L54.8607 39.9151ZM55.8324 38.6512C55.8332 38.6505 55.834 38.6497 55.8348 38.6489C55.8355 38.6481 55.8363 38.6474 55.8371 38.6466C55.8379 38.6458 55.8386 38.645 55.8394 38.6443C55.8402 38.6435 55.841 38.6427 55.8417 38.6419C55.8425 38.6412 55.8433 38.6404 55.844 38.6396C55.8448 38.6388 55.8456 38.6381 55.8464 38.6373C55.8471 38.6365 55.8479 38.6358 55.8487 38.635C55.8494 38.6342 55.8502 38.6335 55.851 38.6327C55.8517 38.6319 55.8525 38.6312 55.8533 38.6304C55.854 38.6296 55.8548 38.6289 55.8556 38.6281C55.8563 38.6273 55.8571 38.6266 55.8579 38.6258C55.8586 38.625 55.8594 38.6243 55.8602 38.6235C55.8609 38.6228 55.8617 38.622 55.8624 38.6212C55.8632 38.6205 55.864 38.6197 55.8647 38.619C55.8655 38.6182 55.8662 38.6174 55.867 38.6167C55.8678 38.6159 55.8685 38.6152 55.8693 38.6144C55.87 38.6136 55.8708 38.6129 55.8715 38.6121C55.8723 38.6114 55.873 38.6106 55.8738 38.6099C55.8746 38.6091 55.8753 38.6084 55.8761 38.6076C55.8768 38.6069 55.8776 38.6061 55.8783 38.6054C55.8791 38.6046 55.8798 38.6039 55.8806 38.6031C55.8813 38.6024 55.8821 38.6016 55.8828 38.6009C55.8836 38.6001 55.8843 38.5994 55.8851 38.5986C55.8858 38.5979 55.8866 38.5971 55.8873 38.5964C55.888 38.5956 55.8888 38.5949 55.8895 38.5941C55.8903 38.5934 55.891 38.5926 55.8918 38.5919C55.8925 38.5912 55.8933 38.5904 55.894 38.5897C55.8947 38.5889 55.8955 38.5882 55.8962 38.5875C55.897 38.5867 55.8977 38.586 55.8984 38.5852C55.8992 38.5845 55.8999 38.5838 55.9007 38.583C55.9014 38.5823 55.9021 38.5815 55.9029 38.5808C55.9036 38.5801 55.9043 38.5793 55.9051 38.5786C55.9058 38.5779 55.9065 38.5771 55.9073 38.5764C55.908 38.5757 55.9087 38.5749 55.9095 38.5742C55.9102 38.5735 55.9109 38.5727 55.9117 38.572C55.9124 38.5713 55.9131 38.5705 55.9139 38.5698C55.9146 38.5691 55.9153 38.5683 55.9161 38.5676C55.9168 38.5669 55.9175 38.5662 55.9182 38.5654C55.919 38.5647 55.9197 38.564 55.9204 38.5633C55.9211 38.5625 55.9219 38.5618 55.9226 38.5611C55.9233 38.5604 55.924 38.5596 55.9248 38.5589C55.9255 38.5582 55.9262 38.5575 55.9269 38.5567C55.9277 38.556 55.9284 38.5553 55.9291 38.5546C55.9298 38.5539 55.9305 38.5531 55.9313 38.5524C55.932 38.5517 55.9327 38.551 55.9334 38.5503C55.9341 38.5495 55.9348 38.5488 55.9356 38.5481C55.9363 38.5474 55.937 38.5467 55.9377 38.546C55.9384 38.5452 55.9391 38.5445 55.9399 38.5438C55.9406 38.5431 55.9413 38.5424 55.942 38.5417C55.9427 38.541 55.9434 38.5403 55.9441 38.5395C55.9448 38.5388 55.9455 38.5381 55.9463 38.5374C55.947 38.5367 55.9477 38.536 55.9484 38.5353C55.9491 38.5346 55.9498 38.5339 55.9505 38.5332C55.9512 38.5325 55.9519 38.5317 55.9526 38.531C55.9533 38.5303 55.954 38.5296 55.9547 38.5289C55.9554 38.5282 55.9562 38.5275 55.9569 38.5268C55.9576 38.5261 55.9583 38.5254 55.959 38.5247C55.9597 38.524 55.9604 38.5233 55.9611 38.5226C55.9618 38.5219 55.9625 38.5212 55.9632 38.5205C55.9639 38.5198 55.9646 38.5191 55.9653 38.5184C55.966 38.5177 55.9667 38.517 55.9674 38.5163C55.968 38.5156 55.9687 38.5149 55.9694 38.5142C55.9701 38.5135 55.9708 38.5128 55.9715 38.5121C55.9722 38.5115 55.9729 38.5108 55.9736 38.5101C55.9743 38.5094 55.975 38.5087 55.9757 38.508C55.9764 38.5073 55.9771 38.5066 55.9777 38.5059C55.9784 38.5052 55.9791 38.5045 55.9798 38.5039C55.9805 38.5032 55.9812 38.5025 55.9819 38.5018C55.9826 38.5011 55.9833 38.5004 55.9839 38.4997C55.9846 38.499 55.9853 38.4984 55.986 38.4977C55.9867 38.497 55.9874 38.4963 55.988 38.4956C55.9887 38.4949 55.9894 38.4943 55.9901 38.4936C55.9908 38.4929 55.9915 38.4922 55.9921 38.4915C55.9928 38.4909 55.9935 38.4902 55.9942 38.4895C55.9948 38.4888 55.9955 38.4881 55.9962 38.4875C55.9969 38.4868 55.9976 38.4861 55.9982 38.4854C55.9989 38.4848 55.9996 38.4841 56.0003 38.4834C56.0009 38.4827 56.0016 38.4821 56.0023 38.4814C56.003 38.4807 56.0036 38.48 56.0043 38.4794C56.005 38.4787 56.0056 38.478 56.0063 38.4774C56.007 38.4767 56.0077 38.476 56.0083 38.4753C56.009 38.4747 56.0097 38.474 56.0103 38.4733C56.011 38.4727 56.0117 38.472 56.0123 38.4713C56.013 38.4707 56.0137 38.47 56.0143 38.4693C56.015 38.4687 56.0157 38.468 56.0163 38.4673C56.017 38.4667 56.0177 38.466 56.0183 38.4653C56.019 38.4647 56.0196 38.464 56.0203 38.4634C56.021 38.4627 56.0216 38.462 56.0223 38.4614C56.023 38.4607 56.0236 38.4601 56.0243 38.4594C56.0249 38.4587 56.0256 38.4581 56.0262 38.4574C56.0269 38.4568 56.0276 38.4561 56.0282 38.4555C56.0289 38.4548 56.0295 38.4541 56.0302 38.4535C56.0308 38.4528 56.0315 38.4522 56.0321 38.4515C56.0328 38.4509 56.0335 38.4502 56.0341 38.4496C56.0348 38.4489 56.0354 38.4483 56.0361 38.4476C56.0367 38.447 56.0374 38.4463 56.038 38.4457C56.0387 38.445 56.0393 38.4444 56.04 38.4437C56.0406 38.4431 56.0413 38.4424 56.0419 38.4418C56.0425 38.4411 56.0432 38.4405 56.0438 38.4398C56.0445 38.4392 56.0451 38.4385 56.0458 38.4379C56.0464 38.4373 56.0471 38.4366 56.0477 38.436C56.0483 38.4353 56.049 38.4347 56.0496 38.434C56.0503 38.4334 56.0509 38.4328 56.0515 38.4321C56.0522 38.4315 56.0528 38.4308 56.0535 38.4302C56.0541 38.4296 56.0547 38.4289 56.0554 38.4283C56.056 38.4277 56.0567 38.427 56.0573 38.4264C56.0579 38.4257 56.0586 38.4251 56.0592 38.4245C56.0598 38.4238 56.0605 38.4232 56.0611 38.4226C56.0617 38.4219 56.0624 38.4213 56.063 38.4207C56.0636 38.42 56.0643 38.4194 56.0649 38.4188C56.0655 38.4181 56.0662 38.4175 56.0668 38.4169C56.0674 38.4163 56.068 38.4156 56.0687 38.415C56.0693 38.4144 56.0699 38.4137 56.0705 38.4131C56.0712 38.4125 56.0718 38.4119 56.0724 38.4112C56.0731 38.4106 56.0737 38.41 56.0743 38.4094C56.0749 38.4087 56.0755 38.4081 56.0762 38.4075C56.0768 38.4069 56.0774 38.4063 56.078 38.4056C56.0787 38.405 56.0793 38.4044 56.0799 38.4038C56.0805 38.4032 56.0811 38.4025 56.0818 38.4019C56.0824 38.4013 56.083 38.4007 56.0836 38.4001C56.0842 38.3994 56.0848 38.3988 56.0855 38.3982C56.0861 38.3976 56.0867 38.397 56.0873 38.3964C56.0879 38.3957 56.0885 38.3951 56.0891 38.3945C56.0898 38.3939 56.0904 38.3933 56.091 38.3927C56.0916 38.3921 56.0922 38.3915 56.0928 38.3909C56.0934 38.3902 56.094 38.3896 56.0946 38.389C56.0953 38.3884 56.0959 38.3878 56.0965 38.3872C56.0971 38.3866 56.0977 38.386 56.0983 38.3854C56.0989 38.3848 56.0995 38.3842 56.1001 38.3836C56.1007 38.383 56.1013 38.3823 56.1019 38.3817C56.1025 38.3811 56.1031 38.3805 56.1037 38.3799C56.1043 38.3793 56.1049 38.3787 56.1055 38.3781C56.1061 38.3775 56.1067 38.3769 56.1073 38.3763C56.1079 38.3757 56.1085 38.3751 56.1091 38.3745C56.1097 38.3739 56.1103 38.3733 56.1109 38.3727C56.1115 38.3721 56.1121 38.3715 56.1127 38.3709C56.1133 38.3704 56.1139 38.3698 56.1145 38.3692C56.1151 38.3686 56.1157 38.368 56.1163 38.3674C56.1169 38.3668 56.1175 38.3662 56.1181 38.3656C56.1187 38.365 56.1193 38.3644 56.1198 38.3638C56.1204 38.3632 56.121 38.3626 56.1216 38.3621C56.1222 38.3615 56.1228 38.3609 56.1234 38.3603C56.124 38.3597 56.1246 38.3591 56.1251 38.3585C56.1257 38.3579 56.1263 38.3574 56.1269 38.3568C56.1275 38.3562 56.1281 38.3556 56.1286 38.355C56.1292 38.3544 56.1298 38.3539 56.1304 38.3533C56.131 38.3527 56.1316 38.3521 56.1321 38.3515C56.1327 38.3509 56.1333 38.3504 56.1339 38.3498C56.1345 38.3492 56.135 38.3486 56.1356 38.348C56.1362 38.3475 56.1368 38.3469 56.1374 38.3463C56.1379 38.3457 56.1385 38.3452 56.1391 38.3446C56.1397 38.344 56.1402 38.3434 56.1408 38.3429C56.1414 38.3423 56.142 38.3417 56.1425 38.3411C56.1431 38.3406 56.1437 38.34 56.1442 38.3394C56.1448 38.3389 56.1454 38.3383 56.146 38.3377C56.1465 38.3371 56.1471 38.3366 56.1477 38.336C56.1482 38.3354 56.1488 38.3349 56.1494 38.3343C56.1499 38.3337 56.1505 38.3332 56.1511 38.3326C56.1516 38.332 56.1522 38.3315 56.1528 38.3309C56.1533 38.3303 56.1539 38.3298 56.1545 38.3292C56.155 38.3286 56.1556 38.3281 56.1562 38.3275C56.1567 38.327 56.1573 38.3264 56.1578 38.3258C56.1584 38.3253 56.159 38.3247 56.1595 38.3242C56.1601 38.3236 56.1606 38.323 56.1612 38.3225C56.1618 38.3219 56.1623 38.3214 56.1629 38.3208C56.1634 38.3202 56.164 38.3197 56.1645 38.3191C56.1651 38.3186 56.1656 38.318 56.1662 38.3175C56.1668 38.3169 56.1673 38.3164 56.1679 38.3158C56.1684 38.3153 56.169 38.3147 56.1695 38.3142C56.1701 38.3136 56.1706 38.313 56.1712 38.3125C56.1717 38.3119 56.1723 38.3114 56.1728 38.3109C56.1734 38.3103 56.1739 38.3098 56.1745 38.3092C56.175 38.3087 56.1756 38.3081 56.1761 38.3076C56.1767 38.307 56.1772 38.3065 56.1777 38.3059C56.1783 38.3054 56.1788 38.3048 56.1794 38.3043C56.1799 38.3038 56.1805 38.3032 56.181 38.3027C56.1815 38.3021 56.1821 38.3016 56.1826 38.301C56.1832 38.3005 56.1837 38.3 56.1842 38.2994C56.1848 38.2989 56.1853 38.2983 56.1859 38.2978C56.1864 38.2973 56.1869 38.2967 56.1875 38.2962C56.188 38.2957 56.1885 38.2951 56.1891 38.2946C56.1896 38.2941 56.1902 38.2935 56.1907 38.293C56.1912 38.2924 56.1918 38.2919 56.1923 38.2914C56.1928 38.2908 56.1934 38.2903 56.1939 38.2898C56.1944 38.2893 56.1949 38.2887 56.1955 38.2882C56.196 38.2877 56.1965 38.2871 56.1971 38.2866C56.1976 38.2861 56.1981 38.2855 56.1987 38.285C56.1992 38.2845 56.1997 38.284 56.2002 38.2834C56.2008 38.2829 56.2013 38.2824 56.2018 38.2819C56.2023 38.2813 56.2029 38.2808 56.2034 38.2803C56.2039 38.2798 56.2044 38.2792 56.2049 38.2787C56.2055 38.2782 56.206 38.2777 56.2065 38.2772C56.207 38.2766 56.2076 38.2761 56.2081 38.2756C56.2086 38.2751 56.2091 38.2746 56.2096 38.274C56.2101 38.2735 56.2107 38.273 56.2112 38.2725C56.2117 38.272 56.2122 38.2715 56.2127 38.2709C56.2132 38.2704 56.2138 38.2699 56.2143 38.2694C56.2148 38.2689 56.2153 38.2684 56.2158 38.2679C56.2163 38.2673 56.2168 38.2668 56.2173 38.2663C56.2179 38.2658 56.2184 38.2653 56.2189 38.2648C56.2194 38.2643 56.2199 38.2638 56.2204 38.2633C56.2209 38.2628 56.2214 38.2622 56.2219 38.2617C56.2224 38.2612 56.2229 38.2607 56.2235 38.2602C56.224 38.2597 56.2245 38.2592 56.225 38.2587C56.2255 38.2582 56.226 38.2577 56.2265 38.2572C56.227 38.2567 56.2275 38.2562 56.228 38.2557C56.2285 38.2552 56.229 38.2547 56.2295 38.2542C56.23 38.2537 56.2305 38.2532 56.231 38.2527C56.2315 38.2522 56.232 38.2517 56.2325 38.2512C56.233 38.2507 56.2335 38.2502 56.234 38.2497C56.2345 38.2492 56.235 38.2487 56.2355 38.2482C56.236 38.2477 56.2365 38.2472 56.2369 38.2467C56.2374 38.2462 56.2379 38.2457 56.2384 38.2452C56.2389 38.2447 56.2394 38.2443 56.2399 38.2438C56.2404 38.2433 56.2409 38.2428 56.2414 38.2423C56.2419 38.2418 56.2424 38.2413 56.2428 38.2408C56.2433 38.2403 56.2438 38.2399 56.2443 38.2394C56.2448 38.2389 56.2453 38.2384 56.2458 38.2379C56.2463 38.2374 56.2467 38.2369 56.2472 38.2364C56.2477 38.236 56.2482 38.2355 56.2487 38.235C56.2492 38.2345 56.2496 38.234 56.2501 38.2335C56.2506 38.2331 56.2511 38.2326 56.2516 38.2321C56.252 38.2316 56.2525 38.2311 56.253 38.2307C56.2535 38.2302 56.254 38.2297 56.2544 38.2292C56.2549 38.2288 56.2554 38.2283 56.2559 38.2278C56.2563 38.2273 56.2568 38.2268 56.2573 38.2264C56.2578 38.2259 56.2582 38.2254 56.2587 38.2249C56.2592 38.2245 56.2597 38.224 56.2601 38.2235C56.2606 38.2231 56.2611 38.2226 56.2616 38.2221C56.262 38.2216 56.2625 38.2212 56.263 38.2207C56.2634 38.2202 56.2639 38.2198 56.2644 38.2193C56.2648 38.2188 56.2653 38.2184 56.2658 38.2179C56.2662 38.2174 56.2667 38.217 56.2672 38.2165C56.2676 38.216 56.2681 38.2156 56.2686 38.2151C56.269 38.2146 56.2695 38.2142 56.27 38.2137C56.2704 38.2132 56.2709 38.2128 56.2713 38.2123C56.2718 38.2119 56.2723 38.2114 56.2727 38.2109C56.2732 38.2105 56.2737 38.21 56.2741 38.2096C56.2746 38.2091 56.275 38.2086 56.2755 38.2082C56.2759 38.2077 56.2764 38.2073 56.2769 38.2068C56.2773 38.2064 56.2778 38.2059 56.2782 38.2054C56.2787 38.205 56.2791 38.2045 56.2796 38.2041C56.28 38.2036 56.2805 38.2032 56.2809 38.2027C56.2814 38.2023 56.2819 38.2018 56.2823 38.2014C56.2828 38.2009 56.2832 38.2005 56.2837 38.2C56.2841 38.1996 56.2846 38.1991 56.285 38.1987C56.2854 38.1982 56.2859 38.1978 56.2863 38.1973C56.2868 38.1969 56.2872 38.1964 56.2877 38.196C56.2881 38.1955 56.2886 38.1951 56.289 38.1947C56.2895 38.1942 56.2899 38.1938 56.2903 38.1933C56.2908 38.1929 56.2912 38.1924 56.2917 38.192C56.2921 38.1916 56.2926 38.1911 56.293 38.1907C56.2934 38.1902 56.2939 38.1898 56.2943 38.1894C56.2948 38.1889 56.2952 38.1885 56.2956 38.188C56.2961 38.1876 56.2965 38.1872 56.2969 38.1867C56.2974 38.1863 56.2978 38.1859 56.2982 38.1854C56.2987 38.185 56.2991 38.1846 56.2995 38.1841C56.3 38.1837 56.3004 38.1833 56.3008 38.1828C56.3013 38.1824 56.3017 38.182 56.3021 38.1815C56.3026 38.1811 56.303 38.1807 56.3034 38.1802C56.3039 38.1798 56.3043 38.1794 56.3047 38.179C56.3051 38.1785 56.3056 38.1781 56.306 38.1777C56.3064 38.1772 56.3069 38.1768 56.3073 38.1764C56.3077 38.176 56.3081 38.1755 56.3086 38.1751C56.309 38.1747 56.3094 38.1743 56.3098 38.1738C56.3102 38.1734 56.3107 38.173 56.3111 38.1726C56.3115 38.1722 56.3119 38.1717 56.3124 38.1713C56.3128 38.1709 56.3132 38.1705 56.3136 38.1701C56.314 38.1696 56.3144 38.1692 56.3149 38.1688C56.3153 38.1684 56.3157 38.168 56.3161 38.1676C56.3165 38.1671 56.3169 38.1667 56.3174 38.1663C56.3178 38.1659 56.3182 38.1655 56.3186 38.1651C56.319 38.1647 56.3194 38.1642 56.3198 38.1638C56.3203 38.1634 56.3207 38.163 56.3211 38.1626C56.3215 38.1622 56.3219 38.1618 56.3223 38.1614C56.3227 38.161 56.3231 38.1605 56.3235 38.1601C56.3239 38.1597 56.3244 38.1593 56.3248 38.1589C56.3252 38.1585 56.3256 38.1581 56.326 38.1577C56.3264 38.1573 56.3268 38.1569 56.3272 38.1565C56.3276 38.1561 56.328 38.1557 56.3284 38.1553C56.3288 38.1549 56.3292 38.1545 56.3296 38.1541C56.33 38.1537 56.3304 38.1533 56.3308 38.1529C56.3312 38.1525 56.3316 38.1521 56.332 38.1517C56.3324 38.1513 56.3328 38.1509 56.3332 38.1505C56.3336 38.1501 56.334 38.1497 56.3344 38.1493C56.3348 38.1489 56.3352 38.1485 56.3356 38.1481C56.336 38.1477 56.3364 38.1473 56.3368 38.1469C56.3372 38.1465 56.3375 38.1461 56.3379 38.1457C56.3383 38.1453 56.3387 38.145 56.3391 38.1446C56.3395 38.1442 56.3399 38.1438 56.3403 38.1434C56.3407 38.143 56.3411 38.1426 56.3414 38.1422C56.3418 38.1418 56.3422 38.1415 56.3426 38.1411C56.343 38.1407 56.3434 38.1403 56.3438 38.1399C56.3441 38.1395 56.3445 38.1391 56.3449 38.1388C56.3453 38.1384 56.3457 38.138 56.3461 38.1376C56.3465 38.1372 56.3468 38.1368 56.3472 38.1365C56.3476 38.1361 56.348 38.1357 56.3484 38.1353C56.3487 38.1349 56.3491 38.1346 56.3495 38.1342C56.3499 38.1338 56.3502 38.1334 56.3506 38.133C56.351 38.1327 56.3514 38.1323 56.3518 38.1319C56.3521 38.1315 56.3525 38.1312 56.3529 38.1308C56.3533 38.1304 56.3536 38.13 56.354 38.1297C56.3544 38.1293 56.3547 38.1289 56.3551 38.1285C56.3555 38.1282 56.3559 38.1278 56.3562 38.1274C56.3566 38.1271 56.357 38.1267 56.3573 38.1263C56.3577 38.126 56.3581 38.1256 56.3584 38.1252C56.3588 38.1249 56.3592 38.1245 56.3596 38.1241C56.3599 38.1238 56.3603 38.1234 56.3606 38.123C56.361 38.1227 56.3614 38.1223 56.3617 38.1219C56.3621 38.1216 56.3625 38.1212 56.3628 38.1208C56.3632 38.1205 56.3636 38.1201 56.3639 38.1198C56.3643 38.1194 56.3646 38.119 56.365 38.1187C56.3654 38.1183 56.3657 38.118 56.3661 38.1176C56.3664 38.1172 56.3668 38.1169 56.3671 38.1165C56.3675 38.1162 56.3679 38.1158 56.3682 38.1155C56.3686 38.1151 56.3689 38.1147 56.3693 38.1144C56.3696 38.114 56.37 38.1137 56.3703 38.1133C56.3707 38.113 56.371 38.1126 56.3714 38.1123C56.3718 38.1119 56.3721 38.1116 56.3725 38.1112C56.3728 38.1109 56.3732 38.1105 56.3735 38.1102C56.3739 38.1098 56.3742 38.1095 56.3745 38.1091C56.3749 38.1088 56.3752 38.1084 56.3756 38.1081C56.3759 38.1077 56.3763 38.1074 56.3766 38.107C56.377 38.1067 56.3773 38.1064 56.3777 38.106C56.378 38.1057 56.3783 38.1053 56.3787 38.105C56.379 38.1046 56.3794 38.1043 56.3797 38.104C56.3801 38.1036 56.3804 38.1033 56.3807 38.1029C56.3811 38.1026 56.3814 38.1023 56.3818 38.1019C56.3821 38.1016 56.3824 38.1012 56.3828 38.1009C56.3831 38.1006 56.3834 38.1002 56.3838 38.0999C56.3841 38.0996 56.3844 38.0992 56.3848 38.0989C56.3851 38.0986 56.3854 38.0982 56.3858 38.0979C56.3861 38.0976 56.3864 38.0972 56.3868 38.0969C56.3871 38.0966 56.3874 38.0962 56.3878 38.0959C56.3881 38.0956 56.3884 38.0952 56.3888 38.0949C56.3891 38.0946 56.3894 38.0943 56.3897 38.0939C56.3901 38.0936 56.3904 38.0933 56.3907 38.0929C56.391 38.0926 56.3914 38.0923 56.3917 38.092C56.392 38.0916 56.3923 38.0913 56.3927 38.091C56.393 38.0907 56.3933 38.0904 56.3936 38.09C56.394 38.0897 56.3943 38.0894 56.3946 38.0891C56.3949 38.0887 56.3952 38.0884 56.3956 38.0881C56.3959 38.0878 56.3962 38.0875 56.3965 38.0871C56.3968 38.0868 56.3972 38.0865 56.3975 38.0862C56.3978 38.0859 56.3981 38.0856 56.3984 38.0852C56.3987 38.0849 56.3991 38.0846 56.3994 38.0843C56.3997 38.084 56.4 38.0837 56.4003 38.0834C56.4006 38.083 56.4009 38.0827 56.4012 38.0824C56.4016 38.0821 56.4019 38.0818 56.4022 38.0815C56.4025 38.0812 56.4028 38.0809 56.4031 38.0806C56.4034 38.0803 56.4037 38.0799 56.404 38.0796C56.4043 38.0793 56.4046 38.079 56.405 38.0787C56.4053 38.0784 56.4056 38.0781 56.4059 38.0778C56.4062 38.0775 56.4065 38.0772 56.4068 38.0769C56.4071 38.0766 56.4074 38.0763 56.4077 38.076C56.408 38.0757 56.4083 38.0754 56.4086 38.0751C56.4089 38.0748 56.4092 38.0745 56.4095 38.0742C56.4098 38.0739 56.4101 38.0736 56.4104 38.0733C56.4107 38.073 56.411 38.0727 56.4113 38.0724C56.4116 38.0721 56.4119 38.0718 56.4122 38.0715C56.4125 38.0712 56.4128 38.0709 56.4131 38.0706C56.4133 38.0703 56.4136 38.07 56.4139 38.0697C56.4142 38.0694 56.4145 38.0692 56.4148 38.0689C56.4151 38.0686 56.4154 38.0683 56.4157 38.068C56.416 38.0677 56.4163 38.0674 56.4166 38.0671C56.4168 38.0668 56.4171 38.0665 56.4174 38.0663C56.4177 38.066 56.418 38.0657 56.4183 38.0654C56.4186 38.0651 56.4188 38.0648 56.4191 38.0645C56.4194 38.0643 56.4197 38.064 56.42 38.0637C56.4203 38.0634 56.4205 38.0631 56.4208 38.0628C56.4211 38.0626 56.4214 38.0623 56.4217 38.062C56.422 38.0617 56.4222 38.0614 56.4225 38.0612C56.4228 38.0609 56.4231 38.0606 56.4234 38.0603C56.4236 38.06 56.4239 38.0598 56.4242 38.0595C56.4245 38.0592 56.4247 38.0589 56.425 38.0587C56.4253 38.0584 56.4256 38.0581 56.4258 38.0578C56.4261 38.0576 56.4264 38.0573 56.4267 38.057C56.4269 38.0567 56.4272 38.0565 56.4275 38.0562C56.4277 38.0559 56.428 38.0557 56.4283 38.0554C56.4286 38.0551 56.4288 38.0548 56.4291 38.0546C56.4294 38.0543 56.4296 38.054 56.4299 38.0538C56.4302 38.0535 56.4304 38.0532 56.4307 38.053C56.431 38.0527 56.4312 38.0524 56.4315 38.0522C56.4318 38.0519 56.432 38.0517 56.4323 38.0514C56.4325 38.0511 56.4328 38.0509 56.4331 38.0506C56.4333 38.0503 56.4336 38.0501 56.4339 38.0498C56.4341 38.0496 56.4344 38.0493 56.4346 38.049C56.4349 38.0488 56.4351 38.0485 56.4354 38.0483C56.4357 38.048 56.4359 38.0477 56.4362 38.0475C56.4364 38.0472 56.4367 38.047 56.4369 38.0467C56.4372 38.0465 56.4375 38.0462 56.4377 38.046C56.438 38.0457 56.4382 38.0455 56.4385 38.0452C56.4387 38.0449 56.439 38.0447 56.4392 38.0444C56.4395 38.0442 56.4397 38.0439 56.44 38.0437C56.4402 38.0434 56.4405 38.0432 56.4407 38.0429C56.441 38.0427 56.4412 38.0425 56.4415 38.0422C56.4417 38.042 56.442 38.0417 56.4422 38.0415C56.4425 38.0412 56.4427 38.041 56.4429 38.0407C56.4432 38.0405 56.4434 38.0402 56.4437 38.04C56.4439 38.0398 56.4442 38.0395 56.4444 38.0393C56.4446 38.039 56.4449 38.0388 56.4451 38.0385C56.4454 38.0383 56.4456 38.0381 56.4458 38.0378C56.4461 38.0376 56.4463 38.0374 56.4466 38.0371C56.4468 38.0369 56.447 38.0366 56.4473 38.0364C56.4475 38.0362 56.4477 38.0359 56.448 38.0357C56.4482 38.0355 56.4484 38.0352 56.4487 38.035C56.4489 38.0348 56.4491 38.0345 56.4494 38.0343C56.4496 38.0341 56.4498 38.0338 56.4501 38.0336C56.4503 38.0334 56.4505 38.0331 56.4508 38.0329C56.451 38.0327 56.4512 38.0324 56.4515 38.0322C56.4517 38.032 56.4519 38.0318 56.4521 38.0315C56.4524 38.0313 56.4526 38.0311 56.4528 38.0309C56.453 38.0306 56.4533 38.0304 56.4535 38.0302C56.4537 38.03 56.4539 38.0297 56.4542 38.0295C56.4544 38.0293 56.4546 38.0291 56.4548 38.0288C56.455 38.0286 56.4553 38.0284 56.4555 38.0282C56.4557 38.028 56.4559 38.0277 56.4561 38.0275C56.4564 38.0273 56.4566 38.0271 56.4568 38.0269C56.457 38.0267 56.4572 38.0264 56.4575 38.0262C56.4577 38.026 56.4579 38.0258 56.4581 38.0256C56.4583 38.0254 56.4585 38.0251 56.4587 38.0249C56.459 38.0247 56.4592 38.0245 56.4594 38.0243C56.4596 38.0241 56.4598 38.0239 56.46 38.0237C56.4602 38.0234 56.4604 38.0232 56.4606 38.023C56.4609 38.0228 56.4611 38.0226 56.4613 38.0224C56.4615 38.0222 56.4617 38.022 56.4619 38.0218C56.4621 38.0216 56.4623 38.0214 56.4625 38.0212C56.4627 38.0209 56.4629 38.0207 56.4631 38.0205C56.4633 38.0203 56.4635 38.0201 56.4637 38.0199C56.4639 38.0197 56.4641 38.0195 56.4643 38.0193C56.4645 38.0191 56.4647 38.0189 56.4649 38.0187C56.4651 38.0185 56.4653 38.0183 56.4655 38.0181C56.4657 38.0179 56.4659 38.0177 56.4661 38.0175C56.4663 38.0173 56.4665 38.0171 56.4667 38.0169C56.4669 38.0167 56.4671 38.0165 56.4673 38.0164C56.4675 38.0162 56.4677 38.016 56.4679 38.0158C56.4681 38.0156 56.4683 38.0154 56.4685 38.0152C56.4687 38.015 56.4689 38.0148 56.4691 38.0146C56.4692 38.0144 56.4694 38.0142 56.4696 38.014C56.4698 38.0139 56.47 38.0137 56.4702 38.0135C56.4704 38.0133 56.4706 38.0131 56.4708 38.0129C56.4709 38.0127 56.4711 38.0125 56.4713 38.0124C56.4715 38.0122 56.4717 38.012 56.4719 38.0118C56.4721 38.0116 56.4722 38.0114 56.4724 38.0113C56.4726 38.0111 56.4728 38.0109 56.473 38.0107C56.4731 38.0105 56.4733 38.0103 56.4735 38.0102C56.4737 38.01 56.4739 38.0098 56.474 38.0096C56.4742 38.0094 56.4744 38.0093 56.4746 38.0091C56.4748 38.0089 56.4749 38.0087 56.4751 38.0086C56.4753 38.0084 56.4755 38.0082 56.4756 38.008C56.4758 38.0079 56.476 38.0077 56.4762 38.0075C56.4763 38.0073 56.4765 38.0072 56.4767 38.007C56.4768 38.0068 56.477 38.0067 56.4772 38.0065C56.4774 38.0063 56.4775 38.0061 56.4777 38.006C56.4779 38.0058 56.478 38.0056 56.4782 38.0055C56.4784 38.0053 56.4785 38.0051 56.4787 38.005C56.4789 38.0048 56.479 38.0046 56.4792 38.0045C56.4794 38.0043 56.4795 38.0041 56.4797 38.004C56.4799 38.0038 56.48 38.0036 56.4802 38.0035C56.4804 38.0033 56.4805 38.0032 56.4807 38.003C56.4808 38.0028 56.481 38.0027 56.4812 38.0025C56.4813 38.0024 56.4815 38.0022 56.4816 38.002C56.4818 38.0019 56.4819 38.0017 56.4821 38.0016C56.4823 38.0014 56.4824 38.0012 56.4826 38.0011C56.4827 38.0009 56.4829 38.0008 56.483 38.0006C56.4832 38.0005 56.4834 38.0003 56.4835 38.0002C56.4837 38 56.4838 37.9999 56.484 37.9997C56.4841 37.9996 56.4843 37.9994 56.4844 37.9993C56.4846 37.9991 56.4847 37.999 56.4849 37.9988C56.485 37.9987 56.4852 37.9985 56.4853 37.9984C56.4855 37.9982 56.4856 37.9981 56.4858 37.9979C56.4859 37.9978 56.486 37.9976 56.4862 37.9975C56.4863 37.9973 56.4865 37.9972 56.4866 37.997C56.4868 37.9969 56.4869 37.9968 56.4871 37.9966C56.4872 37.9965 56.4873 37.9963 56.4875 37.9962C56.4876 37.996 56.4878 37.9959 56.4879 37.9958C56.488 37.9956 56.4882 37.9955 56.4883 37.9954C56.4885 37.9952 56.4886 37.9951 56.4887 37.9949C56.4889 37.9948 56.489 37.9947 56.4891 37.9945C56.4893 37.9944 56.4894 37.9943 56.4895 37.9941C56.4897 37.994 56.4898 37.9939 56.4899 37.9937C56.4901 37.9936 56.4902 37.9935 56.4903 37.9933C56.4905 37.9932 56.4906 37.9931 56.4907 37.9929C56.4909 37.9928 56.491 37.9927 56.4911 37.9925C56.4913 37.9924 56.4914 37.9923 56.4915 37.9922C56.4916 37.992 56.4918 37.9919 56.4919 37.9918C56.492 37.9916 56.4921 37.9915 56.4923 37.9914C56.4924 37.9913 56.4925 37.9911 56.4926 37.991C56.4928 37.9909 56.4929 37.9908 56.493 37.9907C56.4931 37.9905 56.4933 37.9904 56.4934 37.9903C56.4935 37.9902 56.4936 37.99 56.4937 37.9899C56.4939 37.9898 56.494 37.9897 56.4941 37.9896C56.4942 37.9895 56.4943 37.9893 56.4945 37.9892C56.4946 37.9891 56.4947 37.989 56.4948 37.9889C56.4949 37.9888 56.495 37.9886 56.4951 37.9885C56.4953 37.9884 56.4954 37.9883 56.4955 37.9882C56.4956 37.9881 56.4957 37.988 56.4958 37.9878C56.4959 37.9877 56.496 37.9876 56.4962 37.9875C56.4963 37.9874 56.4964 37.9873 56.4965 37.9872C56.4966 37.9871 56.4967 37.987 56.4968 37.9869C56.4969 37.9868 56.497 37.9866 56.4971 37.9865C56.4972 37.9864 56.4973 37.9863 56.4974 37.9862C56.4976 37.9861 56.4977 37.986 56.4978 37.9859C56.4979 37.9858 56.498 37.9857 56.4981 37.9856C56.4982 37.9855 56.4983 37.9854 56.4984 37.9853C56.4985 37.9852 56.4986 37.9851 56.4987 37.985C56.4988 37.9849 56.4989 37.9848 56.499 37.9847C56.4991 37.9846 56.4992 37.9845 56.4993 37.9844C56.4994 37.9843 56.4995 37.9842 56.4996 37.9841C56.4996 37.984 56.4997 37.9839 56.4998 37.9838C56.4999 37.9837 56.5 37.9836 56.5001 37.9836C56.5002 37.9835 56.5003 37.9834 56.5004 37.9833L53.672 35.1548C53.6719 35.1549 53.6718 35.155 53.6717 35.1551C53.6716 35.1552 53.6715 35.1553 53.6714 35.1554C53.6713 35.1555 53.6712 35.1556 53.6711 35.1557C53.671 35.1558 53.6709 35.1559 53.6708 35.156C53.6707 35.1561 53.6706 35.1562 53.6705 35.1563C53.6704 35.1564 53.6703 35.1565 53.6702 35.1566C53.6701 35.1567 53.67 35.1568 53.6699 35.1569C53.6698 35.157 53.6697 35.1571 53.6696 35.1572C53.6695 35.1573 53.6694 35.1574 53.6693 35.1575C53.6692 35.1576 53.6691 35.1577 53.669 35.1578C53.6689 35.1579 53.6688 35.158 53.6687 35.1581C53.6686 35.1582 53.6685 35.1583 53.6684 35.1584C53.6683 35.1585 53.6682 35.1586 53.6681 35.1588C53.6679 35.1589 53.6678 35.159 53.6677 35.1591C53.6676 35.1592 53.6675 35.1593 53.6674 35.1594C53.6673 35.1595 53.6672 35.1596 53.6671 35.1598C53.6669 35.1599 53.6668 35.16 53.6667 35.1601C53.6666 35.1602 53.6665 35.1603 53.6664 35.1604C53.6663 35.1606 53.6661 35.1607 53.666 35.1608C53.6659 35.1609 53.6658 35.161 53.6657 35.1611C53.6656 35.1613 53.6654 35.1614 53.6653 35.1615C53.6652 35.1616 53.6651 35.1617 53.665 35.1619C53.6648 35.162 53.6647 35.1621 53.6646 35.1622C53.6645 35.1624 53.6643 35.1625 53.6642 35.1626C53.6641 35.1627 53.664 35.1628 53.6638 35.163C53.6637 35.1631 53.6636 35.1632 53.6635 35.1633C53.6633 35.1635 53.6632 35.1636 53.6631 35.1637C53.663 35.1639 53.6628 35.164 53.6627 35.1641C53.6626 35.1642 53.6624 35.1644 53.6623 35.1645C53.6622 35.1646 53.662 35.1648 53.6619 35.1649C53.6618 35.165 53.6617 35.1652 53.6615 35.1653C53.6614 35.1654 53.6613 35.1656 53.6611 35.1657C53.661 35.1658 53.6608 35.166 53.6607 35.1661C53.6606 35.1662 53.6604 35.1664 53.6603 35.1665C53.6602 35.1666 53.66 35.1668 53.6599 35.1669C53.6598 35.1671 53.6596 35.1672 53.6595 35.1673C53.6593 35.1675 53.6592 35.1676 53.6591 35.1678C53.6589 35.1679 53.6588 35.168 53.6586 35.1682C53.6585 35.1683 53.6583 35.1685 53.6582 35.1686C53.6581 35.1688 53.6579 35.1689 53.6578 35.1691C53.6576 35.1692 53.6575 35.1693 53.6573 35.1695C53.6572 35.1696 53.657 35.1698 53.6569 35.1699C53.6567 35.1701 53.6566 35.1702 53.6564 35.1704C53.6563 35.1705 53.6561 35.1707 53.656 35.1708C53.6558 35.171 53.6557 35.1711 53.6555 35.1713C53.6554 35.1714 53.6552 35.1716 53.6551 35.1717C53.6549 35.1719 53.6548 35.172 53.6546 35.1722C53.6545 35.1724 53.6543 35.1725 53.6541 35.1727C53.654 35.1728 53.6538 35.173 53.6537 35.1731C53.6535 35.1733 53.6534 35.1735 53.6532 35.1736C53.653 35.1738 53.6529 35.1739 53.6527 35.1741C53.6526 35.1742 53.6524 35.1744 53.6522 35.1746C53.6521 35.1747 53.6519 35.1749 53.6518 35.1751C53.6516 35.1752 53.6514 35.1754 53.6513 35.1755C53.6511 35.1757 53.6509 35.1759 53.6508 35.176C53.6506 35.1762 53.6504 35.1764 53.6503 35.1765C53.6501 35.1767 53.6499 35.1769 53.6498 35.177C53.6496 35.1772 53.6494 35.1774 53.6493 35.1775C53.6491 35.1777 53.6489 35.1779 53.6488 35.1781C53.6486 35.1782 53.6484 35.1784 53.6482 35.1786C53.6481 35.1787 53.6479 35.1789 53.6477 35.1791C53.6476 35.1793 53.6474 35.1794 53.6472 35.1796C53.647 35.1798 53.6469 35.18 53.6467 35.1801C53.6465 35.1803 53.6463 35.1805 53.6462 35.1807C53.646 35.1808 53.6458 35.181 53.6456 35.1812C53.6454 35.1814 53.6453 35.1816 53.6451 35.1817C53.6449 35.1819 53.6447 35.1821 53.6445 35.1823C53.6444 35.1825 53.6442 35.1826 53.644 35.1828C53.6438 35.183 53.6436 35.1832 53.6434 35.1834C53.6433 35.1836 53.6431 35.1837 53.6429 35.1839C53.6427 35.1841 53.6425 35.1843 53.6423 35.1845C53.6421 35.1847 53.642 35.1849 53.6418 35.1851C53.6416 35.1852 53.6414 35.1854 53.6412 35.1856C53.641 35.1858 53.6408 35.186 53.6406 35.1862C53.6404 35.1864 53.6402 35.1866 53.6401 35.1868C53.6399 35.187 53.6397 35.1871 53.6395 35.1873C53.6393 35.1875 53.6391 35.1877 53.6389 35.1879C53.6387 35.1881 53.6385 35.1883 53.6383 35.1885C53.6381 35.1887 53.6379 35.1889 53.6377 35.1891C53.6375 35.1893 53.6373 35.1895 53.6371 35.1897C53.6369 35.1899 53.6367 35.1901 53.6365 35.1903C53.6363 35.1905 53.6361 35.1907 53.6359 35.1909C53.6357 35.1911 53.6355 35.1913 53.6353 35.1915C53.6351 35.1917 53.6349 35.1919 53.6347 35.1921C53.6345 35.1923 53.6343 35.1925 53.6341 35.1927C53.6339 35.1929 53.6337 35.1931 53.6335 35.1933C53.6333 35.1936 53.6331 35.1938 53.6328 35.194C53.6326 35.1942 53.6324 35.1944 53.6322 35.1946C53.632 35.1948 53.6318 35.195 53.6316 35.1952C53.6314 35.1954 53.6312 35.1956 53.631 35.1959C53.6307 35.1961 53.6305 35.1963 53.6303 35.1965C53.6301 35.1967 53.6299 35.1969 53.6297 35.1971C53.6295 35.1974 53.6292 35.1976 53.629 35.1978C53.6288 35.198 53.6286 35.1982 53.6284 35.1984C53.6282 35.1987 53.6279 35.1989 53.6277 35.1991C53.6275 35.1993 53.6273 35.1995 53.6271 35.1998C53.6268 35.2 53.6266 35.2002 53.6264 35.2004C53.6262 35.2006 53.626 35.2009 53.6257 35.2011C53.6255 35.2013 53.6253 35.2015 53.6251 35.2018C53.6248 35.202 53.6246 35.2022 53.6244 35.2024C53.6242 35.2027 53.6239 35.2029 53.6237 35.2031C53.6235 35.2033 53.6233 35.2036 53.623 35.2038C53.6228 35.204 53.6226 35.2042 53.6223 35.2045C53.6221 35.2047 53.6219 35.2049 53.6216 35.2052C53.6214 35.2054 53.6212 35.2056 53.621 35.2059C53.6207 35.2061 53.6205 35.2063 53.6203 35.2066C53.62 35.2068 53.6198 35.207 53.6195 35.2073C53.6193 35.2075 53.6191 35.2077 53.6188 35.208C53.6186 35.2082 53.6184 35.2084 53.6181 35.2087C53.6179 35.2089 53.6177 35.2092 53.6174 35.2094C53.6172 35.2096 53.6169 35.2099 53.6167 35.2101C53.6165 35.2104 53.6162 35.2106 53.616 35.2108C53.6157 35.2111 53.6155 35.2113 53.6152 35.2116C53.615 35.2118 53.6148 35.2121 53.6145 35.2123C53.6143 35.2125 53.614 35.2128 53.6138 35.213C53.6135 35.2133 53.6133 35.2135 53.613 35.2138C53.6128 35.214 53.6125 35.2143 53.6123 35.2145C53.612 35.2148 53.6118 35.215 53.6115 35.2153C53.6113 35.2155 53.611 35.2158 53.6108 35.216C53.6105 35.2163 53.6103 35.2165 53.61 35.2168C53.6098 35.217 53.6095 35.2173 53.6093 35.2175C53.609 35.2178 53.6088 35.218 53.6085 35.2183C53.6083 35.2186 53.608 35.2188 53.6078 35.2191C53.6075 35.2193 53.6072 35.2196 53.607 35.2198C53.6067 35.2201 53.6065 35.2204 53.6062 35.2206C53.6059 35.2209 53.6057 35.2211 53.6054 35.2214C53.6052 35.2217 53.6049 35.2219 53.6046 35.2222C53.6044 35.2224 53.6041 35.2227 53.6039 35.223C53.6036 35.2232 53.6033 35.2235 53.6031 35.2238C53.6028 35.224 53.6025 35.2243 53.6023 35.2246C53.602 35.2248 53.6017 35.2251 53.6015 35.2253C53.6012 35.2256 53.6009 35.2259 53.6007 35.2262C53.6004 35.2264 53.6001 35.2267 53.5999 35.227C53.5996 35.2272 53.5993 35.2275 53.599 35.2278C53.5988 35.228 53.5985 35.2283 53.5982 35.2286C53.598 35.2289 53.5977 35.2291 53.5974 35.2294C53.5971 35.2297 53.5969 35.23 53.5966 35.2302C53.5963 35.2305 53.596 35.2308 53.5958 35.2311C53.5955 35.2313 53.5952 35.2316 53.5949 35.2319C53.5946 35.2322 53.5944 35.2324 53.5941 35.2327C53.5938 35.233 53.5935 35.2333 53.5932 35.2336C53.593 35.2338 53.5927 35.2341 53.5924 35.2344C53.5921 35.2347 53.5918 35.235 53.5916 35.2353C53.5913 35.2355 53.591 35.2358 53.5907 35.2361C53.5904 35.2364 53.5901 35.2367 53.5898 35.237C53.5896 35.2373 53.5893 35.2375 53.589 35.2378C53.5887 35.2381 53.5884 35.2384 53.5881 35.2387C53.5878 35.239 53.5875 35.2393 53.5873 35.2396C53.587 35.2399 53.5867 35.2401 53.5864 35.2404C53.5861 35.2407 53.5858 35.241 53.5855 35.2413C53.5852 35.2416 53.5849 35.2419 53.5846 35.2422C53.5843 35.2425 53.584 35.2428 53.5837 35.2431C53.5834 35.2434 53.5832 35.2437 53.5829 35.244C53.5826 35.2443 53.5823 35.2446 53.582 35.2449C53.5817 35.2452 53.5814 35.2455 53.5811 35.2457C53.5808 35.246 53.5805 35.2463 53.5802 35.2467C53.5799 35.247 53.5796 35.2473 53.5793 35.2476C53.579 35.2479 53.5787 35.2482 53.5784 35.2485C53.578 35.2488 53.5777 35.2491 53.5774 35.2494C53.5771 35.2497 53.5768 35.25 53.5765 35.2503C53.5762 35.2506 53.5759 35.2509 53.5756 35.2512C53.5753 35.2515 53.575 35.2518 53.5747 35.2521C53.5744 35.2524 53.5741 35.2528 53.5738 35.2531C53.5734 35.2534 53.5731 35.2537 53.5728 35.254C53.5725 35.2543 53.5722 35.2546 53.5719 35.2549C53.5716 35.2552 53.5713 35.2556 53.5709 35.2559C53.5706 35.2562 53.5703 35.2565 53.57 35.2568C53.5697 35.2571 53.5694 35.2575 53.569 35.2578C53.5687 35.2581 53.5684 35.2584 53.5681 35.2587C53.5678 35.259 53.5675 35.2594 53.5671 35.2597C53.5668 35.26 53.5665 35.2603 53.5662 35.2606C53.5659 35.261 53.5655 35.2613 53.5652 35.2616C53.5649 35.2619 53.5646 35.2622 53.5642 35.2626C53.5639 35.2629 53.5636 35.2632 53.5633 35.2635C53.5629 35.2639 53.5626 35.2642 53.5623 35.2645C53.562 35.2648 53.5616 35.2652 53.5613 35.2655C53.561 35.2658 53.5607 35.2662 53.5603 35.2665C53.56 35.2668 53.5597 35.2671 53.5593 35.2675C53.559 35.2678 53.5587 35.2681 53.5583 35.2685C53.558 35.2688 53.5577 35.2691 53.5574 35.2695C53.557 35.2698 53.5567 35.2701 53.5564 35.2705C53.556 35.2708 53.5557 35.2711 53.5553 35.2715C53.555 35.2718 53.5547 35.2721 53.5543 35.2725C53.554 35.2728 53.5537 35.2732 53.5533 35.2735C53.553 35.2738 53.5526 35.2742 53.5523 35.2745C53.552 35.2748 53.5516 35.2752 53.5513 35.2755C53.5509 35.2759 53.5506 35.2762 53.5503 35.2766C53.5499 35.2769 53.5496 35.2772 53.5492 35.2776C53.5489 35.2779 53.5485 35.2783 53.5482 35.2786C53.5479 35.279 53.5475 35.2793 53.5472 35.2797C53.5468 35.28 53.5465 35.2803 53.5461 35.2807C53.5458 35.281 53.5454 35.2814 53.5451 35.2817C53.5447 35.2821 53.5444 35.2824 53.544 35.2828C53.5437 35.2831 53.5433 35.2835 53.543 35.2838C53.5426 35.2842 53.5423 35.2845 53.5419 35.2849C53.5416 35.2853 53.5412 35.2856 53.5409 35.286C53.5405 35.2863 53.5401 35.2867 53.5398 35.287C53.5394 35.2874 53.5391 35.2877 53.5387 35.2881C53.5384 35.2885 53.538 35.2888 53.5376 35.2892C53.5373 35.2895 53.5369 35.2899 53.5366 35.2902C53.5362 35.2906 53.5358 35.291 53.5355 35.2913C53.5351 35.2917 53.5348 35.292 53.5344 35.2924C53.534 35.2928 53.5337 35.2931 53.5333 35.2935C53.533 35.2939 53.5326 35.2942 53.5322 35.2946C53.5319 35.295 53.5315 35.2953 53.5311 35.2957C53.5308 35.2961 53.5304 35.2964 53.53 35.2968C53.5297 35.2972 53.5293 35.2975 53.5289 35.2979C53.5285 35.2983 53.5282 35.2986 53.5278 35.299C53.5274 35.2994 53.5271 35.2998 53.5267 35.3001C53.5263 35.3005 53.5259 35.3009 53.5256 35.3012C53.5252 35.3016 53.5248 35.302 53.5245 35.3024C53.5241 35.3027 53.5237 35.3031 53.5233 35.3035C53.523 35.3039 53.5226 35.3042 53.5222 35.3046C53.5218 35.305 53.5214 35.3054 53.5211 35.3058C53.5207 35.3061 53.5203 35.3065 53.5199 35.3069C53.5195 35.3073 53.5192 35.3076 53.5188 35.308C53.5184 35.3084 53.518 35.3088 53.5176 35.3092C53.5173 35.3096 53.5169 35.3099 53.5165 35.3103C53.5161 35.3107 53.5157 35.3111 53.5153 35.3115C53.515 35.3119 53.5146 35.3123 53.5142 35.3126C53.5138 35.313 53.5134 35.3134 53.513 35.3138C53.5126 35.3142 53.5122 35.3146 53.5119 35.315C53.5115 35.3154 53.5111 35.3157 53.5107 35.3161C53.5103 35.3165 53.5099 35.3169 53.5095 35.3173C53.5091 35.3177 53.5087 35.3181 53.5083 35.3185C53.5079 35.3189 53.5075 35.3193 53.5071 35.3197C53.5068 35.3201 53.5064 35.3205 53.506 35.3209C53.5056 35.3212 53.5052 35.3216 53.5048 35.322C53.5044 35.3224 53.504 35.3228 53.5036 35.3232C53.5032 35.3236 53.5028 35.324 53.5024 35.3244C53.502 35.3248 53.5016 35.3252 53.5012 35.3256C53.5008 35.326 53.5004 35.3264 53.5 35.3268C53.4996 35.3272 53.4992 35.3276 53.4988 35.3281C53.4984 35.3285 53.498 35.3289 53.4975 35.3293C53.4971 35.3297 53.4967 35.3301 53.4963 35.3305C53.4959 35.3309 53.4955 35.3313 53.4951 35.3317C53.4947 35.3321 53.4943 35.3325 53.4939 35.3329C53.4935 35.3333 53.4931 35.3338 53.4927 35.3342C53.4922 35.3346 53.4918 35.335 53.4914 35.3354C53.491 35.3358 53.4906 35.3362 53.4902 35.3366C53.4898 35.3371 53.4894 35.3375 53.4889 35.3379C53.4885 35.3383 53.4881 35.3387 53.4877 35.3391C53.4873 35.3395 53.4869 35.34 53.4864 35.3404C53.486 35.3408 53.4856 35.3412 53.4852 35.3416C53.4848 35.342 53.4843 35.3425 53.4839 35.3429C53.4835 35.3433 53.4831 35.3437 53.4827 35.3442C53.4822 35.3446 53.4818 35.345 53.4814 35.3454C53.481 35.3458 53.4806 35.3463 53.4801 35.3467C53.4797 35.3471 53.4793 35.3475 53.4789 35.348C53.4784 35.3484 53.478 35.3488 53.4776 35.3492C53.4771 35.3497 53.4767 35.3501 53.4763 35.3505C53.4759 35.351 53.4754 35.3514 53.475 35.3518C53.4746 35.3522 53.4741 35.3527 53.4737 35.3531C53.4733 35.3535 53.4729 35.354 53.4724 35.3544C53.472 35.3548 53.4716 35.3553 53.4711 35.3557C53.4707 35.3561 53.4703 35.3566 53.4698 35.357C53.4694 35.3574 53.4689 35.3579 53.4685 35.3583C53.4681 35.3587 53.4676 35.3592 53.4672 35.3596C53.4668 35.3601 53.4663 35.3605 53.4659 35.3609C53.4654 35.3614 53.465 35.3618 53.4646 35.3622C53.4641 35.3627 53.4637 35.3631 53.4632 35.3636C53.4628 35.364 53.4624 35.3645 53.4619 35.3649C53.4615 35.3653 53.461 35.3658 53.4606 35.3662C53.4601 35.3667 53.4597 35.3671 53.4593 35.3676C53.4588 35.368 53.4584 35.3685 53.4579 35.3689C53.4575 35.3693 53.457 35.3698 53.4566 35.3702C53.4561 35.3707 53.4557 35.3711 53.4552 35.3716C53.4548 35.372 53.4543 35.3725 53.4539 35.3729C53.4534 35.3734 53.453 35.3738 53.4525 35.3743C53.4521 35.3747 53.4516 35.3752 53.4512 35.3757C53.4507 35.3761 53.4503 35.3766 53.4498 35.377C53.4493 35.3775 53.4489 35.3779 53.4484 35.3784C53.448 35.3788 53.4475 35.3793 53.4471 35.3798C53.4466 35.3802 53.4461 35.3807 53.4457 35.3811C53.4452 35.3816 53.4448 35.382 53.4443 35.3825C53.4438 35.383 53.4434 35.3834 53.4429 35.3839C53.4425 35.3844 53.442 35.3848 53.4415 35.3853C53.4411 35.3857 53.4406 35.3862 53.4401 35.3867C53.4397 35.3871 53.4392 35.3876 53.4387 35.3881C53.4383 35.3885 53.4378 35.389 53.4373 35.3895C53.4369 35.3899 53.4364 35.3904 53.4359 35.3909C53.4355 35.3913 53.435 35.3918 53.4345 35.3923C53.4341 35.3927 53.4336 35.3932 53.4331 35.3937C53.4327 35.3942 53.4322 35.3946 53.4317 35.3951C53.4312 35.3956 53.4308 35.396 53.4303 35.3965C53.4298 35.397 53.4293 35.3975 53.4289 35.3979C53.4284 35.3984 53.4279 35.3989 53.4274 35.3994C53.427 35.3998 53.4265 35.4003 53.426 35.4008C53.4255 35.4013 53.4251 35.4018 53.4246 35.4022C53.4241 35.4027 53.4236 35.4032 53.4231 35.4037C53.4227 35.4042 53.4222 35.4046 53.4217 35.4051C53.4212 35.4056 53.4207 35.4061 53.4202 35.4066C53.4198 35.4071 53.4193 35.4075 53.4188 35.408C53.4183 35.4085 53.4178 35.409 53.4173 35.4095C53.4169 35.41 53.4164 35.4104 53.4159 35.4109C53.4154 35.4114 53.4149 35.4119 53.4144 35.4124C53.4139 35.4129 53.4134 35.4134 53.4129 35.4139C53.4125 35.4144 53.412 35.4148 53.4115 35.4153C53.411 35.4158 53.4105 35.4163 53.41 35.4168C53.4095 35.4173 53.409 35.4178 53.4085 35.4183C53.408 35.4188 53.4075 35.4193 53.407 35.4198C53.4065 35.4203 53.406 35.4208 53.4056 35.4213C53.4051 35.4218 53.4046 35.4223 53.4041 35.4228C53.4036 35.4233 53.4031 35.4238 53.4026 35.4243C53.4021 35.4248 53.4016 35.4253 53.4011 35.4258C53.4006 35.4263 53.4001 35.4268 53.3996 35.4273C53.3991 35.4278 53.3986 35.4283 53.3981 35.4288C53.3975 35.4293 53.397 35.4298 53.3965 35.4303C53.396 35.4308 53.3955 35.4313 53.395 35.4318C53.3945 35.4323 53.394 35.4328 53.3935 35.4333C53.393 35.4338 53.3925 35.4343 53.392 35.4348C53.3915 35.4353 53.391 35.4359 53.3905 35.4364C53.3899 35.4369 53.3894 35.4374 53.3889 35.4379C53.3884 35.4384 53.3879 35.4389 53.3874 35.4394C53.3869 35.4399 53.3864 35.4405 53.3858 35.441C53.3853 35.4415 53.3848 35.442 53.3843 35.4425C53.3838 35.443 53.3833 35.4435 53.3828 35.4441C53.3822 35.4446 53.3817 35.4451 53.3812 35.4456C53.3807 35.4461 53.3802 35.4467 53.3796 35.4472C53.3791 35.4477 53.3786 35.4482 53.3781 35.4487C53.3776 35.4493 53.377 35.4498 53.3765 35.4503C53.376 35.4508 53.3755 35.4513 53.375 35.4519C53.3744 35.4524 53.3739 35.4529 53.3734 35.4534C53.3729 35.454 53.3723 35.4545 53.3718 35.455C53.3713 35.4555 53.3708 35.4561 53.3702 35.4566C53.3697 35.4571 53.3692 35.4576 53.3686 35.4582C53.3681 35.4587 53.3676 35.4592 53.3671 35.4598C53.3665 35.4603 53.366 35.4608 53.3655 35.4614C53.3649 35.4619 53.3644 35.4624 53.3639 35.463C53.3633 35.4635 53.3628 35.464 53.3623 35.4646C53.3617 35.4651 53.3612 35.4656 53.3607 35.4662C53.3601 35.4667 53.3596 35.4672 53.359 35.4678C53.3585 35.4683 53.358 35.4688 53.3574 35.4694C53.3569 35.4699 53.3564 35.4705 53.3558 35.471C53.3553 35.4715 53.3547 35.4721 53.3542 35.4726C53.3537 35.4732 53.3531 35.4737 53.3526 35.4742C53.352 35.4748 53.3515 35.4753 53.3509 35.4759C53.3504 35.4764 53.3499 35.477 53.3493 35.4775C53.3488 35.478 53.3482 35.4786 53.3477 35.4791C53.3471 35.4797 53.3466 35.4802 53.346 35.4808C53.3455 35.4813 53.3449 35.4819 53.3444 35.4824C53.3438 35.483 53.3433 35.4835 53.3427 35.4841C53.3422 35.4846 53.3416 35.4852 53.3411 35.4857C53.3405 35.4863 53.34 35.4868 53.3394 35.4874C53.3389 35.4879 53.3383 35.4885 53.3378 35.489C53.3372 35.4896 53.3367 35.4902 53.3361 35.4907C53.3356 35.4913 53.335 35.4918 53.3344 35.4924C53.3339 35.4929 53.3333 35.4935 53.3328 35.494C53.3322 35.4946 53.3317 35.4952 53.3311 35.4957C53.3305 35.4963 53.33 35.4968 53.3294 35.4974C53.3288 35.498 53.3283 35.4985 53.3277 35.4991C53.3272 35.4997 53.3266 35.5002 53.326 35.5008C53.3255 35.5013 53.3249 35.5019 53.3243 35.5025C53.3238 35.503 53.3232 35.5036 53.3226 35.5042C53.3221 35.5047 53.3215 35.5053 53.3209 35.5059C53.3204 35.5064 53.3198 35.507 53.3192 35.5076C53.3187 35.5081 53.3181 35.5087 53.3175 35.5093C53.317 35.5099 53.3164 35.5104 53.3158 35.511C53.3152 35.5116 53.3147 35.5121 53.3141 35.5127C53.3135 35.5133 53.313 35.5139 53.3124 35.5144C53.3118 35.515 53.3112 35.5156 53.3107 35.5162C53.3101 35.5167 53.3095 35.5173 53.3089 35.5179C53.3083 35.5185 53.3078 35.519 53.3072 35.5196C53.3066 35.5202 53.306 35.5208 53.3055 35.5214C53.3049 35.5219 53.3043 35.5225 53.3037 35.5231C53.3031 35.5237 53.3026 35.5243 53.302 35.5248C53.3014 35.5254 53.3008 35.526 53.3002 35.5266C53.2996 35.5272 53.2991 35.5278 53.2985 35.5283C53.2979 35.5289 53.2973 35.5295 53.2967 35.5301C53.2961 35.5307 53.2955 35.5313 53.2949 35.5319C53.2944 35.5325 53.2938 35.533 53.2932 35.5336C53.2926 35.5342 53.292 35.5348 53.2914 35.5354C53.2908 35.536 53.2902 35.5366 53.2896 35.5372C53.289 35.5378 53.2885 35.5384 53.2879 35.539C53.2873 35.5395 53.2867 35.5401 53.2861 35.5407C53.2855 35.5413 53.2849 35.5419 53.2843 35.5425C53.2837 35.5431 53.2831 35.5437 53.2825 35.5443C53.2819 35.5449 53.2813 35.5455 53.2807 35.5461C53.2801 35.5467 53.2795 35.5473 53.2789 35.5479C53.2783 35.5485 53.2777 35.5491 53.2771 35.5497C53.2765 35.5503 53.2759 35.5509 53.2753 35.5515C53.2747 35.5521 53.2741 35.5527 53.2735 35.5533C53.2729 35.5539 53.2723 35.5545 53.2717 35.5551C53.2711 35.5557 53.2705 35.5563 53.2699 35.5569C53.2693 35.5576 53.2687 35.5582 53.268 35.5588C53.2674 35.5594 53.2668 35.56 53.2662 35.5606C53.2656 35.5612 53.265 35.5618 53.2644 35.5624C53.2638 35.563 53.2632 35.5636 53.2626 35.5643C53.2619 35.5649 53.2613 35.5655 53.2607 35.5661C53.2601 35.5667 53.2595 35.5673 53.2589 35.5679C53.2583 35.5686 53.2576 35.5692 53.257 35.5698C53.2564 35.5704 53.2558 35.571 53.2552 35.5716C53.2546 35.5723 53.2539 35.5729 53.2533 35.5735C53.2527 35.5741 53.2521 35.5747 53.2515 35.5753C53.2509 35.576 53.2502 35.5766 53.2496 35.5772C53.249 35.5778 53.2484 35.5784 53.2477 35.5791C53.2471 35.5797 53.2465 35.5803 53.2459 35.5809C53.2452 35.5816 53.2446 35.5822 53.244 35.5828C53.2434 35.5834 53.2427 35.5841 53.2421 35.5847C53.2415 35.5853 53.2409 35.5859 53.2402 35.5866C53.2396 35.5872 53.239 35.5878 53.2384 35.5885C53.2377 35.5891 53.2371 35.5897 53.2365 35.5904C53.2358 35.591 53.2352 35.5916 53.2346 35.5922C53.2339 35.5929 53.2333 35.5935 53.2327 35.5941C53.232 35.5948 53.2314 35.5954 53.2308 35.596C53.2301 35.5967 53.2295 35.5973 53.2289 35.598C53.2282 35.5986 53.2276 35.5992 53.227 35.5999C53.2263 35.6005 53.2257 35.6011 53.225 35.6018C53.2244 35.6024 53.2238 35.6031 53.2231 35.6037C53.2225 35.6043 53.2218 35.605 53.2212 35.6056C53.2206 35.6063 53.2199 35.6069 53.2193 35.6075C53.2186 35.6082 53.218 35.6088 53.2173 35.6095C53.2167 35.6101 53.2161 35.6108 53.2154 35.6114C53.2148 35.6121 53.2141 35.6127 53.2135 35.6133C53.2128 35.614 53.2122 35.6146 53.2115 35.6153C53.2109 35.6159 53.2102 35.6166 53.2096 35.6172C53.2089 35.6179 53.2083 35.6185 53.2076 35.6192C53.207 35.6198 53.2063 35.6205 53.2057 35.6211C53.205 35.6218 53.2044 35.6224 53.2037 35.6231C53.2031 35.6238 53.2024 35.6244 53.2018 35.6251C53.2011 35.6257 53.2004 35.6264 53.1998 35.627C53.1991 35.6277 53.1985 35.6283 53.1978 35.629C53.1972 35.6297 53.1965 35.6303 53.1958 35.631C53.1952 35.6316 53.1945 35.6323 53.1939 35.633C53.1932 35.6336 53.1925 35.6343 53.1919 35.6349C53.1912 35.6356 53.1906 35.6363 53.1899 35.6369C53.1892 35.6376 53.1886 35.6382 53.1879 35.6389C53.1872 35.6396 53.1866 35.6402 53.1859 35.6409C53.1852 35.6416 53.1846 35.6422 53.1839 35.6429C53.1832 35.6436 53.1826 35.6442 53.1819 35.6449C53.1812 35.6456 53.1806 35.6462 53.1799 35.6469C53.1792 35.6476 53.1786 35.6483 53.1779 35.6489C53.1772 35.6496 53.1765 35.6503 53.1759 35.6509C53.1752 35.6516 53.1745 35.6523 53.1739 35.653C53.1732 35.6536 53.1725 35.6543 53.1718 35.655C53.1712 35.6557 53.1705 35.6563 53.1698 35.657C53.1691 35.6577 53.1685 35.6584 53.1678 35.659C53.1671 35.6597 53.1664 35.6604 53.1657 35.6611C53.1651 35.6618 53.1644 35.6624 53.1637 35.6631C53.163 35.6638 53.1623 35.6645 53.1617 35.6652C53.161 35.6658 53.1603 35.6665 53.1596 35.6672C53.1589 35.6679 53.1582 35.6686 53.1576 35.6693C53.1569 35.6699 53.1562 35.6706 53.1555 35.6713C53.1548 35.672 53.1541 35.6727 53.1534 35.6734C53.1528 35.6741 53.1521 35.6747 53.1514 35.6754C53.1507 35.6761 53.15 35.6768 53.1493 35.6775C53.1486 35.6782 53.1479 35.6789 53.1472 35.6796C53.1466 35.6803 53.1459 35.6809 53.1452 35.6816C53.1445 35.6823 53.1438 35.683 53.1431 35.6837C53.1424 35.6844 53.1417 35.6851 53.141 35.6858C53.1403 35.6865 53.1396 35.6872 53.1389 35.6879C53.1382 35.6886 53.1375 35.6893 53.1368 35.69C53.1361 35.6907 53.1354 35.6914 53.1347 35.6921C53.134 35.6928 53.1333 35.6935 53.1326 35.6942C53.1319 35.6949 53.1312 35.6956 53.1305 35.6963C53.1298 35.697 53.1291 35.6977 53.1284 35.6984C53.1277 35.6991 53.127 35.6998 53.1263 35.7005C53.1256 35.7012 53.1249 35.7019 53.1242 35.7026C53.1235 35.7033 53.1228 35.704 53.1221 35.7047C53.1214 35.7054 53.1207 35.7061 53.12 35.7069C53.1193 35.7076 53.1185 35.7083 53.1178 35.709C53.1171 35.7097 53.1164 35.7104 53.1157 35.7111C53.115 35.7118 53.1143 35.7125 53.1136 35.7133C53.1129 35.714 53.1121 35.7147 53.1114 35.7154C53.1107 35.7161 53.11 35.7168 53.1093 35.7175C53.1086 35.7182 53.1079 35.719 53.1071 35.7197C53.1064 35.7204 53.1057 35.7211 53.105 35.7218C53.1043 35.7226 53.1035 35.7233 53.1028 35.724C53.1021 35.7247 53.1014 35.7254 53.1007 35.7261C53.0999 35.7269 53.0992 35.7276 53.0985 35.7283C53.0978 35.729 53.0971 35.7298 53.0963 35.7305C53.0956 35.7312 53.0949 35.7319 53.0942 35.7327C53.0934 35.7334 53.0927 35.7341 53.092 35.7348C53.0913 35.7356 53.0905 35.7363 53.0898 35.737C53.0891 35.7377 53.0884 35.7385 53.0876 35.7392C53.0869 35.7399 53.0862 35.7406 53.0854 35.7414C53.0847 35.7421 53.084 35.7428 53.0832 35.7436C53.0825 35.7443 53.0818 35.745 53.0811 35.7458C53.0803 35.7465 53.0796 35.7472 53.0789 35.748C53.0781 35.7487 53.0774 35.7494 53.0766 35.7502C53.0759 35.7509 53.0752 35.7516 53.0744 35.7524C53.0737 35.7531 53.073 35.7539 53.0722 35.7546C53.0715 35.7553 53.0708 35.7561 53.07 35.7568C53.0693 35.7575 53.0685 35.7583 53.0678 35.759C53.0671 35.7598 53.0663 35.7605 53.0656 35.7612C53.0648 35.762 53.0641 35.7627 53.0633 35.7635C53.0626 35.7642 53.0619 35.765 53.0611 35.7657C53.0604 35.7665 53.0596 35.7672 53.0589 35.7679C53.0581 35.7687 53.0574 35.7694 53.0566 35.7702C53.0559 35.7709 53.0551 35.7717 53.0544 35.7724C53.0536 35.7732 53.0529 35.7739 53.0521 35.7747C53.0514 35.7754 53.0506 35.7762 53.0499 35.7769C53.0491 35.7777 53.0484 35.7784 53.0476 35.7792C53.0469 35.7799 53.0461 35.7807 53.0454 35.7814C53.0446 35.7822 53.0439 35.783 53.0431 35.7837C53.0424 35.7845 53.0416 35.7852 53.0408 35.786C53.0401 35.7867 53.0393 35.7875 53.0386 35.7883C53.0378 35.789 53.037 35.7898 53.0363 35.7905C53.0355 35.7913 53.0348 35.792 53.034 35.7928C53.0332 35.7936 53.0325 35.7943 53.0317 35.7951C53.031 35.7959 53.0302 35.7966 53.0294 35.7974C53.0287 35.7981 53.0279 35.7989 53.0271 35.7997C53.0264 35.8004 53.0256 35.8012 53.0248 35.802C53.0241 35.8027 53.0233 35.8035 53.0225 35.8043C53.0218 35.805 53.021 35.8058 53.0202 35.8066C53.0195 35.8073 53.0187 35.8081 53.0179 35.8089C53.0172 35.8097 53.0164 35.8104 53.0156 35.8112C53.0149 35.812 53.0141 35.8127 53.0133 35.8135C53.0125 35.8143 53.0118 35.8151 53.011 35.8158C53.0102 35.8166 53.0094 35.8174 53.0087 35.8182C53.0079 35.8189 53.0071 35.8197 53.0063 35.8205C53.0056 35.8213 53.0048 35.822 53.004 35.8228L55.8324 38.6512ZM56.5004 37.9833C56.3723 38.1114 56.1362 38.2752 55.8017 38.3309L55.1441 34.3853C54.5283 34.488 54.0345 34.7924 53.672 35.1548L56.5004 37.9833ZM56.0223 38.2812C56.0444 38.2749 56.0097 38.2878 55.9299 38.2878V34.2878C55.5689 34.2878 55.2296 34.3476 54.9235 34.4351L56.0223 38.2812ZM55.9299 38.2878C55.9066 38.2878 55.8414 38.2836 55.7539 38.2512C55.6639 38.2179 55.5882 38.1687 55.5338 38.1193L58.2245 35.1595C57.569 34.5636 56.7611 34.2878 55.9299 34.2878V38.2878ZM55.5338 38.1193C55.4601 38.0522 55.3816 37.9515 55.3273 37.823C55.2744 37.6979 55.2659 37.598 55.2659 37.5534H59.2659C59.2659 36.6632 58.9337 35.8042 58.2245 35.1595L55.5338 38.1193ZM55.2659 37.5534C55.2659 37.5186 55.2734 37.4378 55.3165 37.3383C55.36 37.2379 55.4169 37.1712 55.4523 37.1385L58.1654 40.0777C58.8883 39.4104 59.2659 38.5225 59.2659 37.5534H55.2659ZM55.9144 36.8193C55.6334 36.9598 55.4311 37.1501 55.423 37.1573C55.3548 37.2179 55.29 37.281 55.2364 37.3345C55.1264 37.4446 54.9941 37.5845 54.847 37.7438L57.7863 40.4569C57.8518 40.3859 57.9081 40.3257 57.9556 40.2757C58.0037 40.2251 58.0396 40.1882 58.0648 40.163C58.0773 40.1505 58.0852 40.1429 58.0891 40.1391C58.0936 40.1348 58.0902 40.1382 58.0804 40.1469C58.0753 40.1514 58.0668 40.1589 58.0553 40.1685C58.0442 40.1779 58.0272 40.1919 58.0052 40.2088C57.9841 40.225 57.9509 40.2497 57.9081 40.2783C57.8861 40.2929 57.8586 40.3106 57.8263 40.3298C57.7943 40.3488 57.7529 40.3722 57.7033 40.397L55.9144 36.8193ZM54.9024 37.6861C54.4786 38.1099 54.0848 38.6412 53.7153 39.2219L57.0899 41.3694C57.3767 40.9188 57.5922 40.6532 57.7309 40.5145L54.9024 37.6861ZM53.7385 39.1862C53.3157 39.8204 52.9507 40.5479 52.6316 41.3458L56.3455 42.8314C56.5888 42.223 56.8332 41.7552 57.0667 41.405L53.7385 39.1862ZM52.6108 41.4001C52.2625 42.3498 52.1018 43.3597 52.1018 44.4089H56.1018C56.1018 43.7706 56.1989 43.2336 56.3663 42.7771L52.6108 41.4001ZM52.1018 44.4089C52.1018 46.039 52.4615 47.5599 53.297 48.8632L56.6645 46.7046C56.3281 46.1798 56.1018 45.4506 56.1018 44.4089H52.1018ZM53.3166 48.8933C54.0916 50.0558 55.0916 51.0077 56.295 51.7415L58.3774 48.3263C57.6589 47.8882 57.0886 47.3401 56.6448 46.6745L53.3166 48.8933ZM56.3258 51.7599C57.4807 52.436 58.7454 52.9184 60.1057 53.2177L60.9651 49.3111C59.9816 49.0947 59.1135 48.7568 58.3465 48.3079L56.3258 51.7599ZM60.1432 53.2255C61.4416 53.4852 62.7449 53.6159 64.051 53.6159V49.6159C63.0134 49.6159 61.9729 49.5123 60.9276 49.3032L60.1432 53.2255ZM64.051 53.6159C66.4495 53.6159 68.7256 53.2283 70.8628 52.4367L69.4736 48.6858C67.814 49.3004 66.0119 49.6159 64.051 49.6159V53.6159ZM70.8554 52.4395C72.9656 51.6675 74.8426 50.6241 76.4634 49.2955L73.9277 46.202C72.6892 47.2172 71.2146 48.0488 69.481 48.683L70.8554 52.4395ZM76.4634 49.2955C78.081 47.9697 79.3792 46.4226 80.3315 44.654L76.8096 42.7576C76.1213 44.0358 75.1695 45.1841 73.9277 46.202L76.4634 49.2955ZM80.3315 44.654C81.3023 42.8511 81.801 40.933 81.801 38.9245H77.801C77.801 40.2442 77.4795 41.5135 76.8096 42.7576L80.3315 44.654ZM81.801 38.9245C81.801 36.6937 81.1637 34.6342 79.9022 32.7993L76.6061 35.0654C77.4071 36.2305 77.801 37.4991 77.801 38.9245H81.801ZM79.9104 32.8112C78.698 31.0202 77.0784 29.5375 75.0995 28.3502L73.0416 31.7801C74.5783 32.7022 75.7478 33.7976 76.5979 35.0535L79.9104 32.8112ZM75.1162 28.3603C73.1547 27.1572 70.8948 26.2542 68.3636 25.6277L67.4025 29.5105C69.6057 30.0558 71.4708 30.8168 73.0249 31.77L75.1162 28.3603ZM68.3681 25.6288C65.85 24.9992 63.178 24.6902 60.3596 24.6902V28.6902C62.885 28.6902 65.2286 28.967 67.398 29.5093L68.3681 25.6288ZM60.3596 24.6902C58.1813 24.6902 55.9148 24.9561 53.5647 25.4756L54.428 29.3813C56.531 28.9164 58.5067 28.6902 60.3596 28.6902V24.6902ZM53.5801 25.4722C51.2338 25.9714 48.921 26.731 46.6432 27.7462L48.2714 31.3998C50.306 30.493 52.3526 29.8229 54.4126 29.3846L53.5801 25.4722ZM46.6432 27.7462C44.3558 28.7655 42.1726 30.0315 40.0946 31.5406L42.445 34.7772C44.3044 33.4269 46.2463 32.3023 48.2714 31.3998L46.6432 27.7462ZM40.0854 31.5473C37.9878 33.0889 36.1418 34.8972 34.551 36.9678L37.7229 39.4047C39.0853 37.6315 40.6612 36.0882 42.4542 34.7705L40.0854 31.5473ZM34.5583 36.9584C32.9519 39.0236 31.6721 41.3347 30.7143 43.8804L34.4581 45.289C35.2815 43.1003 36.3689 41.1457 37.7157 39.4141L34.5583 36.9584ZM30.7082 43.8967C29.7515 46.5083 29.2854 49.334 29.2854 52.3542H33.2854C33.2854 49.7495 33.6865 47.3955 34.4641 45.2726L30.7082 43.8967ZM29.2854 52.3542C29.2854 55.0915 29.6621 57.6227 30.4471 59.9253L34.2331 58.6347C33.6118 56.8123 33.2854 54.7263 33.2854 52.3542H29.2854ZM30.4537 59.9445C31.2478 62.1987 32.3453 64.233 33.7534 66.0321L36.9034 63.5669C35.7802 62.1317 34.8855 60.4863 34.2265 58.6155L30.4537 59.9445ZM33.7621 66.0433C35.1505 67.7916 36.7708 69.3084 38.6173 70.5907L40.8988 67.3052C39.3703 66.2438 38.0375 64.995 36.8946 63.5558L33.7621 66.0433ZM38.6279 70.598C40.4623 71.8545 42.4218 72.8968 44.5035 73.7244L45.9814 70.0074C44.1725 69.2882 42.4757 68.3852 40.8882 67.2979L38.6279 70.598ZM44.5304 73.7349C46.6209 74.5313 48.7943 75.1269 51.0484 75.5232L51.7411 71.5837C49.7296 71.23 47.8015 70.7006 45.9544 69.997L44.5304 73.7349ZM51.0695 75.5268C53.3072 75.8957 55.537 76.0808 57.7581 76.0808V72.0808C55.7603 72.0808 53.748 71.9143 51.7201 71.5801L51.0695 75.5268ZM57.7581 76.0808C60.7565 76.0808 63.6559 75.6681 66.4491 74.8377L65.3092 71.0036C62.8993 71.72 60.3846 72.0808 57.7581 72.0808V76.0808ZM66.4649 74.8329C69.1995 73.9953 71.7408 72.9063 74.0824 71.5611L72.0899 68.0927C70.0254 69.2787 67.762 70.2522 65.2934 71.0083L66.4649 74.8329ZM74.0883 71.5577C76.432 70.2008 78.5244 68.6719 80.3556 66.9661L77.6292 64.0392C76.0386 65.5209 74.1935 66.8748 72.0841 68.096L74.0883 71.5577ZM80.3556 66.9661C82.1674 65.2785 83.6488 63.5398 84.7679 61.744L81.3732 59.6285C80.4767 61.067 79.2394 62.5394 77.6292 64.0392L80.3556 66.9661ZM84.8189 61.6575C84.7831 61.7219 84.7263 61.8015 84.6424 61.8794C84.5578 61.958 84.4648 62.0169 84.375 62.0568L82.7505 58.4016C82.124 58.68 81.64 59.143 81.3222 59.715L84.8189 61.6575ZM84.534 61.9775C84.5008 61.996 84.4544 62.0164 84.3969 62.0315C84.3391 62.0467 84.2822 62.0534 84.2307 62.0534V58.0534C83.6461 58.0534 83.0904 58.2037 82.5915 58.4809L84.534 61.9775ZM84.2307 62.0534C84.1921 62.0534 84.0878 62.0458 83.9546 61.9865C83.8166 61.9252 83.711 61.8367 83.6435 61.7557L86.7164 59.1949C86.0655 58.4139 85.1632 58.0534 84.2307 58.0534V62.0534ZM83.7001 61.8207C83.6733 61.7912 83.6255 61.7284 83.5867 61.6312C83.547 61.532 83.5315 61.4343 83.5315 61.3542H87.5315C87.5315 60.4959 87.2062 59.731 86.6598 59.13L83.7001 61.8207ZM83.5315 61.3542C83.5315 61.3371 83.5333 61.3229 83.5352 61.3135L87.4575 62.098C87.5063 61.8542 87.5315 61.6057 87.5315 61.3542H83.5315ZM83.5352 61.3135C83.5626 61.1762 83.6098 61.0799 83.6407 61.0284L87.0707 63.0863C87.2423 62.8004 87.3832 62.4697 87.4575 62.098L83.5352 61.3135Z" fill="black"/>
</g>
<defs>
<filter id="filter0_d_101_60" x="24.6135" y="24.0534" width="64.918" height="60.6641" filterUnits="userSpaceOnUse" color-interpolation-filters="sRGB">
<feFlood flood-opacity="0" result="BackgroundImageFix"/>
<feColorMatrix in="SourceAlpha" type="matrix" values="0 0 0 0 0 0 0 0 0 0 0 0 0 0 0 0 0 0 127 0" result="hardAlpha"/>
<feOffset dy="4"/>
<feGaussianBlur stdDeviation="2"/>
<feComposite in2="hardAlpha" operator="out"/>
<feColorMatrix type="matrix" values="0 0 0 0 0 0 0 0 0 0 0 0 0 0 0 0 0 0 0.25 0"/>
<feBlend mode="normal" in2="BackgroundImageFix" result="effect1_dropShadow_101_60"/>
<feBlend mode="normal" in="SourceGraphic" in2="effect1_dropShadow_101_60" result="shape"/>
</filter>
</defs>
</svg>
