<svg width="90" height="114" viewBox="0 0 90 114" fill="none" xmlns="http://www.w3.org/2000/svg">
<path fill-rule="evenodd" clip-rule="evenodd" d="M52.112 23.3498C53.7053 29.9488 52.3941 36.5695 49.0001 41.8675L42.7342 86.4184L16.8313 49.634C11.3939 46.4683 7.2064 41.1751 5.61317 34.5761C2.5131 21.7358 10.4091 8.81356 23.2494 5.71349C36.0897 2.61342 49.012 10.5094 52.112 23.3498ZM30.7336 36.7127C35.0137 35.6794 37.6457 31.372 36.6124 27.0919C35.579 22.8118 31.2716 20.1798 26.9915 21.2131C22.7114 22.2465 20.0794 26.5539 21.1128 30.834C22.1461 35.1141 26.4535 37.7461 30.7336 36.7127Z" fill="#EE6C4D"/>
<g filter="url(#filter0_d_114_412)">
<path d="M85.3557 62.1577C84.2542 63.939 82.7659 65.7085 80.8909 67.4663C79.0159 69.2007 76.8713 70.771 74.4573 72.1772C72.0667 73.5601 69.4534 74.6733 66.6174 75.5171C63.7815 76.3843 60.8518 76.8179 57.8284 76.8179C55.4612 76.8179 53.094 76.6069 50.7268 76.1851C48.3831 75.7632 46.1213 75.1187 43.9417 74.2515C41.7854 73.3843 39.7698 72.2944 37.8948 70.9819C36.0432 69.646 34.426 68.0757 33.0432 66.271C31.6604 64.4663 30.5706 62.4155 29.7737 60.1187C29.0002 57.8218 28.6135 55.2671 28.6135 52.4546C28.6135 49.7124 29.012 47.1108 29.8088 44.6499C30.6292 42.189 31.7659 39.9155 33.219 37.8296C34.6721 35.7202 36.3948 33.8218 38.387 32.1343C40.3792 30.4468 42.5588 29.0171 44.926 27.8452C47.2932 26.6499 49.7893 25.7358 52.4143 25.103C55.0393 24.4702 57.7229 24.1538 60.4651 24.1538C63.4885 24.1538 66.3245 24.5171 68.9729 25.2437C71.6448 25.9468 73.9768 26.9546 75.969 28.2671C77.9612 29.5562 79.5315 31.1147 80.6799 32.9429C81.8518 34.7476 82.4377 36.7632 82.4377 38.9897C82.4377 41.0522 81.9573 43.021 80.9963 44.896C80.0354 46.7476 78.7112 48.3765 77.0237 49.7827C75.3596 51.189 73.4026 52.3022 71.1526 53.1226C68.926 53.9429 66.5471 54.353 64.0159 54.353C61.9768 54.353 60.1721 54.1069 58.6018 53.6147C57.0315 53.0991 55.719 52.396 54.6643 51.5054C53.6096 50.6147 52.8127 49.5718 52.2737 48.3765C51.7346 47.1812 51.4651 45.8921 51.4651 44.5093C51.4651 43.3608 51.6409 42.3179 51.9924 41.3804C52.3674 40.4194 52.7659 39.5991 53.1877 38.9194C53.6331 38.2397 54.0432 37.7124 54.4182 37.3374C54.8167 36.939 55.0393 36.7163 55.0862 36.6694C55.2034 36.5522 55.3323 36.4819 55.4729 36.4585C55.637 36.4116 55.7893 36.3882 55.9299 36.3882C56.3049 36.3882 56.6213 36.5054 56.8792 36.7397C57.137 36.9741 57.2659 37.2788 57.2659 37.6538C57.2659 38.0757 57.1135 38.4272 56.8088 38.7085C56.762 38.7319 56.5979 38.896 56.3167 39.2007C56.0354 39.4819 55.7307 39.8804 55.4026 40.396C55.0745 40.8882 54.7698 41.4858 54.4885 42.189C54.2307 42.8921 54.1018 43.6655 54.1018 44.5093C54.1018 45.8452 54.3948 46.9702 54.9807 47.8843C55.5901 48.7983 56.3752 49.5483 57.3362 50.1343C58.2971 50.6968 59.3635 51.1069 60.5354 51.3647C61.7073 51.5991 62.8792 51.7163 64.051 51.7163C66.2307 51.7163 68.2698 51.3647 70.1682 50.6616C72.0901 49.9585 73.7659 49.021 75.1956 47.8491C76.6252 46.6772 77.7502 45.3296 78.5706 43.8062C79.3909 42.2827 79.801 40.689 79.801 39.0249C79.801 37.1968 79.2854 35.5327 78.2542 34.0327C77.2229 32.5093 75.8284 31.2202 74.0706 30.1655C72.3127 29.0874 70.2502 28.2554 67.8831 27.6694C65.5393 27.0835 63.0315 26.7905 60.3596 26.7905C58.344 26.7905 56.2229 27.0366 53.9963 27.5288C51.7932 27.9976 49.6135 28.7124 47.4573 29.6733C45.301 30.6343 43.2385 31.8296 41.2698 33.2593C39.3245 34.689 37.6135 36.3647 36.137 38.2866C34.6604 40.1851 33.4768 42.3179 32.5862 44.6851C31.719 47.0522 31.2854 49.6421 31.2854 52.4546C31.2854 55.0093 31.637 57.3179 32.3401 59.3804C33.0667 61.4429 34.0627 63.2827 35.3284 64.8999C36.594 66.4937 38.0706 67.8765 39.7581 69.0483C41.469 70.2202 43.2971 71.1929 45.2424 71.9663C47.2112 72.7163 49.262 73.2788 51.3948 73.6538C53.5276 74.0054 55.6487 74.1812 57.7581 74.1812C60.5706 74.1812 63.2776 73.7944 65.8792 73.021C68.4807 72.2241 70.8831 71.1929 73.0862 69.9272C75.3127 68.6382 77.2815 67.1968 78.9924 65.603C80.7034 64.0093 82.0627 62.4038 83.0706 60.7866C83.1877 60.5757 83.3518 60.4233 83.5627 60.3296C83.7737 60.2124 83.9963 60.1538 84.2307 60.1538C84.6292 60.1538 84.9456 60.2944 85.1799 60.5757C85.4143 60.8335 85.5315 61.1265 85.5315 61.4546C85.5315 61.5718 85.5198 61.689 85.4963 61.8062C85.4729 61.9233 85.426 62.0405 85.3557 62.1577Z" fill="#E0FBFC"/>
<path d="M85.3557 62.1577L87.0567 63.2097L87.0638 63.1982L87.0707 63.1867L85.3557 62.1577ZM80.8909 67.4663L82.249 68.9345L82.2588 68.9254L80.8909 67.4663ZM74.4573 72.1772L75.4587 73.9085L75.464 73.9054L74.4573 72.1772ZM66.6174 75.5171L66.0471 73.6001L66.0398 73.6023L66.0326 73.6045L66.6174 75.5171ZM50.7268 76.1851L50.3725 78.1534L50.3759 78.154L50.7268 76.1851ZM43.9417 74.2515L43.1954 76.107L43.2023 76.1098L43.9417 74.2515ZM37.8948 70.9819L36.7245 72.6038L36.7361 72.6122L36.7479 72.6204L37.8948 70.9819ZM29.7737 60.1187L27.8783 60.7569L27.8812 60.7656L27.8842 60.7742L29.7737 60.1187ZM29.8088 44.6499L27.9115 44.0174L27.9088 44.0256L27.9061 44.0338L29.8088 44.6499ZM33.219 37.8296L34.8601 38.9728L34.866 38.9642L33.219 37.8296ZM44.926 27.8452L45.8133 29.6376L45.8204 29.6341L45.8275 29.6305L44.926 27.8452ZM68.9729 25.2437L68.4438 27.1724L68.4538 27.1751L68.4639 27.1778L68.9729 25.2437ZM75.969 28.2671L74.8687 29.9372L74.8756 29.9417L74.8825 29.9462L75.969 28.2671ZM80.6799 32.9429L78.9864 34.0068L78.9944 34.0195L79.0025 34.0321L80.6799 32.9429ZM80.9963 44.896L82.7715 45.8173L82.7762 45.8082L80.9963 44.896ZM77.0237 49.7827L75.7433 48.2462L75.7328 48.2551L77.0237 49.7827ZM71.1526 53.1226L70.4675 51.2435L70.4612 51.2459L71.1526 53.1226ZM58.6018 53.6147L57.9779 55.5149L57.9907 55.5192L58.0036 55.5232L58.6018 53.6147ZM51.9924 41.3804L50.1293 40.6533L50.1244 40.6657L50.1198 40.6781L51.9924 41.3804ZM53.1877 38.9194L51.5148 37.8234L51.5014 37.8439L51.4885 37.8647L53.1877 38.9194ZM55.4729 36.4585L55.8017 38.4313L55.9134 38.4127L56.0223 38.3815L55.4729 36.4585ZM56.8088 38.7085L57.7033 40.4974L57.957 40.3705L58.1654 40.1781L56.8088 38.7085ZM56.3167 39.2007L57.7309 40.6149L57.7591 40.5866L57.7863 40.5572L56.3167 39.2007ZM55.4026 40.396L57.0667 41.5054L57.0785 41.4877L57.0899 41.4697L55.4026 40.396ZM54.4885 42.189L52.6316 41.4462L52.6208 41.4732L52.6108 41.5005L54.4885 42.189ZM54.9807 47.8843L53.297 48.9636L53.3066 48.9787L53.3166 48.9937L54.9807 47.8843ZM57.3362 50.1343L56.295 51.8419L56.3103 51.8512L56.3258 51.8603L57.3362 50.1343ZM60.5354 51.3647L60.1057 53.318L60.1244 53.3222L60.1432 53.3259L60.5354 51.3647ZM70.1682 50.6616L69.481 48.7834L69.4736 48.7861L70.1682 50.6616ZM78.2542 34.0327L76.5979 35.1538L76.602 35.1598L76.6061 35.1658L78.2542 34.0327ZM74.0706 30.1655L73.0249 31.8704L73.0332 31.8755L73.0416 31.8805L74.0706 30.1655ZM67.8831 27.6694L67.398 29.6097L67.4025 29.6108L67.8831 27.6694ZM53.9963 27.5288L54.4126 29.485L54.4203 29.4834L54.428 29.4817L53.9963 27.5288ZM41.2698 33.2593L40.0946 31.6409L40.0854 31.6477L41.2698 33.2593ZM36.137 38.2866L37.7157 39.5145L37.7229 39.5051L36.137 38.2866ZM32.5862 44.6851L30.7143 43.9808L30.7112 43.9889L30.7082 43.9971L32.5862 44.6851ZM32.3401 59.3804L30.4471 60.0257L30.4503 60.0353L30.4537 60.0449L32.3401 59.3804ZM35.3284 64.8999L33.7534 66.1325L33.7577 66.1381L33.7621 66.1437L35.3284 64.8999ZM39.7581 69.0483L38.6172 70.6911L38.6279 70.6984L39.7581 69.0483ZM45.2424 71.9663L44.5035 73.8248L44.5169 73.8301L44.5304 73.8353L45.2424 71.9663ZM51.3948 73.6538L51.0484 75.6236L51.059 75.6254L51.0695 75.6272L51.3948 73.6538ZM65.8792 73.021L66.4491 74.9381L66.457 74.9357L66.4649 74.9333L65.8792 73.021ZM73.0862 69.9272L74.0824 71.6615L74.0883 71.6581L73.0862 69.9272ZM83.0706 60.7866L84.7679 61.8444L84.7945 61.8018L84.8189 61.7579L83.0706 60.7866ZM83.5627 60.3296L84.375 62.1572L84.4563 62.1211L84.534 62.0779L83.5627 60.3296ZM85.1799 60.5757L83.6435 61.8561L83.6711 61.8892L83.7001 61.921L85.1799 60.5757ZM83.6547 61.1058C82.6639 62.7079 81.2974 64.3437 79.523 66.0072L82.2588 68.9254C84.2343 67.0733 85.8444 65.1701 87.0567 63.2097L83.6547 61.1058ZM79.5328 65.9981C77.7745 67.6245 75.75 69.1096 73.4506 70.4491L75.464 73.9054C77.9926 72.4324 80.2572 70.7769 82.249 68.9345L79.5328 65.9981ZM73.4559 70.446C71.2104 71.7448 68.7432 72.798 66.0471 73.6001L67.1878 77.434C70.1635 76.5487 72.9229 75.3753 75.4587 73.9085L73.4559 70.446ZM66.0326 73.6045C63.3899 74.4126 60.6575 74.8179 57.8284 74.8179V78.8179C61.0461 78.8179 64.1731 78.3559 67.2023 77.4297L66.0326 73.6045ZM57.8284 74.8179C55.5807 74.8179 53.3309 74.6176 51.0777 74.2161L50.3759 78.154C52.8571 78.5962 55.3417 78.8179 57.8284 78.8179V74.8179ZM51.0811 74.2167C48.8671 73.8182 46.7345 73.2101 44.681 72.3931L43.2023 76.1098C45.5082 77.0272 47.8991 77.7082 50.3725 78.1534L51.0811 74.2167ZM44.6879 72.3959C42.6709 71.5847 40.7899 70.5672 39.0417 69.3435L36.7479 72.6204C38.7496 74.0216 40.9 75.1839 43.1954 76.107L44.6879 72.3959ZM39.065 69.36C37.3709 68.1377 35.8945 66.7038 34.6308 65.0546L31.4557 67.4874C32.9576 69.4476 34.7155 71.1543 36.7245 72.6038L39.065 69.36ZM34.6308 65.0546C33.3866 63.4309 32.3949 61.5721 31.6632 59.4631L27.8842 60.7742C28.7462 63.2589 29.9342 65.5017 31.4557 67.4874L34.6308 65.0546ZM31.6691 59.4804C30.975 57.4192 30.6135 55.0842 30.6135 52.4546H26.6135C26.6135 55.45 27.0255 58.2244 27.8783 60.7569L31.6691 59.4804ZM30.6135 52.4546C30.6135 49.909 30.9829 47.5163 31.7116 45.266L27.9061 44.0338C27.041 46.7054 26.6135 49.5158 26.6135 52.4546H30.6135ZM31.7062 45.2824C32.4672 42.9993 33.5186 40.8984 34.8601 38.9728L31.5779 36.6864C30.0131 38.9326 28.7911 41.3786 27.9115 44.0174L31.7062 45.2824ZM34.866 38.9642C36.2169 37.0032 37.8197 35.2358 39.6797 33.6604L37.0943 30.6082C34.9698 32.4077 33.1273 34.4372 31.572 36.695L34.866 38.9642ZM39.6797 33.6604C41.5466 32.079 43.5899 30.7383 45.8133 29.6376L44.0387 26.0528C41.5278 27.2958 39.2117 28.8146 37.0943 30.6082L39.6797 33.6604ZM45.8275 29.6305C48.0546 28.506 50.4052 27.6447 52.883 27.0473L51.9456 23.1587C49.1734 23.827 46.5319 24.7938 44.0245 26.0599L45.8275 29.6305ZM52.883 27.0473C55.3521 26.4521 57.8783 26.1538 60.4651 26.1538V22.1538C57.5675 22.1538 54.7265 22.4883 51.9456 23.1587L52.883 27.0473ZM60.4651 26.1538C63.3276 26.1538 65.9841 26.4976 68.4438 27.1724L69.502 23.3149C66.6648 22.5366 63.6495 22.1538 60.4651 22.1538V26.1538ZM68.4639 27.1778C70.9582 27.8342 73.0841 28.7615 74.8687 29.9372L77.0693 26.597C74.8695 25.1477 72.3313 24.0594 69.4819 23.3095L68.4639 27.1778ZM74.8825 29.9462C76.6544 31.0928 78.0078 32.4491 78.9864 34.0068L82.3735 31.879C81.0551 29.7804 79.2679 28.0195 77.0555 26.5879L74.8825 29.9462ZM79.0025 34.0321C79.9563 35.5008 80.4377 37.1356 80.4377 38.9897H84.4377C84.4377 36.3908 83.7473 33.9943 82.3573 31.8537L79.0025 34.0321ZM80.4377 38.9897C80.4377 40.728 80.036 42.3848 79.2165 43.9838L82.7762 45.8082C83.8786 43.6572 84.4377 41.3765 84.4377 38.9897H80.4377ZM79.2212 43.9747C78.3891 45.578 77.2376 47.001 75.7433 48.2463L78.3041 51.3192C80.1847 49.7519 81.6817 47.9171 82.7715 45.8173L79.2212 43.9747ZM75.7328 48.2551C74.2654 49.4952 72.5184 50.4958 70.4675 51.2435L71.8376 55.0016C74.2868 54.1087 76.4538 52.8828 78.3146 51.3103L75.7328 48.2551ZM70.4612 51.2459C68.4704 51.9793 66.327 52.353 64.0159 52.353V56.353C66.7672 56.353 69.3816 55.9064 71.844 54.9992L70.4612 51.2459ZM64.0159 52.353C62.1333 52.353 60.5369 52.1253 59.2 51.7063L58.0036 55.5232C59.8074 56.0885 61.8204 56.353 64.0159 56.353V52.353ZM59.2257 51.7146C57.8523 51.2636 56.7786 50.673 55.9547 49.9773L53.3739 53.0334C54.6594 54.1189 56.2107 54.9347 57.9779 55.5149L59.2257 51.7146ZM55.9547 49.9773C55.1157 49.2688 54.5067 48.4631 54.0969 47.5542L50.4505 49.1987C51.1187 50.6804 52.1035 51.9606 53.3739 53.0334L55.9547 49.9773ZM54.0969 47.5542C53.6807 46.6314 53.4651 45.6244 53.4651 44.5093H49.4651C49.4651 46.1598 49.7886 47.7309 50.4505 49.1987L54.0969 47.5542ZM53.4651 44.5093C53.4651 43.5659 53.6091 42.7651 53.8651 42.0826L50.1198 40.6781C49.6726 41.8706 49.4651 43.1558 49.4651 44.5093H53.4651ZM53.8556 42.1075C54.1981 41.2297 54.5451 40.5251 54.887 39.9742L51.4885 37.8647C50.9867 38.6731 50.5367 39.6092 50.1293 40.6533L53.8556 42.1075ZM54.8607 40.0155C55.266 39.3968 55.5911 38.993 55.8324 38.7516L53.004 35.9232C52.4954 36.4318 52.0001 37.0827 51.5148 37.8234L54.8607 40.0155ZM55.8324 38.7516C55.8332 38.7508 55.834 38.7501 55.8348 38.7493C55.8355 38.7485 55.8363 38.7477 55.8371 38.747C55.8379 38.7462 55.8386 38.7454 55.8394 38.7446C55.8402 38.7439 55.841 38.7431 55.8417 38.7423C55.8425 38.7415 55.8433 38.7408 55.844 38.74C55.8448 38.7392 55.8456 38.7385 55.8464 38.7377C55.8471 38.7369 55.8479 38.7361 55.8487 38.7354C55.8494 38.7346 55.8502 38.7338 55.851 38.7331C55.8517 38.7323 55.8525 38.7315 55.8533 38.7308C55.854 38.73 55.8548 38.7292 55.8556 38.7285C55.8563 38.7277 55.8571 38.7269 55.8579 38.7262C55.8586 38.7254 55.8594 38.7247 55.8602 38.7239C55.8609 38.7231 55.8617 38.7224 55.8624 38.7216C55.8632 38.7208 55.864 38.7201 55.8647 38.7193C55.8655 38.7186 55.8662 38.7178 55.867 38.717C55.8678 38.7163 55.8685 38.7155 55.8693 38.7148C55.87 38.714 55.8708 38.7133 55.8715 38.7125C55.8723 38.7118 55.873 38.711 55.8738 38.7102C55.8746 38.7095 55.8753 38.7087 55.8761 38.708C55.8768 38.7072 55.8776 38.7065 55.8783 38.7057C55.8791 38.705 55.8798 38.7042 55.8806 38.7035C55.8813 38.7027 55.8821 38.702 55.8828 38.7012C55.8836 38.7005 55.8843 38.6997 55.8851 38.699C55.8858 38.6982 55.8866 38.6975 55.8873 38.6967C55.888 38.696 55.8888 38.6953 55.8895 38.6945C55.8903 38.6938 55.891 38.693 55.8918 38.6923C55.8925 38.6915 55.8933 38.6908 55.894 38.69C55.8947 38.6893 55.8955 38.6886 55.8962 38.6878C55.897 38.6871 55.8977 38.6863 55.8984 38.6856C55.8992 38.6849 55.8999 38.6841 55.9007 38.6834C55.9014 38.6827 55.9021 38.6819 55.9029 38.6812C55.9036 38.6804 55.9043 38.6797 55.9051 38.679C55.9058 38.6782 55.9065 38.6775 55.9073 38.6768C55.908 38.676 55.9087 38.6753 55.9095 38.6746C55.9102 38.6738 55.9109 38.6731 55.9117 38.6724C55.9124 38.6716 55.9131 38.6709 55.9139 38.6702C55.9146 38.6694 55.9153 38.6687 55.9161 38.668C55.9168 38.6673 55.9175 38.6665 55.9182 38.6658C55.919 38.6651 55.9197 38.6644 55.9204 38.6636C55.9211 38.6629 55.9219 38.6622 55.9226 38.6615C55.9233 38.6607 55.924 38.66 55.9248 38.6593C55.9255 38.6586 55.9262 38.6578 55.9269 38.6571C55.9277 38.6564 55.9284 38.6557 55.9291 38.6549C55.9298 38.6542 55.9305 38.6535 55.9313 38.6528C55.932 38.6521 55.9327 38.6514 55.9334 38.6506C55.9341 38.6499 55.9348 38.6492 55.9356 38.6485C55.9363 38.6478 55.937 38.647 55.9377 38.6463C55.9384 38.6456 55.9391 38.6449 55.9399 38.6442C55.9406 38.6435 55.9413 38.6428 55.942 38.6421C55.9427 38.6413 55.9434 38.6406 55.9441 38.6399C55.9448 38.6392 55.9455 38.6385 55.9463 38.6378C55.947 38.6371 55.9477 38.6364 55.9484 38.6357C55.9491 38.6349 55.9498 38.6342 55.9505 38.6335C55.9512 38.6328 55.9519 38.6321 55.9526 38.6314C55.9533 38.6307 55.954 38.63 55.9547 38.6293C55.9554 38.6286 55.9562 38.6279 55.9569 38.6272C55.9576 38.6265 55.9583 38.6258 55.959 38.6251C55.9597 38.6244 55.9604 38.6237 55.9611 38.623C55.9618 38.6223 55.9625 38.6216 55.9632 38.6209C55.9639 38.6202 55.9646 38.6195 55.9653 38.6188C55.966 38.6181 55.9667 38.6174 55.9674 38.6167C55.968 38.616 55.9687 38.6153 55.9694 38.6146C55.9701 38.6139 55.9708 38.6132 55.9715 38.6125C55.9722 38.6118 55.9729 38.6111 55.9736 38.6104C55.9743 38.6097 55.975 38.6091 55.9757 38.6084C55.9764 38.6077 55.9771 38.607 55.9777 38.6063C55.9784 38.6056 55.9791 38.6049 55.9798 38.6042C55.9805 38.6035 55.9812 38.6029 55.9819 38.6022C55.9826 38.6015 55.9833 38.6008 55.9839 38.6001C55.9846 38.5994 55.9853 38.5987 55.986 38.5981C55.9867 38.5974 55.9874 38.5967 55.988 38.596C55.9887 38.5953 55.9894 38.5946 55.9901 38.594C55.9908 38.5933 55.9915 38.5926 55.9921 38.5919C55.9928 38.5912 55.9935 38.5906 55.9942 38.5899C55.9948 38.5892 55.9955 38.5885 55.9962 38.5878C55.9969 38.5872 55.9976 38.5865 55.9982 38.5858C55.9989 38.5851 55.9996 38.5845 56.0003 38.5838C56.0009 38.5831 56.0016 38.5824 56.0023 38.5818C56.003 38.5811 56.0036 38.5804 56.0043 38.5797C56.005 38.5791 56.0056 38.5784 56.0063 38.5777C56.007 38.5771 56.0077 38.5764 56.0083 38.5757C56.009 38.575 56.0097 38.5744 56.0103 38.5737C56.011 38.573 56.0117 38.5724 56.0123 38.5717C56.013 38.571 56.0137 38.5704 56.0143 38.5697C56.015 38.569 56.0157 38.5684 56.0163 38.5677C56.017 38.567 56.0177 38.5664 56.0183 38.5657C56.019 38.5651 56.0196 38.5644 56.0203 38.5637C56.021 38.5631 56.0216 38.5624 56.0223 38.5617C56.023 38.5611 56.0236 38.5604 56.0243 38.5598C56.0249 38.5591 56.0256 38.5585 56.0262 38.5578C56.0269 38.5571 56.0276 38.5565 56.0282 38.5558C56.0289 38.5552 56.0295 38.5545 56.0302 38.5539C56.0308 38.5532 56.0315 38.5526 56.0321 38.5519C56.0328 38.5512 56.0335 38.5506 56.0341 38.5499C56.0348 38.5493 56.0354 38.5486 56.0361 38.548C56.0367 38.5473 56.0374 38.5467 56.038 38.546C56.0387 38.5454 56.0393 38.5447 56.04 38.5441C56.0406 38.5434 56.0413 38.5428 56.0419 38.5421C56.0425 38.5415 56.0432 38.5409 56.0438 38.5402C56.0445 38.5396 56.0451 38.5389 56.0458 38.5383C56.0464 38.5376 56.0471 38.537 56.0477 38.5363C56.0483 38.5357 56.049 38.5351 56.0496 38.5344C56.0503 38.5338 56.0509 38.5331 56.0515 38.5325C56.0522 38.5319 56.0528 38.5312 56.0535 38.5306C56.0541 38.5299 56.0547 38.5293 56.0554 38.5287C56.056 38.528 56.0567 38.5274 56.0573 38.5268C56.0579 38.5261 56.0586 38.5255 56.0592 38.5248C56.0598 38.5242 56.0605 38.5236 56.0611 38.5229C56.0617 38.5223 56.0624 38.5217 56.063 38.521C56.0636 38.5204 56.0643 38.5198 56.0649 38.5192C56.0655 38.5185 56.0662 38.5179 56.0668 38.5173C56.0674 38.5166 56.068 38.516 56.0687 38.5154C56.0693 38.5147 56.0699 38.5141 56.0705 38.5135C56.0712 38.5129 56.0718 38.5122 56.0724 38.5116C56.0731 38.511 56.0737 38.5104 56.0743 38.5097C56.0749 38.5091 56.0755 38.5085 56.0762 38.5079C56.0768 38.5072 56.0774 38.5066 56.078 38.506C56.0787 38.5054 56.0793 38.5048 56.0799 38.5041C56.0805 38.5035 56.0811 38.5029 56.0818 38.5023C56.0824 38.5017 56.083 38.501 56.0836 38.5004C56.0842 38.4998 56.0848 38.4992 56.0855 38.4986C56.0861 38.498 56.0867 38.4974 56.0873 38.4967C56.0879 38.4961 56.0885 38.4955 56.0891 38.4949C56.0898 38.4943 56.0904 38.4937 56.091 38.4931C56.0916 38.4924 56.0922 38.4918 56.0928 38.4912C56.0934 38.4906 56.094 38.49 56.0946 38.4894C56.0953 38.4888 56.0959 38.4882 56.0965 38.4876C56.0971 38.487 56.0977 38.4864 56.0983 38.4857C56.0989 38.4851 56.0995 38.4845 56.1001 38.4839C56.1007 38.4833 56.1013 38.4827 56.1019 38.4821C56.1025 38.4815 56.1031 38.4809 56.1037 38.4803C56.1043 38.4797 56.1049 38.4791 56.1055 38.4785C56.1061 38.4779 56.1067 38.4773 56.1073 38.4767C56.1079 38.4761 56.1085 38.4755 56.1091 38.4749C56.1097 38.4743 56.1103 38.4737 56.1109 38.4731C56.1115 38.4725 56.1121 38.4719 56.1127 38.4713C56.1133 38.4707 56.1139 38.4701 56.1145 38.4695C56.1151 38.4689 56.1157 38.4683 56.1163 38.4678C56.1169 38.4672 56.1175 38.4666 56.1181 38.466C56.1187 38.4654 56.1193 38.4648 56.1198 38.4642C56.1204 38.4636 56.121 38.463 56.1216 38.4624C56.1222 38.4618 56.1228 38.4613 56.1234 38.4607C56.124 38.4601 56.1246 38.4595 56.1251 38.4589C56.1257 38.4583 56.1263 38.4577 56.1269 38.4571C56.1275 38.4566 56.1281 38.456 56.1286 38.4554C56.1292 38.4548 56.1298 38.4542 56.1304 38.4536C56.131 38.4531 56.1316 38.4525 56.1321 38.4519C56.1327 38.4513 56.1333 38.4507 56.1339 38.4502C56.1345 38.4496 56.135 38.449 56.1356 38.4484C56.1362 38.4478 56.1368 38.4473 56.1374 38.4467C56.1379 38.4461 56.1385 38.4455 56.1391 38.445C56.1397 38.4444 56.1402 38.4438 56.1408 38.4432C56.1414 38.4427 56.142 38.4421 56.1425 38.4415C56.1431 38.4409 56.1437 38.4404 56.1442 38.4398C56.1448 38.4392 56.1454 38.4387 56.146 38.4381C56.1465 38.4375 56.1471 38.4369 56.1477 38.4364C56.1482 38.4358 56.1488 38.4352 56.1494 38.4347C56.1499 38.4341 56.1505 38.4335 56.1511 38.433C56.1516 38.4324 56.1522 38.4318 56.1528 38.4313C56.1533 38.4307 56.1539 38.4301 56.1545 38.4296C56.155 38.429 56.1556 38.4285 56.1562 38.4279C56.1567 38.4273 56.1573 38.4268 56.1578 38.4262C56.1584 38.4256 56.159 38.4251 56.1595 38.4245C56.1601 38.424 56.1606 38.4234 56.1612 38.4228C56.1618 38.4223 56.1623 38.4217 56.1629 38.4212C56.1634 38.4206 56.164 38.4201 56.1645 38.4195C56.1651 38.419 56.1656 38.4184 56.1662 38.4178C56.1668 38.4173 56.1673 38.4167 56.1679 38.4162C56.1684 38.4156 56.169 38.4151 56.1695 38.4145C56.1701 38.414 56.1706 38.4134 56.1712 38.4129C56.1717 38.4123 56.1723 38.4118 56.1728 38.4112C56.1734 38.4107 56.1739 38.4101 56.1745 38.4096C56.175 38.409 56.1756 38.4085 56.1761 38.4079C56.1767 38.4074 56.1772 38.4068 56.1777 38.4063C56.1783 38.4058 56.1788 38.4052 56.1794 38.4047C56.1799 38.4041 56.1805 38.4036 56.181 38.403C56.1815 38.4025 56.1821 38.402 56.1826 38.4014C56.1832 38.4009 56.1837 38.4003 56.1842 38.3998C56.1848 38.3993 56.1853 38.3987 56.1859 38.3982C56.1864 38.3976 56.1869 38.3971 56.1875 38.3966C56.188 38.396 56.1885 38.3955 56.1891 38.395C56.1896 38.3944 56.1902 38.3939 56.1907 38.3934C56.1912 38.3928 56.1918 38.3923 56.1923 38.3918C56.1928 38.3912 56.1934 38.3907 56.1939 38.3902C56.1944 38.3896 56.1949 38.3891 56.1955 38.3886C56.196 38.388 56.1965 38.3875 56.1971 38.387C56.1976 38.3864 56.1981 38.3859 56.1987 38.3854C56.1992 38.3849 56.1997 38.3843 56.2002 38.3838C56.2008 38.3833 56.2013 38.3828 56.2018 38.3822C56.2023 38.3817 56.2029 38.3812 56.2034 38.3807C56.2039 38.3801 56.2044 38.3796 56.2049 38.3791C56.2055 38.3786 56.206 38.3781 56.2065 38.3775C56.207 38.377 56.2076 38.3765 56.2081 38.376C56.2086 38.3755 56.2091 38.3749 56.2096 38.3744C56.2101 38.3739 56.2107 38.3734 56.2112 38.3729C56.2117 38.3723 56.2122 38.3718 56.2127 38.3713C56.2132 38.3708 56.2138 38.3703 56.2143 38.3698C56.2148 38.3693 56.2153 38.3687 56.2158 38.3682C56.2163 38.3677 56.2168 38.3672 56.2173 38.3667C56.2179 38.3662 56.2184 38.3657 56.2189 38.3652C56.2194 38.3647 56.2199 38.3641 56.2204 38.3636C56.2209 38.3631 56.2214 38.3626 56.2219 38.3621C56.2224 38.3616 56.2229 38.3611 56.2235 38.3606C56.224 38.3601 56.2245 38.3596 56.225 38.3591C56.2255 38.3586 56.226 38.3581 56.2265 38.3576C56.227 38.3571 56.2275 38.3566 56.228 38.3561C56.2285 38.3556 56.229 38.3551 56.2295 38.3546C56.23 38.3541 56.2305 38.3536 56.231 38.3531C56.2315 38.3526 56.232 38.3521 56.2325 38.3516C56.233 38.3511 56.2335 38.3506 56.234 38.3501C56.2345 38.3496 56.235 38.3491 56.2355 38.3486C56.236 38.3481 56.2365 38.3476 56.2369 38.3471C56.2374 38.3466 56.2379 38.3461 56.2384 38.3456C56.2389 38.3451 56.2394 38.3446 56.2399 38.3441C56.2404 38.3436 56.2409 38.3432 56.2414 38.3427C56.2419 38.3422 56.2424 38.3417 56.2428 38.3412C56.2433 38.3407 56.2438 38.3402 56.2443 38.3397C56.2448 38.3392 56.2453 38.3388 56.2458 38.3383C56.2463 38.3378 56.2467 38.3373 56.2472 38.3368C56.2477 38.3363 56.2482 38.3359 56.2487 38.3354C56.2492 38.3349 56.2496 38.3344 56.2501 38.3339C56.2506 38.3334 56.2511 38.333 56.2516 38.3325C56.252 38.332 56.2525 38.3315 56.253 38.331C56.2535 38.3306 56.254 38.3301 56.2544 38.3296C56.2549 38.3291 56.2554 38.3286 56.2559 38.3282C56.2563 38.3277 56.2568 38.3272 56.2573 38.3267C56.2578 38.3263 56.2582 38.3258 56.2587 38.3253C56.2592 38.3248 56.2597 38.3244 56.2601 38.3239C56.2606 38.3234 56.2611 38.323 56.2616 38.3225C56.262 38.322 56.2625 38.3215 56.263 38.3211C56.2634 38.3206 56.2639 38.3201 56.2644 38.3197C56.2648 38.3192 56.2653 38.3187 56.2658 38.3183C56.2662 38.3178 56.2667 38.3173 56.2672 38.3169C56.2676 38.3164 56.2681 38.3159 56.2686 38.3155C56.269 38.315 56.2695 38.3145 56.27 38.3141C56.2704 38.3136 56.2709 38.3132 56.2713 38.3127C56.2718 38.3122 56.2723 38.3118 56.2727 38.3113C56.2732 38.3108 56.2737 38.3104 56.2741 38.3099C56.2746 38.3095 56.275 38.309 56.2755 38.3086C56.2759 38.3081 56.2764 38.3076 56.2769 38.3072C56.2773 38.3067 56.2778 38.3063 56.2782 38.3058C56.2787 38.3054 56.2791 38.3049 56.2796 38.3045C56.28 38.304 56.2805 38.3035 56.2809 38.3031C56.2814 38.3026 56.2819 38.3022 56.2823 38.3017C56.2828 38.3013 56.2832 38.3008 56.2837 38.3004C56.2841 38.2999 56.2846 38.2995 56.285 38.299C56.2854 38.2986 56.2859 38.2981 56.2863 38.2977C56.2868 38.2973 56.2872 38.2968 56.2877 38.2964C56.2881 38.2959 56.2886 38.2955 56.289 38.295C56.2895 38.2946 56.2899 38.2941 56.2903 38.2937C56.2908 38.2933 56.2912 38.2928 56.2917 38.2924C56.2921 38.2919 56.2926 38.2915 56.293 38.291C56.2934 38.2906 56.2939 38.2902 56.2943 38.2897C56.2948 38.2893 56.2952 38.2889 56.2956 38.2884C56.2961 38.288 56.2965 38.2875 56.2969 38.2871C56.2974 38.2867 56.2978 38.2862 56.2982 38.2858C56.2987 38.2854 56.2991 38.2849 56.2995 38.2845C56.3 38.2841 56.3004 38.2836 56.3008 38.2832C56.3013 38.2828 56.3017 38.2823 56.3021 38.2819C56.3026 38.2815 56.303 38.281 56.3034 38.2806C56.3039 38.2802 56.3043 38.2798 56.3047 38.2793C56.3051 38.2789 56.3056 38.2785 56.306 38.278C56.3064 38.2776 56.3069 38.2772 56.3073 38.2768C56.3077 38.2763 56.3081 38.2759 56.3086 38.2755C56.309 38.2751 56.3094 38.2746 56.3098 38.2742C56.3102 38.2738 56.3107 38.2734 56.3111 38.273C56.3115 38.2725 56.3119 38.2721 56.3124 38.2717C56.3128 38.2713 56.3132 38.2708 56.3136 38.2704C56.314 38.27 56.3144 38.2696 56.3149 38.2692C56.3153 38.2688 56.3157 38.2683 56.3161 38.2679C56.3165 38.2675 56.3169 38.2671 56.3174 38.2667C56.3178 38.2663 56.3182 38.2658 56.3186 38.2654C56.319 38.265 56.3194 38.2646 56.3198 38.2642C56.3203 38.2638 56.3207 38.2634 56.3211 38.263C56.3215 38.2626 56.3219 38.2621 56.3223 38.2617C56.3227 38.2613 56.3231 38.2609 56.3235 38.2605C56.3239 38.2601 56.3244 38.2597 56.3248 38.2593C56.3252 38.2589 56.3256 38.2585 56.326 38.2581C56.3264 38.2577 56.3268 38.2573 56.3272 38.2569C56.3276 38.2564 56.328 38.256 56.3284 38.2556C56.3288 38.2552 56.3292 38.2548 56.3296 38.2544C56.33 38.254 56.3304 38.2536 56.3308 38.2532C56.3312 38.2528 56.3316 38.2524 56.332 38.252C56.3324 38.2516 56.3328 38.2512 56.3332 38.2508C56.3336 38.2504 56.334 38.25 56.3344 38.2497C56.3348 38.2493 56.3352 38.2489 56.3356 38.2485C56.336 38.2481 56.3364 38.2477 56.3368 38.2473C56.3372 38.2469 56.3375 38.2465 56.3379 38.2461C56.3383 38.2457 56.3387 38.2453 56.3391 38.2449C56.3395 38.2445 56.3399 38.2442 56.3403 38.2438C56.3407 38.2434 56.3411 38.243 56.3414 38.2426C56.3418 38.2422 56.3422 38.2418 56.3426 38.2414C56.343 38.241 56.3434 38.2407 56.3438 38.2403C56.3441 38.2399 56.3445 38.2395 56.3449 38.2391C56.3453 38.2387 56.3457 38.2384 56.3461 38.238C56.3465 38.2376 56.3468 38.2372 56.3472 38.2368C56.3476 38.2364 56.348 38.2361 56.3484 38.2357C56.3487 38.2353 56.3491 38.2349 56.3495 38.2345C56.3499 38.2342 56.3502 38.2338 56.3506 38.2334C56.351 38.233 56.3514 38.2327 56.3518 38.2323C56.3521 38.2319 56.3525 38.2315 56.3529 38.2312C56.3533 38.2308 56.3536 38.2304 56.354 38.23C56.3544 38.2297 56.3547 38.2293 56.3551 38.2289C56.3555 38.2286 56.3559 38.2282 56.3562 38.2278C56.3566 38.2274 56.357 38.2271 56.3573 38.2267C56.3577 38.2263 56.3581 38.226 56.3584 38.2256C56.3588 38.2252 56.3592 38.2249 56.3596 38.2245C56.3599 38.2241 56.3603 38.2238 56.3606 38.2234C56.361 38.223 56.3614 38.2227 56.3617 38.2223C56.3621 38.2219 56.3625 38.2216 56.3628 38.2212C56.3632 38.2208 56.3636 38.2205 56.3639 38.2201C56.3643 38.2198 56.3646 38.2194 56.365 38.219C56.3654 38.2187 56.3657 38.2183 56.3661 38.218C56.3664 38.2176 56.3668 38.2173 56.3671 38.2169C56.3675 38.2165 56.3679 38.2162 56.3682 38.2158C56.3686 38.2155 56.3689 38.2151 56.3693 38.2148C56.3696 38.2144 56.37 38.2141 56.3703 38.2137C56.3707 38.2133 56.371 38.213 56.3714 38.2126C56.3718 38.2123 56.3721 38.2119 56.3725 38.2116C56.3728 38.2112 56.3732 38.2109 56.3735 38.2105C56.3739 38.2102 56.3742 38.2098 56.3745 38.2095C56.3749 38.2091 56.3752 38.2088 56.3756 38.2085C56.3759 38.2081 56.3763 38.2078 56.3766 38.2074C56.377 38.2071 56.3773 38.2067 56.3777 38.2064C56.378 38.206 56.3783 38.2057 56.3787 38.2054C56.379 38.205 56.3794 38.2047 56.3797 38.2043C56.3801 38.204 56.3804 38.2036 56.3807 38.2033C56.3811 38.203 56.3814 38.2026 56.3818 38.2023C56.3821 38.202 56.3824 38.2016 56.3828 38.2013C56.3831 38.2009 56.3834 38.2006 56.3838 38.2003C56.3841 38.1999 56.3844 38.1996 56.3848 38.1993C56.3851 38.1989 56.3854 38.1986 56.3858 38.1983C56.3861 38.1979 56.3864 38.1976 56.3868 38.1973C56.3871 38.1969 56.3874 38.1966 56.3878 38.1963C56.3881 38.1959 56.3884 38.1956 56.3888 38.1953C56.3891 38.195 56.3894 38.1946 56.3897 38.1943C56.3901 38.194 56.3904 38.1936 56.3907 38.1933C56.391 38.193 56.3914 38.1927 56.3917 38.1923C56.392 38.192 56.3923 38.1917 56.3927 38.1914C56.393 38.191 56.3933 38.1907 56.3936 38.1904C56.394 38.1901 56.3943 38.1898 56.3946 38.1894C56.3949 38.1891 56.3952 38.1888 56.3956 38.1885C56.3959 38.1882 56.3962 38.1878 56.3965 38.1875C56.3968 38.1872 56.3972 38.1869 56.3975 38.1866C56.3978 38.1862 56.3981 38.1859 56.3984 38.1856C56.3987 38.1853 56.3991 38.185 56.3994 38.1847C56.3997 38.1844 56.4 38.184 56.4003 38.1837C56.4006 38.1834 56.4009 38.1831 56.4012 38.1828C56.4016 38.1825 56.4019 38.1822 56.4022 38.1819C56.4025 38.1816 56.4028 38.1812 56.4031 38.1809C56.4034 38.1806 56.4037 38.1803 56.404 38.18C56.4043 38.1797 56.4046 38.1794 56.405 38.1791C56.4053 38.1788 56.4056 38.1785 56.4059 38.1782C56.4062 38.1779 56.4065 38.1776 56.4068 38.1773C56.4071 38.177 56.4074 38.1767 56.4077 38.1764C56.408 38.1761 56.4083 38.1758 56.4086 38.1754C56.4089 38.1751 56.4092 38.1748 56.4095 38.1745C56.4098 38.1742 56.4101 38.174 56.4104 38.1737C56.4107 38.1734 56.411 38.1731 56.4113 38.1728C56.4116 38.1725 56.4119 38.1722 56.4122 38.1719C56.4125 38.1716 56.4128 38.1713 56.4131 38.171C56.4133 38.1707 56.4136 38.1704 56.4139 38.1701C56.4142 38.1698 56.4145 38.1695 56.4148 38.1692C56.4151 38.1689 56.4154 38.1686 56.4157 38.1684C56.416 38.1681 56.4163 38.1678 56.4166 38.1675C56.4168 38.1672 56.4171 38.1669 56.4174 38.1666C56.4177 38.1663 56.418 38.1661 56.4183 38.1658C56.4186 38.1655 56.4188 38.1652 56.4191 38.1649C56.4194 38.1646 56.4197 38.1643 56.42 38.1641C56.4203 38.1638 56.4205 38.1635 56.4208 38.1632C56.4211 38.1629 56.4214 38.1626 56.4217 38.1624C56.422 38.1621 56.4222 38.1618 56.4225 38.1615C56.4228 38.1612 56.4231 38.161 56.4234 38.1607C56.4236 38.1604 56.4239 38.1601 56.4242 38.1599C56.4245 38.1596 56.4247 38.1593 56.425 38.159C56.4253 38.1588 56.4256 38.1585 56.4258 38.1582C56.4261 38.1579 56.4264 38.1577 56.4267 38.1574C56.4269 38.1571 56.4272 38.1568 56.4275 38.1566C56.4277 38.1563 56.428 38.156 56.4283 38.1558C56.4286 38.1555 56.4288 38.1552 56.4291 38.155C56.4294 38.1547 56.4296 38.1544 56.4299 38.1541C56.4302 38.1539 56.4304 38.1536 56.4307 38.1533C56.431 38.1531 56.4312 38.1528 56.4315 38.1526C56.4318 38.1523 56.432 38.152 56.4323 38.1518C56.4325 38.1515 56.4328 38.1512 56.4331 38.151C56.4333 38.1507 56.4336 38.1505 56.4339 38.1502C56.4341 38.1499 56.4344 38.1497 56.4346 38.1494C56.4349 38.1492 56.4351 38.1489 56.4354 38.1486C56.4357 38.1484 56.4359 38.1481 56.4362 38.1479C56.4364 38.1476 56.4367 38.1474 56.4369 38.1471C56.4372 38.1468 56.4375 38.1466 56.4377 38.1463C56.438 38.1461 56.4382 38.1458 56.4385 38.1456C56.4387 38.1453 56.439 38.1451 56.4392 38.1448C56.4395 38.1446 56.4397 38.1443 56.44 38.1441C56.4402 38.1438 56.4405 38.1436 56.4407 38.1433C56.441 38.1431 56.4412 38.1428 56.4415 38.1426C56.4417 38.1423 56.442 38.1421 56.4422 38.1418C56.4425 38.1416 56.4427 38.1413 56.4429 38.1411C56.4432 38.1409 56.4434 38.1406 56.4437 38.1404C56.4439 38.1401 56.4442 38.1399 56.4444 38.1396C56.4446 38.1394 56.4449 38.1392 56.4451 38.1389C56.4454 38.1387 56.4456 38.1384 56.4458 38.1382C56.4461 38.138 56.4463 38.1377 56.4466 38.1375C56.4468 38.1372 56.447 38.137 56.4473 38.1368C56.4475 38.1365 56.4477 38.1363 56.448 38.1361C56.4482 38.1358 56.4484 38.1356 56.4487 38.1354C56.4489 38.1351 56.4491 38.1349 56.4494 38.1347C56.4496 38.1344 56.4498 38.1342 56.4501 38.134C56.4503 38.1337 56.4505 38.1335 56.4508 38.1333C56.451 38.133 56.4512 38.1328 56.4515 38.1326C56.4517 38.1324 56.4519 38.1321 56.4521 38.1319C56.4524 38.1317 56.4526 38.1315 56.4528 38.1312C56.453 38.131 56.4533 38.1308 56.4535 38.1306C56.4537 38.1303 56.4539 38.1301 56.4542 38.1299C56.4544 38.1297 56.4546 38.1294 56.4548 38.1292C56.455 38.129 56.4553 38.1288 56.4555 38.1286C56.4557 38.1283 56.4559 38.1281 56.4561 38.1279C56.4564 38.1277 56.4566 38.1275 56.4568 38.1272C56.457 38.127 56.4572 38.1268 56.4575 38.1266C56.4577 38.1264 56.4579 38.1262 56.4581 38.1259C56.4583 38.1257 56.4585 38.1255 56.4587 38.1253C56.459 38.1251 56.4592 38.1249 56.4594 38.1247C56.4596 38.1244 56.4598 38.1242 56.46 38.124C56.4602 38.1238 56.4604 38.1236 56.4606 38.1234C56.4609 38.1232 56.4611 38.123 56.4613 38.1228C56.4615 38.1226 56.4617 38.1224 56.4619 38.1221C56.4621 38.1219 56.4623 38.1217 56.4625 38.1215C56.4627 38.1213 56.4629 38.1211 56.4631 38.1209C56.4633 38.1207 56.4635 38.1205 56.4637 38.1203C56.4639 38.1201 56.4641 38.1199 56.4643 38.1197C56.4645 38.1195 56.4647 38.1193 56.4649 38.1191C56.4651 38.1189 56.4653 38.1187 56.4655 38.1185C56.4657 38.1183 56.4659 38.1181 56.4661 38.1179C56.4663 38.1177 56.4665 38.1175 56.4667 38.1173C56.4669 38.1171 56.4671 38.1169 56.4673 38.1167C56.4675 38.1165 56.4677 38.1163 56.4679 38.1161C56.4681 38.1159 56.4683 38.1158 56.4685 38.1156C56.4687 38.1154 56.4689 38.1152 56.4691 38.115C56.4692 38.1148 56.4694 38.1146 56.4696 38.1144C56.4698 38.1142 56.47 38.114 56.4702 38.1139C56.4704 38.1137 56.4706 38.1135 56.4708 38.1133C56.4709 38.1131 56.4711 38.1129 56.4713 38.1127C56.4715 38.1125 56.4717 38.1124 56.4719 38.1122C56.4721 38.112 56.4722 38.1118 56.4724 38.1116C56.4726 38.1114 56.4728 38.1113 56.473 38.1111C56.4731 38.1109 56.4733 38.1107 56.4735 38.1105C56.4737 38.1104 56.4739 38.1102 56.474 38.11C56.4742 38.1098 56.4744 38.1096 56.4746 38.1095C56.4748 38.1093 56.4749 38.1091 56.4751 38.1089C56.4753 38.1088 56.4755 38.1086 56.4756 38.1084C56.4758 38.1082 56.476 38.1081 56.4762 38.1079C56.4763 38.1077 56.4765 38.1075 56.4767 38.1074C56.4768 38.1072 56.477 38.107 56.4772 38.1069C56.4774 38.1067 56.4775 38.1065 56.4777 38.1063C56.4779 38.1062 56.478 38.106 56.4782 38.1058C56.4784 38.1057 56.4785 38.1055 56.4787 38.1053C56.4789 38.1052 56.479 38.105 56.4792 38.1048C56.4794 38.1047 56.4795 38.1045 56.4797 38.1043C56.4799 38.1042 56.48 38.104 56.4802 38.1039C56.4804 38.1037 56.4805 38.1035 56.4807 38.1034C56.4808 38.1032 56.481 38.103 56.4812 38.1029C56.4813 38.1027 56.4815 38.1026 56.4816 38.1024C56.4818 38.1023 56.4819 38.1021 56.4821 38.1019C56.4823 38.1018 56.4824 38.1016 56.4826 38.1015C56.4827 38.1013 56.4829 38.1012 56.483 38.101C56.4832 38.1008 56.4834 38.1007 56.4835 38.1005C56.4837 38.1004 56.4838 38.1002 56.484 38.1001C56.4841 38.0999 56.4843 38.0998 56.4844 38.0996C56.4846 38.0995 56.4847 38.0993 56.4849 38.0992C56.485 38.099 56.4852 38.0989 56.4853 38.0987C56.4855 38.0986 56.4856 38.0984 56.4858 38.0983C56.4859 38.0981 56.486 38.098 56.4862 38.0979C56.4863 38.0977 56.4865 38.0976 56.4866 38.0974C56.4868 38.0973 56.4869 38.0971 56.4871 38.097C56.4872 38.0968 56.4873 38.0967 56.4875 38.0966C56.4876 38.0964 56.4878 38.0963 56.4879 38.0961C56.488 38.096 56.4882 38.0959 56.4883 38.0957C56.4885 38.0956 56.4886 38.0954 56.4887 38.0953C56.4889 38.0952 56.489 38.095 56.4891 38.0949C56.4893 38.0948 56.4894 38.0946 56.4895 38.0945C56.4897 38.0944 56.4898 38.0942 56.4899 38.0941C56.4901 38.094 56.4902 38.0938 56.4903 38.0937C56.4905 38.0936 56.4906 38.0934 56.4907 38.0933C56.4909 38.0932 56.491 38.093 56.4911 38.0929C56.4913 38.0928 56.4914 38.0927 56.4915 38.0925C56.4916 38.0924 56.4918 38.0923 56.4919 38.0921C56.492 38.092 56.4921 38.0919 56.4923 38.0918C56.4924 38.0916 56.4925 38.0915 56.4926 38.0914C56.4928 38.0913 56.4929 38.0912 56.493 38.091C56.4931 38.0909 56.4933 38.0908 56.4934 38.0907C56.4935 38.0905 56.4936 38.0904 56.4937 38.0903C56.4939 38.0902 56.494 38.0901 56.4941 38.0899C56.4942 38.0898 56.4943 38.0897 56.4945 38.0896C56.4946 38.0895 56.4947 38.0894 56.4948 38.0892C56.4949 38.0891 56.495 38.089 56.4951 38.0889C56.4953 38.0888 56.4954 38.0887 56.4955 38.0886C56.4956 38.0884 56.4957 38.0883 56.4958 38.0882C56.4959 38.0881 56.496 38.088 56.4962 38.0879C56.4963 38.0878 56.4964 38.0877 56.4965 38.0876C56.4966 38.0874 56.4967 38.0873 56.4968 38.0872C56.4969 38.0871 56.497 38.087 56.4971 38.0869C56.4972 38.0868 56.4973 38.0867 56.4974 38.0866C56.4976 38.0865 56.4977 38.0864 56.4978 38.0863C56.4979 38.0862 56.498 38.0861 56.4981 38.086C56.4982 38.0859 56.4983 38.0858 56.4984 38.0857C56.4985 38.0856 56.4986 38.0855 56.4987 38.0854C56.4988 38.0853 56.4989 38.0852 56.499 38.0851C56.4991 38.085 56.4992 38.0849 56.4993 38.0848C56.4994 38.0847 56.4995 38.0846 56.4996 38.0845C56.4996 38.0844 56.4997 38.0843 56.4998 38.0842C56.4999 38.0841 56.5 38.084 56.5001 38.0839C56.5002 38.0838 56.5003 38.0837 56.5004 38.0836L53.672 35.2552C53.6719 35.2553 53.6718 35.2554 53.6717 35.2555C53.6716 35.2556 53.6715 35.2557 53.6714 35.2558C53.6713 35.2559 53.6712 35.256 53.6711 35.2561C53.671 35.2562 53.6709 35.2563 53.6708 35.2564C53.6707 35.2564 53.6706 35.2565 53.6705 35.2566C53.6704 35.2567 53.6703 35.2568 53.6702 35.2569C53.6701 35.257 53.67 35.2571 53.6699 35.2572C53.6698 35.2573 53.6697 35.2574 53.6696 35.2575C53.6695 35.2576 53.6694 35.2578 53.6693 35.2579C53.6692 35.258 53.6691 35.2581 53.669 35.2582C53.6689 35.2583 53.6688 35.2584 53.6687 35.2585C53.6686 35.2586 53.6685 35.2587 53.6684 35.2588C53.6683 35.2589 53.6682 35.259 53.6681 35.2591C53.6679 35.2592 53.6678 35.2593 53.6677 35.2595C53.6676 35.2596 53.6675 35.2597 53.6674 35.2598C53.6673 35.2599 53.6672 35.26 53.6671 35.2601C53.6669 35.2602 53.6668 35.2604 53.6667 35.2605C53.6666 35.2606 53.6665 35.2607 53.6664 35.2608C53.6663 35.2609 53.6661 35.261 53.666 35.2612C53.6659 35.2613 53.6658 35.2614 53.6657 35.2615C53.6656 35.2616 53.6654 35.2618 53.6653 35.2619C53.6652 35.262 53.6651 35.2621 53.665 35.2622C53.6648 35.2624 53.6647 35.2625 53.6646 35.2626C53.6645 35.2627 53.6643 35.2628 53.6642 35.263C53.6641 35.2631 53.664 35.2632 53.6638 35.2633C53.6637 35.2635 53.6636 35.2636 53.6635 35.2637C53.6633 35.2638 53.6632 35.264 53.6631 35.2641C53.663 35.2642 53.6628 35.2644 53.6627 35.2645C53.6626 35.2646 53.6624 35.2647 53.6623 35.2649C53.6622 35.265 53.662 35.2651 53.6619 35.2653C53.6618 35.2654 53.6617 35.2655 53.6615 35.2657C53.6614 35.2658 53.6613 35.2659 53.6611 35.2661C53.661 35.2662 53.6608 35.2663 53.6607 35.2665C53.6606 35.2666 53.6604 35.2667 53.6603 35.2669C53.6602 35.267 53.66 35.2672 53.6599 35.2673C53.6598 35.2674 53.6596 35.2676 53.6595 35.2677C53.6593 35.2679 53.6592 35.268 53.6591 35.2681C53.6589 35.2683 53.6588 35.2684 53.6586 35.2686C53.6585 35.2687 53.6583 35.2688 53.6582 35.269C53.6581 35.2691 53.6579 35.2693 53.6578 35.2694C53.6576 35.2696 53.6575 35.2697 53.6573 35.2699C53.6572 35.27 53.657 35.2702 53.6569 35.2703C53.6567 35.2705 53.6566 35.2706 53.6564 35.2707C53.6563 35.2709 53.6561 35.271 53.656 35.2712C53.6558 35.2714 53.6557 35.2715 53.6555 35.2717C53.6554 35.2718 53.6552 35.272 53.6551 35.2721C53.6549 35.2723 53.6548 35.2724 53.6546 35.2726C53.6545 35.2727 53.6543 35.2729 53.6541 35.273C53.654 35.2732 53.6538 35.2734 53.6537 35.2735C53.6535 35.2737 53.6534 35.2738 53.6532 35.274C53.653 35.2741 53.6529 35.2743 53.6527 35.2745C53.6526 35.2746 53.6524 35.2748 53.6522 35.2749C53.6521 35.2751 53.6519 35.2753 53.6518 35.2754C53.6516 35.2756 53.6514 35.2758 53.6513 35.2759C53.6511 35.2761 53.6509 35.2762 53.6508 35.2764C53.6506 35.2766 53.6504 35.2767 53.6503 35.2769C53.6501 35.2771 53.6499 35.2772 53.6498 35.2774C53.6496 35.2776 53.6494 35.2777 53.6493 35.2779C53.6491 35.2781 53.6489 35.2783 53.6488 35.2784C53.6486 35.2786 53.6484 35.2788 53.6482 35.2789C53.6481 35.2791 53.6479 35.2793 53.6477 35.2795C53.6476 35.2796 53.6474 35.2798 53.6472 35.28C53.647 35.2802 53.6469 35.2803 53.6467 35.2805C53.6465 35.2807 53.6463 35.2809 53.6462 35.281C53.646 35.2812 53.6458 35.2814 53.6456 35.2816C53.6454 35.2818 53.6453 35.2819 53.6451 35.2821C53.6449 35.2823 53.6447 35.2825 53.6445 35.2827C53.6444 35.2828 53.6442 35.283 53.644 35.2832C53.6438 35.2834 53.6436 35.2836 53.6434 35.2837C53.6433 35.2839 53.6431 35.2841 53.6429 35.2843C53.6427 35.2845 53.6425 35.2847 53.6423 35.2849C53.6421 35.285 53.642 35.2852 53.6418 35.2854C53.6416 35.2856 53.6414 35.2858 53.6412 35.286C53.641 35.2862 53.6408 35.2864 53.6406 35.2866C53.6404 35.2868 53.6402 35.2869 53.6401 35.2871C53.6399 35.2873 53.6397 35.2875 53.6395 35.2877C53.6393 35.2879 53.6391 35.2881 53.6389 35.2883C53.6387 35.2885 53.6385 35.2887 53.6383 35.2889C53.6381 35.2891 53.6379 35.2893 53.6377 35.2895C53.6375 35.2897 53.6373 35.2899 53.6371 35.2901C53.6369 35.2903 53.6367 35.2905 53.6365 35.2907C53.6363 35.2909 53.6361 35.2911 53.6359 35.2913C53.6357 35.2915 53.6355 35.2917 53.6353 35.2919C53.6351 35.2921 53.6349 35.2923 53.6347 35.2925C53.6345 35.2927 53.6343 35.2929 53.6341 35.2931C53.6339 35.2933 53.6337 35.2935 53.6335 35.2937C53.6333 35.2939 53.6331 35.2941 53.6328 35.2943C53.6326 35.2945 53.6324 35.2948 53.6322 35.295C53.632 35.2952 53.6318 35.2954 53.6316 35.2956C53.6314 35.2958 53.6312 35.296 53.631 35.2962C53.6307 35.2964 53.6305 35.2967 53.6303 35.2969C53.6301 35.2971 53.6299 35.2973 53.6297 35.2975C53.6295 35.2977 53.6292 35.2979 53.629 35.2982C53.6288 35.2984 53.6286 35.2986 53.6284 35.2988C53.6282 35.299 53.6279 35.2992 53.6277 35.2995C53.6275 35.2997 53.6273 35.2999 53.6271 35.3001C53.6268 35.3003 53.6266 35.3006 53.6264 35.3008C53.6262 35.301 53.626 35.3012 53.6257 35.3015C53.6255 35.3017 53.6253 35.3019 53.6251 35.3021C53.6248 35.3024 53.6246 35.3026 53.6244 35.3028C53.6242 35.303 53.6239 35.3033 53.6237 35.3035C53.6235 35.3037 53.6233 35.3039 53.623 35.3042C53.6228 35.3044 53.6226 35.3046 53.6223 35.3049C53.6221 35.3051 53.6219 35.3053 53.6216 35.3055C53.6214 35.3058 53.6212 35.306 53.621 35.3062C53.6207 35.3065 53.6205 35.3067 53.6203 35.3069C53.62 35.3072 53.6198 35.3074 53.6195 35.3076C53.6193 35.3079 53.6191 35.3081 53.6188 35.3083C53.6186 35.3086 53.6184 35.3088 53.6181 35.3091C53.6179 35.3093 53.6177 35.3095 53.6174 35.3098C53.6172 35.31 53.6169 35.3103 53.6167 35.3105C53.6165 35.3107 53.6162 35.311 53.616 35.3112C53.6157 35.3115 53.6155 35.3117 53.6152 35.3119C53.615 35.3122 53.6148 35.3124 53.6145 35.3127C53.6143 35.3129 53.614 35.3132 53.6138 35.3134C53.6135 35.3137 53.6133 35.3139 53.613 35.3141C53.6128 35.3144 53.6125 35.3146 53.6123 35.3149C53.612 35.3151 53.6118 35.3154 53.6115 35.3156C53.6113 35.3159 53.611 35.3161 53.6108 35.3164C53.6105 35.3166 53.6103 35.3169 53.61 35.3171C53.6098 35.3174 53.6095 35.3177 53.6093 35.3179C53.609 35.3182 53.6088 35.3184 53.6085 35.3187C53.6083 35.3189 53.608 35.3192 53.6078 35.3194C53.6075 35.3197 53.6072 35.32 53.607 35.3202C53.6067 35.3205 53.6065 35.3207 53.6062 35.321C53.6059 35.3212 53.6057 35.3215 53.6054 35.3218C53.6052 35.322 53.6049 35.3223 53.6046 35.3225C53.6044 35.3228 53.6041 35.3231 53.6039 35.3233C53.6036 35.3236 53.6033 35.3239 53.6031 35.3241C53.6028 35.3244 53.6025 35.3247 53.6023 35.3249C53.602 35.3252 53.6017 35.3255 53.6015 35.3257C53.6012 35.326 53.6009 35.3263 53.6007 35.3265C53.6004 35.3268 53.6001 35.3271 53.5999 35.3273C53.5996 35.3276 53.5993 35.3279 53.599 35.3281C53.5988 35.3284 53.5985 35.3287 53.5982 35.329C53.598 35.3292 53.5977 35.3295 53.5974 35.3298C53.5971 35.3301 53.5969 35.3303 53.5966 35.3306C53.5963 35.3309 53.596 35.3312 53.5958 35.3314C53.5955 35.3317 53.5952 35.332 53.5949 35.3323C53.5946 35.3325 53.5944 35.3328 53.5941 35.3331C53.5938 35.3334 53.5935 35.3337 53.5932 35.3339C53.593 35.3342 53.5927 35.3345 53.5924 35.3348C53.5921 35.3351 53.5918 35.3353 53.5916 35.3356C53.5913 35.3359 53.591 35.3362 53.5907 35.3365C53.5904 35.3368 53.5901 35.3371 53.5898 35.3373C53.5896 35.3376 53.5893 35.3379 53.589 35.3382C53.5887 35.3385 53.5884 35.3388 53.5881 35.3391C53.5878 35.3394 53.5875 35.3396 53.5873 35.3399C53.587 35.3402 53.5867 35.3405 53.5864 35.3408C53.5861 35.3411 53.5858 35.3414 53.5855 35.3417C53.5852 35.342 53.5849 35.3423 53.5846 35.3426C53.5843 35.3429 53.584 35.3431 53.5837 35.3434C53.5834 35.3437 53.5832 35.344 53.5829 35.3443C53.5826 35.3446 53.5823 35.3449 53.582 35.3452C53.5817 35.3455 53.5814 35.3458 53.5811 35.3461C53.5808 35.3464 53.5805 35.3467 53.5802 35.347C53.5799 35.3473 53.5796 35.3476 53.5793 35.3479C53.579 35.3482 53.5787 35.3485 53.5784 35.3488C53.578 35.3491 53.5777 35.3494 53.5774 35.3497C53.5771 35.3501 53.5768 35.3504 53.5765 35.3507C53.5762 35.351 53.5759 35.3513 53.5756 35.3516C53.5753 35.3519 53.575 35.3522 53.5747 35.3525C53.5744 35.3528 53.5741 35.3531 53.5738 35.3534C53.5734 35.3537 53.5731 35.3541 53.5728 35.3544C53.5725 35.3547 53.5722 35.355 53.5719 35.3553C53.5716 35.3556 53.5713 35.3559 53.5709 35.3562C53.5706 35.3566 53.5703 35.3569 53.57 35.3572C53.5697 35.3575 53.5694 35.3578 53.569 35.3581C53.5687 35.3585 53.5684 35.3588 53.5681 35.3591C53.5678 35.3594 53.5675 35.3597 53.5671 35.36C53.5668 35.3604 53.5665 35.3607 53.5662 35.361C53.5659 35.3613 53.5655 35.3617 53.5652 35.362C53.5649 35.3623 53.5646 35.3626 53.5642 35.3629C53.5639 35.3633 53.5636 35.3636 53.5633 35.3639C53.5629 35.3642 53.5626 35.3646 53.5623 35.3649C53.562 35.3652 53.5616 35.3655 53.5613 35.3659C53.561 35.3662 53.5607 35.3665 53.5603 35.3669C53.56 35.3672 53.5597 35.3675 53.5593 35.3678C53.559 35.3682 53.5587 35.3685 53.5583 35.3688C53.558 35.3692 53.5577 35.3695 53.5574 35.3698C53.557 35.3702 53.5567 35.3705 53.5564 35.3708C53.556 35.3712 53.5557 35.3715 53.5553 35.3718C53.555 35.3722 53.5547 35.3725 53.5543 35.3729C53.554 35.3732 53.5537 35.3735 53.5533 35.3739C53.553 35.3742 53.5526 35.3745 53.5523 35.3749C53.552 35.3752 53.5516 35.3756 53.5513 35.3759C53.5509 35.3762 53.5506 35.3766 53.5503 35.3769C53.5499 35.3773 53.5496 35.3776 53.5492 35.378C53.5489 35.3783 53.5485 35.3786 53.5482 35.379C53.5479 35.3793 53.5475 35.3797 53.5472 35.38C53.5468 35.3804 53.5465 35.3807 53.5461 35.3811C53.5458 35.3814 53.5454 35.3818 53.5451 35.3821C53.5447 35.3825 53.5444 35.3828 53.544 35.3832C53.5437 35.3835 53.5433 35.3839 53.543 35.3842C53.5426 35.3846 53.5423 35.3849 53.5419 35.3853C53.5416 35.3856 53.5412 35.386 53.5409 35.3863C53.5405 35.3867 53.5401 35.387 53.5398 35.3874C53.5394 35.3878 53.5391 35.3881 53.5387 35.3885C53.5384 35.3888 53.538 35.3892 53.5376 35.3895C53.5373 35.3899 53.5369 35.3903 53.5366 35.3906C53.5362 35.391 53.5358 35.3913 53.5355 35.3917C53.5351 35.3921 53.5348 35.3924 53.5344 35.3928C53.534 35.3931 53.5337 35.3935 53.5333 35.3939C53.533 35.3942 53.5326 35.3946 53.5322 35.395C53.5319 35.3953 53.5315 35.3957 53.5311 35.3961C53.5308 35.3964 53.5304 35.3968 53.53 35.3972C53.5297 35.3975 53.5293 35.3979 53.5289 35.3983C53.5285 35.3986 53.5282 35.399 53.5278 35.3994C53.5274 35.3998 53.5271 35.4001 53.5267 35.4005C53.5263 35.4009 53.5259 35.4012 53.5256 35.4016C53.5252 35.402 53.5248 35.4024 53.5245 35.4027C53.5241 35.4031 53.5237 35.4035 53.5233 35.4039C53.523 35.4042 53.5226 35.4046 53.5222 35.405C53.5218 35.4054 53.5214 35.4057 53.5211 35.4061C53.5207 35.4065 53.5203 35.4069 53.5199 35.4073C53.5195 35.4076 53.5192 35.408 53.5188 35.4084C53.5184 35.4088 53.518 35.4092 53.5176 35.4095C53.5173 35.4099 53.5169 35.4103 53.5165 35.4107C53.5161 35.4111 53.5157 35.4115 53.5153 35.4119C53.515 35.4122 53.5146 35.4126 53.5142 35.413C53.5138 35.4134 53.5134 35.4138 53.513 35.4142C53.5126 35.4146 53.5122 35.4149 53.5119 35.4153C53.5115 35.4157 53.5111 35.4161 53.5107 35.4165C53.5103 35.4169 53.5099 35.4173 53.5095 35.4177C53.5091 35.4181 53.5087 35.4185 53.5083 35.4189C53.5079 35.4193 53.5075 35.4196 53.5071 35.42C53.5068 35.4204 53.5064 35.4208 53.506 35.4212C53.5056 35.4216 53.5052 35.422 53.5048 35.4224C53.5044 35.4228 53.504 35.4232 53.5036 35.4236C53.5032 35.424 53.5028 35.4244 53.5024 35.4248C53.502 35.4252 53.5016 35.4256 53.5012 35.426C53.5008 35.4264 53.5004 35.4268 53.5 35.4272C53.4996 35.4276 53.4992 35.428 53.4988 35.4284C53.4984 35.4288 53.498 35.4292 53.4975 35.4296C53.4971 35.43 53.4967 35.4305 53.4963 35.4309C53.4959 35.4313 53.4955 35.4317 53.4951 35.4321C53.4947 35.4325 53.4943 35.4329 53.4939 35.4333C53.4935 35.4337 53.4931 35.4341 53.4927 35.4345C53.4922 35.4349 53.4918 35.4354 53.4914 35.4358C53.491 35.4362 53.4906 35.4366 53.4902 35.437C53.4898 35.4374 53.4894 35.4378 53.4889 35.4383C53.4885 35.4387 53.4881 35.4391 53.4877 35.4395C53.4873 35.4399 53.4869 35.4403 53.4864 35.4407C53.486 35.4412 53.4856 35.4416 53.4852 35.442C53.4848 35.4424 53.4843 35.4428 53.4839 35.4433C53.4835 35.4437 53.4831 35.4441 53.4827 35.4445C53.4822 35.4449 53.4818 35.4454 53.4814 35.4458C53.481 35.4462 53.4806 35.4466 53.4801 35.4471C53.4797 35.4475 53.4793 35.4479 53.4789 35.4483C53.4784 35.4488 53.478 35.4492 53.4776 35.4496C53.4771 35.45 53.4767 35.4505 53.4763 35.4509C53.4759 35.4513 53.4754 35.4518 53.475 35.4522C53.4746 35.4526 53.4741 35.453 53.4737 35.4535C53.4733 35.4539 53.4729 35.4543 53.4724 35.4548C53.472 35.4552 53.4716 35.4556 53.4711 35.4561C53.4707 35.4565 53.4703 35.4569 53.4698 35.4574C53.4694 35.4578 53.4689 35.4582 53.4685 35.4587C53.4681 35.4591 53.4676 35.4595 53.4672 35.46C53.4668 35.4604 53.4663 35.4609 53.4659 35.4613C53.4654 35.4617 53.465 35.4622 53.4646 35.4626C53.4641 35.4631 53.4637 35.4635 53.4632 35.4639C53.4628 35.4644 53.4624 35.4648 53.4619 35.4653C53.4615 35.4657 53.461 35.4662 53.4606 35.4666C53.4601 35.467 53.4597 35.4675 53.4593 35.4679C53.4588 35.4684 53.4584 35.4688 53.4579 35.4693C53.4575 35.4697 53.457 35.4702 53.4566 35.4706C53.4561 35.4711 53.4557 35.4715 53.4552 35.472C53.4548 35.4724 53.4543 35.4729 53.4539 35.4733C53.4534 35.4738 53.453 35.4742 53.4525 35.4747C53.4521 35.4751 53.4516 35.4756 53.4512 35.476C53.4507 35.4765 53.4503 35.4769 53.4498 35.4774C53.4493 35.4778 53.4489 35.4783 53.4484 35.4788C53.448 35.4792 53.4475 35.4797 53.4471 35.4801C53.4466 35.4806 53.4461 35.481 53.4457 35.4815C53.4452 35.482 53.4448 35.4824 53.4443 35.4829C53.4438 35.4833 53.4434 35.4838 53.4429 35.4843C53.4425 35.4847 53.442 35.4852 53.4415 35.4857C53.4411 35.4861 53.4406 35.4866 53.4401 35.487C53.4397 35.4875 53.4392 35.488 53.4387 35.4884C53.4383 35.4889 53.4378 35.4894 53.4373 35.4898C53.4369 35.4903 53.4364 35.4908 53.4359 35.4912C53.4355 35.4917 53.435 35.4922 53.4345 35.4926C53.4341 35.4931 53.4336 35.4936 53.4331 35.4941C53.4327 35.4945 53.4322 35.495 53.4317 35.4955C53.4312 35.4959 53.4308 35.4964 53.4303 35.4969C53.4298 35.4974 53.4293 35.4978 53.4289 35.4983C53.4284 35.4988 53.4279 35.4993 53.4274 35.4997C53.427 35.5002 53.4265 35.5007 53.426 35.5012C53.4255 35.5017 53.4251 35.5021 53.4246 35.5026C53.4241 35.5031 53.4236 35.5036 53.4231 35.5041C53.4227 35.5045 53.4222 35.505 53.4217 35.5055C53.4212 35.506 53.4207 35.5065 53.4202 35.5069C53.4198 35.5074 53.4193 35.5079 53.4188 35.5084C53.4183 35.5089 53.4178 35.5094 53.4173 35.5098C53.4169 35.5103 53.4164 35.5108 53.4159 35.5113C53.4154 35.5118 53.4149 35.5123 53.4144 35.5128C53.4139 35.5133 53.4134 35.5137 53.4129 35.5142C53.4125 35.5147 53.412 35.5152 53.4115 35.5157C53.411 35.5162 53.4105 35.5167 53.41 35.5172C53.4095 35.5177 53.409 35.5182 53.4085 35.5187C53.408 35.5192 53.4075 35.5197 53.407 35.5202C53.4065 35.5206 53.406 35.5211 53.4056 35.5216C53.4051 35.5221 53.4046 35.5226 53.4041 35.5231C53.4036 35.5236 53.4031 35.5241 53.4026 35.5246C53.4021 35.5251 53.4016 35.5256 53.4011 35.5261C53.4006 35.5266 53.4001 35.5271 53.3996 35.5276C53.3991 35.5281 53.3986 35.5286 53.3981 35.5291C53.3975 35.5296 53.397 35.5301 53.3965 35.5306C53.396 35.5312 53.3955 35.5317 53.395 35.5322C53.3945 35.5327 53.394 35.5332 53.3935 35.5337C53.393 35.5342 53.3925 35.5347 53.392 35.5352C53.3915 35.5357 53.391 35.5362 53.3905 35.5367C53.3899 35.5372 53.3894 35.5378 53.3889 35.5383C53.3884 35.5388 53.3879 35.5393 53.3874 35.5398C53.3869 35.5403 53.3864 35.5408 53.3858 35.5413C53.3853 35.5419 53.3848 35.5424 53.3843 35.5429C53.3838 35.5434 53.3833 35.5439 53.3828 35.5444C53.3822 35.545 53.3817 35.5455 53.3812 35.546C53.3807 35.5465 53.3802 35.547 53.3796 35.5475C53.3791 35.5481 53.3786 35.5486 53.3781 35.5491C53.3776 35.5496 53.377 35.5501 53.3765 35.5507C53.376 35.5512 53.3755 35.5517 53.375 35.5522C53.3744 35.5528 53.3739 35.5533 53.3734 35.5538C53.3729 35.5543 53.3723 35.5549 53.3718 35.5554C53.3713 35.5559 53.3708 35.5564 53.3702 35.557C53.3697 35.5575 53.3692 35.558 53.3686 35.5585C53.3681 35.5591 53.3676 35.5596 53.3671 35.5601C53.3665 35.5607 53.366 35.5612 53.3655 35.5617C53.3649 35.5623 53.3644 35.5628 53.3639 35.5633C53.3633 35.5639 53.3628 35.5644 53.3623 35.5649C53.3617 35.5655 53.3612 35.566 53.3607 35.5665C53.3601 35.5671 53.3596 35.5676 53.359 35.5681C53.3585 35.5687 53.358 35.5692 53.3574 35.5698C53.3569 35.5703 53.3564 35.5708 53.3558 35.5714C53.3553 35.5719 53.3547 35.5724 53.3542 35.573C53.3537 35.5735 53.3531 35.5741 53.3526 35.5746C53.352 35.5752 53.3515 35.5757 53.3509 35.5762C53.3504 35.5768 53.3499 35.5773 53.3493 35.5779C53.3488 35.5784 53.3482 35.579 53.3477 35.5795C53.3471 35.5801 53.3466 35.5806 53.346 35.5812C53.3455 35.5817 53.3449 35.5822 53.3444 35.5828C53.3438 35.5833 53.3433 35.5839 53.3427 35.5844C53.3422 35.585 53.3416 35.5855 53.3411 35.5861C53.3405 35.5866 53.34 35.5872 53.3394 35.5878C53.3389 35.5883 53.3383 35.5889 53.3378 35.5894C53.3372 35.59 53.3367 35.5905 53.3361 35.5911C53.3356 35.5916 53.335 35.5922 53.3344 35.5927C53.3339 35.5933 53.3333 35.5939 53.3328 35.5944C53.3322 35.595 53.3317 35.5955 53.3311 35.5961C53.3305 35.5967 53.33 35.5972 53.3294 35.5978C53.3288 35.5983 53.3283 35.5989 53.3277 35.5995C53.3272 35.6 53.3266 35.6006 53.326 35.6012C53.3255 35.6017 53.3249 35.6023 53.3243 35.6028C53.3238 35.6034 53.3232 35.604 53.3226 35.6045C53.3221 35.6051 53.3215 35.6057 53.3209 35.6062C53.3204 35.6068 53.3198 35.6074 53.3192 35.6079C53.3187 35.6085 53.3181 35.6091 53.3175 35.6097C53.317 35.6102 53.3164 35.6108 53.3158 35.6114C53.3152 35.6119 53.3147 35.6125 53.3141 35.6131C53.3135 35.6137 53.313 35.6142 53.3124 35.6148C53.3118 35.6154 53.3112 35.616 53.3107 35.6165C53.3101 35.6171 53.3095 35.6177 53.3089 35.6183C53.3083 35.6188 53.3078 35.6194 53.3072 35.62C53.3066 35.6206 53.306 35.6212 53.3055 35.6217C53.3049 35.6223 53.3043 35.6229 53.3037 35.6235C53.3031 35.6241 53.3026 35.6246 53.302 35.6252C53.3014 35.6258 53.3008 35.6264 53.3002 35.627C53.2996 35.6276 53.2991 35.6281 53.2985 35.6287C53.2979 35.6293 53.2973 35.6299 53.2967 35.6305C53.2961 35.6311 53.2955 35.6317 53.2949 35.6322C53.2944 35.6328 53.2938 35.6334 53.2932 35.634C53.2926 35.6346 53.292 35.6352 53.2914 35.6358C53.2908 35.6364 53.2902 35.637 53.2896 35.6375C53.289 35.6381 53.2885 35.6387 53.2879 35.6393C53.2873 35.6399 53.2867 35.6405 53.2861 35.6411C53.2855 35.6417 53.2849 35.6423 53.2843 35.6429C53.2837 35.6435 53.2831 35.6441 53.2825 35.6447C53.2819 35.6453 53.2813 35.6459 53.2807 35.6465C53.2801 35.6471 53.2795 35.6477 53.2789 35.6483C53.2783 35.6489 53.2777 35.6495 53.2771 35.6501C53.2765 35.6507 53.2759 35.6513 53.2753 35.6519C53.2747 35.6525 53.2741 35.6531 53.2735 35.6537C53.2729 35.6543 53.2723 35.6549 53.2717 35.6555C53.2711 35.6561 53.2705 35.6567 53.2699 35.6573C53.2693 35.6579 53.2687 35.6585 53.268 35.6591C53.2674 35.6597 53.2668 35.6604 53.2662 35.661C53.2656 35.6616 53.265 35.6622 53.2644 35.6628C53.2638 35.6634 53.2632 35.664 53.2626 35.6646C53.2619 35.6652 53.2613 35.6659 53.2607 35.6665C53.2601 35.6671 53.2595 35.6677 53.2589 35.6683C53.2583 35.6689 53.2576 35.6695 53.257 35.6702C53.2564 35.6708 53.2558 35.6714 53.2552 35.672C53.2546 35.6726 53.2539 35.6732 53.2533 35.6739C53.2527 35.6745 53.2521 35.6751 53.2515 35.6757C53.2509 35.6763 53.2502 35.677 53.2496 35.6776C53.249 35.6782 53.2484 35.6788 53.2477 35.6794C53.2471 35.6801 53.2465 35.6807 53.2459 35.6813C53.2452 35.6819 53.2446 35.6826 53.244 35.6832C53.2434 35.6838 53.2427 35.6844 53.2421 35.6851C53.2415 35.6857 53.2409 35.6863 53.2402 35.6869C53.2396 35.6876 53.239 35.6882 53.2384 35.6888C53.2377 35.6895 53.2371 35.6901 53.2365 35.6907C53.2358 35.6914 53.2352 35.692 53.2346 35.6926C53.2339 35.6933 53.2333 35.6939 53.2327 35.6945C53.232 35.6951 53.2314 35.6958 53.2308 35.6964C53.2301 35.6971 53.2295 35.6977 53.2289 35.6983C53.2282 35.699 53.2276 35.6996 53.227 35.7002C53.2263 35.7009 53.2257 35.7015 53.225 35.7021C53.2244 35.7028 53.2238 35.7034 53.2231 35.7041C53.2225 35.7047 53.2218 35.7053 53.2212 35.706C53.2206 35.7066 53.2199 35.7073 53.2193 35.7079C53.2186 35.7086 53.218 35.7092 53.2173 35.7098C53.2167 35.7105 53.2161 35.7111 53.2154 35.7118C53.2148 35.7124 53.2141 35.7131 53.2135 35.7137C53.2128 35.7144 53.2122 35.715 53.2115 35.7157C53.2109 35.7163 53.2102 35.717 53.2096 35.7176C53.2089 35.7183 53.2083 35.7189 53.2076 35.7196C53.207 35.7202 53.2063 35.7209 53.2057 35.7215C53.205 35.7222 53.2044 35.7228 53.2037 35.7235C53.2031 35.7241 53.2024 35.7248 53.2018 35.7254C53.2011 35.7261 53.2004 35.7267 53.1998 35.7274C53.1991 35.7281 53.1985 35.7287 53.1978 35.7294C53.1972 35.73 53.1965 35.7307 53.1958 35.7313C53.1952 35.732 53.1945 35.7327 53.1939 35.7333C53.1932 35.734 53.1925 35.7346 53.1919 35.7353C53.1912 35.736 53.1906 35.7366 53.1899 35.7373C53.1892 35.738 53.1886 35.7386 53.1879 35.7393C53.1872 35.7399 53.1866 35.7406 53.1859 35.7413C53.1852 35.7419 53.1846 35.7426 53.1839 35.7433C53.1832 35.7439 53.1826 35.7446 53.1819 35.7453C53.1812 35.7459 53.1806 35.7466 53.1799 35.7473C53.1792 35.748 53.1786 35.7486 53.1779 35.7493C53.1772 35.75 53.1765 35.7506 53.1759 35.7513C53.1752 35.752 53.1745 35.7527 53.1739 35.7533C53.1732 35.754 53.1725 35.7547 53.1718 35.7554C53.1712 35.756 53.1705 35.7567 53.1698 35.7574C53.1691 35.7581 53.1685 35.7587 53.1678 35.7594C53.1671 35.7601 53.1664 35.7608 53.1657 35.7614C53.1651 35.7621 53.1644 35.7628 53.1637 35.7635C53.163 35.7642 53.1623 35.7648 53.1617 35.7655C53.161 35.7662 53.1603 35.7669 53.1596 35.7676C53.1589 35.7683 53.1582 35.7689 53.1576 35.7696C53.1569 35.7703 53.1562 35.771 53.1555 35.7717C53.1548 35.7724 53.1541 35.7731 53.1534 35.7737C53.1528 35.7744 53.1521 35.7751 53.1514 35.7758C53.1507 35.7765 53.15 35.7772 53.1493 35.7779C53.1486 35.7786 53.1479 35.7792 53.1472 35.7799C53.1466 35.7806 53.1459 35.7813 53.1452 35.782C53.1445 35.7827 53.1438 35.7834 53.1431 35.7841C53.1424 35.7848 53.1417 35.7855 53.141 35.7862C53.1403 35.7869 53.1396 35.7876 53.1389 35.7883C53.1382 35.789 53.1375 35.7897 53.1368 35.7904C53.1361 35.7911 53.1354 35.7918 53.1347 35.7925C53.134 35.7931 53.1333 35.7938 53.1326 35.7945C53.1319 35.7952 53.1312 35.796 53.1305 35.7967C53.1298 35.7974 53.1291 35.7981 53.1284 35.7988C53.1277 35.7995 53.127 35.8002 53.1263 35.8009C53.1256 35.8016 53.1249 35.8023 53.1242 35.803C53.1235 35.8037 53.1228 35.8044 53.1221 35.8051C53.1214 35.8058 53.1207 35.8065 53.12 35.8072C53.1193 35.8079 53.1185 35.8086 53.1178 35.8094C53.1171 35.8101 53.1164 35.8108 53.1157 35.8115C53.115 35.8122 53.1143 35.8129 53.1136 35.8136C53.1129 35.8143 53.1121 35.815 53.1114 35.8158C53.1107 35.8165 53.11 35.8172 53.1093 35.8179C53.1086 35.8186 53.1079 35.8193 53.1071 35.8201C53.1064 35.8208 53.1057 35.8215 53.105 35.8222C53.1043 35.8229 53.1035 35.8236 53.1028 35.8244C53.1021 35.8251 53.1014 35.8258 53.1007 35.8265C53.0999 35.8272 53.0992 35.828 53.0985 35.8287C53.0978 35.8294 53.0971 35.8301 53.0963 35.8309C53.0956 35.8316 53.0949 35.8323 53.0942 35.833C53.0934 35.8337 53.0927 35.8345 53.092 35.8352C53.0913 35.8359 53.0905 35.8367 53.0898 35.8374C53.0891 35.8381 53.0884 35.8388 53.0876 35.8396C53.0869 35.8403 53.0862 35.841 53.0854 35.8418C53.0847 35.8425 53.084 35.8432 53.0832 35.8439C53.0825 35.8447 53.0818 35.8454 53.0811 35.8461C53.0803 35.8469 53.0796 35.8476 53.0789 35.8483C53.0781 35.8491 53.0774 35.8498 53.0766 35.8505C53.0759 35.8513 53.0752 35.852 53.0744 35.8527C53.0737 35.8535 53.073 35.8542 53.0722 35.855C53.0715 35.8557 53.0708 35.8564 53.07 35.8572C53.0693 35.8579 53.0685 35.8587 53.0678 35.8594C53.0671 35.8601 53.0663 35.8609 53.0656 35.8616C53.0648 35.8624 53.0641 35.8631 53.0633 35.8638C53.0626 35.8646 53.0619 35.8653 53.0611 35.8661C53.0604 35.8668 53.0596 35.8676 53.0589 35.8683C53.0581 35.8691 53.0574 35.8698 53.0566 35.8706C53.0559 35.8713 53.0551 35.8721 53.0544 35.8728C53.0536 35.8736 53.0529 35.8743 53.0521 35.875C53.0514 35.8758 53.0506 35.8766 53.0499 35.8773C53.0491 35.8781 53.0484 35.8788 53.0476 35.8796C53.0469 35.8803 53.0461 35.8811 53.0454 35.8818C53.0446 35.8826 53.0439 35.8833 53.0431 35.8841C53.0424 35.8848 53.0416 35.8856 53.0408 35.8864C53.0401 35.8871 53.0393 35.8879 53.0386 35.8886C53.0378 35.8894 53.037 35.8901 53.0363 35.8909C53.0355 35.8917 53.0348 35.8924 53.034 35.8932C53.0332 35.8939 53.0325 35.8947 53.0317 35.8955C53.031 35.8962 53.0302 35.897 53.0294 35.8978C53.0287 35.8985 53.0279 35.8993 53.0271 35.9C53.0264 35.9008 53.0256 35.9016 53.0248 35.9023C53.0241 35.9031 53.0233 35.9039 53.0225 35.9046C53.0218 35.9054 53.021 35.9062 53.0202 35.9069C53.0195 35.9077 53.0187 35.9085 53.0179 35.9093C53.0172 35.91 53.0164 35.9108 53.0156 35.9116C53.0149 35.9123 53.0141 35.9131 53.0133 35.9139C53.0125 35.9147 53.0118 35.9154 53.011 35.9162C53.0102 35.917 53.0094 35.9178 53.0087 35.9185C53.0079 35.9193 53.0071 35.9201 53.0063 35.9209C53.0056 35.9216 53.0048 35.9224 53.004 35.9232L55.8324 38.7516ZM56.5004 38.0836C56.3723 38.2118 56.1362 38.3755 55.8017 38.4313L55.1441 34.4857C54.5283 34.5883 54.0345 34.8927 53.672 35.2552L56.5004 38.0836ZM56.0223 38.3815C56.0444 38.3753 56.0097 38.3882 55.9299 38.3882V34.3882C55.5689 34.3882 55.2296 34.448 54.9235 34.5354L56.0223 38.3815ZM55.9299 38.3882C55.9066 38.3882 55.8414 38.384 55.7539 38.3516C55.6639 38.3183 55.5882 38.269 55.5338 38.2196L58.2245 35.2599C57.569 34.664 56.7611 34.3882 55.9299 34.3882V38.3882ZM55.5338 38.2196C55.4601 38.1526 55.3816 38.0518 55.3273 37.9233C55.2744 37.7983 55.2659 37.6984 55.2659 37.6538H59.2659C59.2659 36.7636 58.9337 35.9046 58.2245 35.2599L55.5338 38.2196ZM55.2659 37.6538C55.2659 37.619 55.2734 37.5382 55.3165 37.4387C55.36 37.3383 55.4169 37.2715 55.4523 37.2389L58.1654 40.1781C58.8883 39.5108 59.2659 38.6228 59.2659 37.6538H55.2659ZM55.9144 36.9196C55.6334 37.0602 55.4311 37.2504 55.423 37.2576C55.3548 37.3182 55.29 37.3813 55.2364 37.4349C55.1264 37.5449 54.9941 37.6848 54.847 37.8441L57.7863 40.5572C57.8518 40.4863 57.9081 40.4261 57.9556 40.376C58.0037 40.3254 58.0396 40.2886 58.0648 40.2633C58.0773 40.2509 58.0852 40.2432 58.0891 40.2395C58.0936 40.2352 58.0902 40.2386 58.0804 40.2473C58.0753 40.2518 58.0668 40.2593 58.0553 40.2689C58.0442 40.2782 58.0272 40.2922 58.0052 40.3091C57.9841 40.3253 57.9509 40.3501 57.9081 40.3786C57.8861 40.3933 57.8586 40.4109 57.8263 40.4302C57.7943 40.4492 57.7529 40.4726 57.7033 40.4974L55.9144 36.9196ZM54.9024 37.7865C54.4786 38.2103 54.0848 38.7416 53.7153 39.3222L57.0899 41.4697C57.3767 41.0191 57.5922 40.7536 57.7309 40.6149L54.9024 37.7865ZM53.7385 39.2866C53.3157 39.9208 52.9507 40.6483 52.6316 41.4462L56.3455 42.9317C56.5888 42.3234 56.8332 41.8556 57.0667 41.5054L53.7385 39.2866ZM52.6108 41.5005C52.2625 42.4502 52.1018 43.4601 52.1018 44.5093H56.1018C56.1018 43.8709 56.1989 43.334 56.3663 42.8775L52.6108 41.5005ZM52.1018 44.5093C52.1018 46.1394 52.4615 47.6603 53.297 48.9636L56.6645 46.8049C56.3281 46.2801 56.1018 45.551 56.1018 44.5093H52.1018ZM53.3166 48.9937C54.0916 50.1562 55.0916 51.1081 56.295 51.8419L58.3774 48.4267C57.6589 47.9886 57.0886 47.4405 56.6448 46.7749L53.3166 48.9937ZM56.3258 51.8603C57.4807 52.5363 58.7454 53.0188 60.1057 53.318L60.9651 49.4115C59.9816 49.1951 59.1135 48.8572 58.3465 48.4082L56.3258 51.8603ZM60.1432 53.3259C61.4416 53.5856 62.7449 53.7163 64.051 53.7163V49.7163C63.0134 49.7163 61.9729 49.6126 60.9276 49.4036L60.1432 53.3259ZM64.051 53.7163C66.4495 53.7163 68.7256 53.3287 70.8628 52.5371L69.4736 48.7861C67.814 49.4008 66.0119 49.7163 64.051 49.7163V53.7163ZM70.8554 52.5399C72.9656 51.7678 74.8426 50.7245 76.4634 49.3959L73.9277 46.3023C72.6892 47.3175 71.2146 48.1492 69.481 48.7834L70.8554 52.5399ZM76.4634 49.3959C78.081 48.07 79.3792 46.523 80.3315 44.7544L76.8096 42.858C76.1213 44.1362 75.1695 45.2845 73.9277 46.3023L76.4634 49.3959ZM80.3315 44.7544C81.3023 42.9515 81.801 41.0333 81.801 39.0249H77.801C77.801 40.3446 77.4795 41.6139 76.8096 42.858L80.3315 44.7544ZM81.801 39.0249C81.801 36.7941 81.1637 34.7346 79.9022 32.8997L76.6061 35.1658C77.4071 36.3308 77.801 37.5995 77.801 39.0249H81.801ZM79.9104 32.9116C78.698 31.1206 77.0784 29.6379 75.0995 28.4505L73.0416 31.8805C74.5783 32.8026 75.7478 33.898 76.5979 35.1538L79.9104 32.9116ZM75.1162 28.4607C73.1547 27.2576 70.8948 26.3546 68.3636 25.728L67.4025 29.6108C69.6057 30.1562 71.4708 30.9172 73.0249 31.8704L75.1162 28.4607ZM68.3681 25.7291C65.85 25.0996 63.178 24.7905 60.3596 24.7905V28.7905C62.885 28.7905 65.2286 29.0674 67.398 29.6097L68.3681 25.7291ZM60.3596 24.7905C58.1813 24.7905 55.9148 25.0564 53.5647 25.576L54.428 29.4817C56.531 29.0168 58.5067 28.7905 60.3596 28.7905V24.7905ZM53.5801 25.5726C51.2338 26.0718 48.921 26.8314 46.6432 27.8465L48.2714 31.5001C50.306 30.5934 52.3526 29.9233 54.4126 29.485L53.5801 25.5726ZM46.6432 27.8465C44.3558 28.8659 42.1726 30.1319 40.0946 31.641L42.445 34.8776C44.3044 33.5273 46.2463 32.4026 48.2714 31.5001L46.6432 27.8465ZM40.0854 31.6477C37.9878 33.1893 36.1418 34.9976 34.551 37.0681L37.7229 39.5051C39.0853 37.7319 40.6612 36.1886 42.4542 34.8709L40.0854 31.6477ZM34.5583 37.0587C32.9519 39.124 31.6721 41.4351 30.7143 43.9808L34.4581 45.3893C35.2815 43.2007 36.3689 41.2461 37.7157 39.5145L34.5583 37.0587ZM30.7082 43.9971C29.7515 46.6086 29.2854 49.4344 29.2854 52.4546H33.2854C33.2854 49.8498 33.6865 47.4958 34.4641 45.373L30.7082 43.9971ZM29.2854 52.4546C29.2854 55.1918 29.6621 57.7231 30.4471 60.0257L34.2331 58.735C33.6118 56.9126 33.2854 54.8267 33.2854 52.4546H29.2854ZM30.4537 60.0449C31.2478 62.2991 32.3453 64.3333 33.7534 66.1325L36.9034 63.6673C35.7802 62.2321 34.8855 60.5867 34.2265 58.7159L30.4537 60.0449ZM33.7621 66.1437C35.1505 67.892 36.7708 69.4088 38.6173 70.6911L40.8988 67.4056C39.3703 66.3441 38.0375 65.0954 36.8946 63.6561L33.7621 66.1437ZM38.6279 70.6984C40.4623 71.9548 42.4218 72.9971 44.5035 73.8248L45.9814 70.1078C44.1725 69.3886 42.4757 68.4856 40.8882 67.3983L38.6279 70.6984ZM44.5304 73.8353C46.6209 74.6316 48.7943 75.2273 51.0484 75.6236L51.7411 71.684C49.7296 71.3304 47.8015 70.801 45.9544 70.0973L44.5304 73.8353ZM51.0695 75.6272C53.3072 75.996 55.537 76.1812 57.7581 76.1812V72.1812C55.7603 72.1812 53.748 72.0147 51.7201 71.6804L51.0695 75.6272ZM57.7581 76.1812C60.7565 76.1812 63.6559 75.7685 66.4491 74.9381L65.3092 71.1039C62.8993 71.8204 60.3846 72.1812 57.7581 72.1812V76.1812ZM66.4649 74.9333C69.1995 74.0957 71.7408 73.0067 74.0824 71.6615L72.0899 68.193C70.0254 69.3791 67.762 70.3526 65.2934 71.1087L66.4649 74.9333ZM74.0883 71.6581C76.432 70.3012 78.5244 68.7723 80.3556 67.0665L77.6292 64.1396C76.0386 65.6213 74.1935 66.9752 72.0841 68.1964L74.0883 71.6581ZM80.3556 67.0665C82.1674 65.3788 83.6488 63.6402 84.7679 61.8444L81.3732 59.7288C80.4767 61.1674 79.2394 62.6397 77.6292 64.1396L80.3556 67.0665ZM84.8189 61.7579C84.7831 61.8223 84.7263 61.9019 84.6424 61.9797C84.5578 62.0583 84.4648 62.1173 84.375 62.1572L82.7505 58.502C82.124 58.7804 81.64 59.2434 81.3222 59.8153L84.8189 61.7579ZM84.534 62.0779C84.5008 62.0964 84.4544 62.1168 84.3969 62.1319C84.3391 62.1471 84.2822 62.1538 84.2307 62.1538V58.1538C83.6461 58.1538 83.0904 58.3041 82.5915 58.5813L84.534 62.0779ZM84.2307 62.1538C84.1921 62.1538 84.0878 62.1461 83.9546 62.0869C83.8166 62.0256 83.711 61.9371 83.6435 61.8561L86.7164 59.2953C86.0655 58.5142 85.1632 58.1538 84.2307 58.1538V62.1538ZM83.7001 61.921C83.6733 61.8916 83.6255 61.8288 83.5867 61.7316C83.547 61.6324 83.5315 61.5346 83.5315 61.4546H87.5315C87.5315 60.5963 87.2062 59.8314 86.6598 59.2303L83.7001 61.921ZM83.5315 61.4546C83.5315 61.4375 83.5333 61.4233 83.5352 61.4139L87.4575 62.1984C87.5063 61.9546 87.5315 61.7061 87.5315 61.4546H83.5315ZM83.5352 61.4139C83.5626 61.2766 83.6098 61.1803 83.6407 61.1287L87.0707 63.1867C87.2423 62.9008 87.3832 62.5701 87.4575 62.1984L83.5352 61.4139Z" fill="#E0FBFC"/>
</g>
<defs>
<filter id="filter0_d_114_412" x="24.6135" y="24.1538" width="64.918" height="60.6641" filterUnits="userSpaceOnUse" color-interpolation-filters="sRGB">
<feFlood flood-opacity="0" result="BackgroundImageFix"/>
<feColorMatrix in="SourceAlpha" type="matrix" values="0 0 0 0 0 0 0 0 0 0 0 0 0 0 0 0 0 0 127 0" result="hardAlpha"/>
<feOffset dy="4"/>
<feGaussianBlur stdDeviation="2"/>
<feComposite in2="hardAlpha" operator="out"/>
<feColorMatrix type="matrix" values="0 0 0 0 0 0 0 0 0 0 0 0 0 0 0 0 0 0 0.25 0"/>
<feBlend mode="normal" in2="BackgroundImageFix" result="effect1_dropShadow_114_412"/>
<feBlend mode="normal" in="SourceGraphic" in2="effect1_dropShadow_114_412" result="shape"/>
</filter>
</defs>
</svg>
