<svg width="90" height="114" viewBox="0 0 90 114" fill="none" xmlns="http://www.w3.org/2000/svg">
<path fill-rule="evenodd" clip-rule="evenodd" d="M52.112 23.2494C53.7053 29.8485 52.3941 36.4692 49.0001 41.7671L42.7342 86.3181L16.8313 49.5337C11.3939 46.3679 7.2064 41.0748 5.61317 34.4758C2.5131 21.6354 10.4091 8.71322 23.2494 5.61315C36.0897 2.51308 49.012 10.4091 52.112 23.2494ZM30.7336 36.6124C35.0137 35.579 37.6457 31.2716 36.6124 26.9915C35.579 22.7114 31.2716 20.0794 26.9915 21.1128C22.7114 22.1461 20.0794 26.4535 21.1128 30.7336C22.1461 35.0137 26.4535 37.6458 30.7336 36.6124Z" fill="#A3A3A3"/>
<g filter="url(#filter0_d_101_26)">
<path d="M85.3557 62.0574C84.2542 63.8386 82.7659 65.6082 80.8909 67.366C79.0159 69.1003 76.8713 70.6707 74.4573 72.0769C72.0667 73.4597 69.4534 74.573 66.6174 75.4167C63.7815 76.2839 60.8518 76.7175 57.8284 76.7175C55.4612 76.7175 53.094 76.5066 50.7268 76.0847C48.3831 75.6628 46.1213 75.0183 43.9417 74.1511C41.7854 73.2839 39.7698 72.1941 37.8948 70.8816C36.0432 69.5457 34.426 67.9753 33.0432 66.1707C31.6604 64.366 30.5706 62.3152 29.7737 60.0183C29.0002 57.7214 28.6135 55.1667 28.6135 52.3542C28.6135 49.6121 29.012 47.0105 29.8088 44.5496C30.6292 42.0886 31.7659 39.8152 33.219 37.7292C34.6721 35.6199 36.3948 33.7214 38.387 32.0339C40.3792 30.3464 42.5588 28.9167 44.926 27.7449C47.2932 26.5496 49.7893 25.6355 52.4143 25.0027C55.0393 24.3699 57.7229 24.0535 60.4651 24.0535C63.4885 24.0535 66.3245 24.4167 68.9729 25.1433C71.6448 25.8464 73.9768 26.8542 75.969 28.1667C77.9612 29.4558 79.5315 31.0144 80.6799 32.8425C81.8518 34.6472 82.4377 36.6628 82.4377 38.8894C82.4377 40.9519 81.9573 42.9207 80.9963 44.7957C80.0354 46.6472 78.7112 48.2761 77.0237 49.6824C75.3596 51.0886 73.4026 52.2019 71.1526 53.0222C68.926 53.8425 66.5471 54.2527 64.0159 54.2527C61.9768 54.2527 60.1721 54.0066 58.6018 53.5144C57.0315 52.9988 55.719 52.2957 54.6643 51.405C53.6096 50.5144 52.8127 49.4714 52.2737 48.2761C51.7346 47.0808 51.4651 45.7917 51.4651 44.4089C51.4651 43.2605 51.6409 42.2175 51.9924 41.28C52.3674 40.3191 52.7659 39.4988 53.1877 38.8191C53.6331 38.1394 54.0432 37.6121 54.4182 37.2371C54.8167 36.8386 55.0393 36.616 55.0862 36.5691C55.2034 36.4519 55.3323 36.3816 55.4729 36.3582C55.637 36.3113 55.7893 36.2878 55.9299 36.2878C56.3049 36.2878 56.6213 36.405 56.8792 36.6394C57.137 36.8738 57.2659 37.1785 57.2659 37.5535C57.2659 37.9753 57.1135 38.3269 56.8088 38.6082C56.762 38.6316 56.5979 38.7957 56.3167 39.1003C56.0354 39.3816 55.7307 39.78 55.4026 40.2957C55.0745 40.7878 54.7698 41.3855 54.4885 42.0886C54.2307 42.7917 54.1018 43.5652 54.1018 44.4089C54.1018 45.7449 54.3948 46.8699 54.9807 47.7839C55.5901 48.698 56.3752 49.448 57.3362 50.0339C58.2971 50.5964 59.3635 51.0066 60.5354 51.2644C61.7073 51.4988 62.8792 51.616 64.051 51.616C66.2307 51.616 68.2698 51.2644 70.1682 50.5613C72.0901 49.8582 73.7659 48.9207 75.1956 47.7488C76.6252 46.5769 77.7502 45.2292 78.5706 43.7058C79.3909 42.1824 79.801 40.5886 79.801 38.9246C79.801 37.0964 79.2854 35.4324 78.2542 33.9324C77.2229 32.4089 75.8284 31.1199 74.0706 30.0652C72.3127 28.9871 70.2502 28.155 67.8831 27.5691C65.5393 26.9832 63.0315 26.6902 60.3596 26.6902C58.344 26.6902 56.2229 26.9363 53.9963 27.4285C51.7932 27.8972 49.6135 28.6121 47.4573 29.573C45.301 30.5339 43.2385 31.7292 41.2698 33.1589C39.3245 34.5886 37.6135 36.2644 36.137 38.1863C34.6604 40.0847 33.4768 42.2175 32.5862 44.5847C31.719 46.9519 31.2854 49.5417 31.2854 52.3542C31.2854 54.9089 31.637 57.2175 32.3401 59.28C33.0667 61.3425 34.0627 63.1824 35.3284 64.7996C36.594 66.3933 38.0706 67.7761 39.7581 68.948C41.469 70.1199 43.2971 71.0925 45.2424 71.866C47.2112 72.616 49.262 73.1785 51.3948 73.5535C53.5276 73.905 55.6487 74.0808 57.7581 74.0808C60.5706 74.0808 63.2776 73.6941 65.8792 72.9207C68.4807 72.1238 70.8831 71.0925 73.0862 69.8269C75.3127 68.5378 77.2815 67.0964 78.9924 65.5027C80.7034 63.9089 82.0627 62.3035 83.0706 60.6863C83.1877 60.4753 83.3518 60.323 83.5627 60.2292C83.7737 60.1121 83.9963 60.0535 84.2307 60.0535C84.6292 60.0535 84.9456 60.1941 85.1799 60.4753C85.4143 60.7332 85.5315 61.0261 85.5315 61.3542C85.5315 61.4714 85.5198 61.5886 85.4963 61.7058C85.4729 61.823 85.426 61.9402 85.3557 62.0574Z" fill="black"/>
<path d="M85.3557 62.0574L87.0567 63.1093L87.0638 63.0979L87.0707 63.0864L85.3557 62.0574ZM80.8909 67.366L82.249 68.8342L82.2588 68.825L80.8909 67.366ZM74.4573 72.0769L75.4587 73.8082L75.464 73.8051L74.4573 72.0769ZM66.6174 75.4167L66.0471 73.4998L66.0398 73.502L66.0326 73.5042L66.6174 75.4167ZM50.7268 76.0847L50.3725 78.0531L50.3759 78.0537L50.7268 76.0847ZM43.9417 74.1511L43.1954 76.0067L43.2023 76.0095L43.9417 74.1511ZM37.8948 70.8816L36.7245 72.5035L36.7361 72.5119L36.7479 72.5201L37.8948 70.8816ZM29.7737 60.0183L27.8783 60.6566L27.8812 60.6652L27.8842 60.6739L29.7737 60.0183ZM29.8088 44.5496L27.9115 43.9171L27.9088 43.9253L27.9061 43.9334L29.8088 44.5496ZM33.219 37.7292L34.8601 38.8725L34.866 38.8639L33.219 37.7292ZM44.926 27.7449L45.8133 29.5373L45.8204 29.5337L45.8275 29.5302L44.926 27.7449ZM68.9729 25.1433L68.4438 27.072L68.4538 27.0748L68.4639 27.0775L68.9729 25.1433ZM75.969 28.1667L74.8687 29.8369L74.8756 29.8414L74.8825 29.8459L75.969 28.1667ZM80.6799 32.8425L78.9864 33.9064L78.9944 33.9191L79.0025 33.9317L80.6799 32.8425ZM80.9963 44.7957L82.7715 45.717L82.7762 45.7078L80.9963 44.7957ZM77.0237 49.6824L75.7433 48.1459L75.7328 48.1548L77.0237 49.6824ZM71.1526 53.0222L70.4675 51.1432L70.4612 51.1455L71.1526 53.0222ZM58.6018 53.5144L57.9779 55.4146L57.9907 55.4188L58.0036 55.4229L58.6018 53.5144ZM51.9924 41.28L50.1293 40.5529L50.1244 40.5653L50.1198 40.5778L51.9924 41.28ZM53.1877 38.8191L51.5148 37.723L51.5014 37.7435L51.4885 37.7644L53.1877 38.8191ZM55.4729 36.3582L55.8017 38.3309L55.9134 38.3123L56.0223 38.2812L55.4729 36.3582ZM56.8088 38.6082L57.7033 40.397L57.957 40.2702L58.1654 40.0778L56.8088 38.6082ZM56.3167 39.1003L57.7309 40.5146L57.7591 40.4863L57.7863 40.4569L56.3167 39.1003ZM55.4026 40.2957L57.0667 41.4051L57.0785 41.3874L57.0899 41.3694L55.4026 40.2957ZM54.4885 42.0886L52.6316 41.3458L52.6208 41.3728L52.6108 41.4001L54.4885 42.0886ZM54.9807 47.7839L53.297 48.8633L53.3066 48.8784L53.3166 48.8933L54.9807 47.7839ZM57.3362 50.0339L56.295 51.7415L56.3103 51.7509L56.3258 51.76L57.3362 50.0339ZM60.5354 51.2644L60.1057 53.2177L60.1244 53.2218L60.1432 53.2256L60.5354 51.2644ZM70.1682 50.5613L69.481 48.683L69.4736 48.6858L70.1682 50.5613ZM78.2542 33.9324L76.5979 35.0535L76.602 35.0595L76.6061 35.0654L78.2542 33.9324ZM74.0706 30.0652L73.0249 31.7701L73.0332 31.7752L73.0416 31.7802L74.0706 30.0652ZM67.8831 27.5691L67.398 29.5094L67.4025 29.5105L67.8831 27.5691ZM53.9963 27.4285L54.4126 29.3847L54.4203 29.383L54.428 29.3813L53.9963 27.4285ZM41.2698 33.1589L40.0946 31.5406L40.0854 31.5474L41.2698 33.1589ZM36.137 38.1863L37.7157 39.4142L37.7229 39.4048L36.137 38.1863ZM32.5862 44.5847L30.7143 43.8804L30.7112 43.8886L30.7082 43.8968L32.5862 44.5847ZM32.3401 59.28L30.4471 59.9254L30.4503 59.935L30.4537 59.9445L32.3401 59.28ZM35.3284 64.7996L33.7534 66.0322L33.7577 66.0378L33.7621 66.0433L35.3284 64.7996ZM39.7581 68.948L38.6172 70.5908L38.6279 70.5981L39.7581 68.948ZM45.2424 71.866L44.5035 73.7245L44.5169 73.7298L44.5304 73.7349L45.2424 71.866ZM51.3948 73.5535L51.0484 75.5233L51.059 75.5251L51.0695 75.5268L51.3948 73.5535ZM65.8792 72.9207L66.4491 74.8377L66.457 74.8354L66.4649 74.833L65.8792 72.9207ZM73.0862 69.8269L74.0824 71.5611L74.0883 71.5578L73.0862 69.8269ZM83.0706 60.6863L84.7679 61.7441L84.7945 61.7015L84.8189 61.6576L83.0706 60.6863ZM83.5627 60.2292L84.375 62.0569L84.4563 62.0208L84.534 61.9776L83.5627 60.2292ZM85.1799 60.4753L83.6435 61.7557L83.6711 61.7888L83.7001 61.8207L85.1799 60.4753ZM83.6547 61.0054C82.6639 62.6075 81.2974 64.2434 79.523 65.9069L82.2588 68.825C84.2343 66.9729 85.8444 65.0697 87.0567 63.1093L83.6547 61.0054ZM79.5328 65.8978C77.7745 67.5241 75.75 69.0092 73.4506 70.3487L75.464 73.8051C77.9926 72.3321 80.2572 70.6765 82.249 68.8342L79.5328 65.8978ZM73.4559 70.3457C71.2104 71.6445 68.7432 72.6976 66.0471 73.4998L67.1878 77.3337C70.1635 76.4484 72.9229 75.2749 75.4587 73.8081L73.4559 70.3457ZM66.0326 73.5042C63.3899 74.3123 60.6575 74.7175 57.8284 74.7175V78.7175C61.0461 78.7175 64.1731 78.2556 67.2023 77.3293L66.0326 73.5042ZM57.8284 74.7175C55.5807 74.7175 53.3309 74.5173 51.0777 74.1157L50.3759 78.0537C52.8571 78.4959 55.3417 78.7175 57.8284 78.7175V74.7175ZM51.0811 74.1164C48.8671 73.7178 46.7345 73.1098 44.681 72.2928L43.2023 76.0095C45.5082 76.9269 47.8991 77.6079 50.3725 78.0531L51.0811 74.1164ZM44.6879 72.2956C42.6709 71.4844 40.7899 70.4669 39.0417 69.2431L36.7479 72.5201C38.7496 73.9213 40.9 75.0835 43.1954 76.0067L44.6879 72.2956ZM39.065 69.2597C37.3709 68.0374 35.8945 66.6035 34.6308 64.9542L31.4557 67.3871C32.9576 69.3472 34.7155 71.054 36.7245 72.5035L39.065 69.2597ZM34.6308 64.9542C33.3866 63.3306 32.3949 61.4718 31.6632 59.3628L27.8842 60.6739C28.7462 63.1586 29.9342 65.4014 31.4557 67.3871L34.6308 64.9542ZM31.6691 59.3801C30.975 57.3189 30.6135 54.9838 30.6135 52.3542H26.6135C26.6135 55.3497 27.0255 58.124 27.8783 60.6566L31.6691 59.3801ZM30.6135 52.3542C30.6135 49.8086 30.9829 47.4159 31.7116 45.1657L27.9061 43.9334C27.041 46.6051 26.6135 49.4155 26.6135 52.3542H30.6135ZM31.7062 45.182C32.4672 42.899 33.5186 40.7981 34.8601 38.8725L31.5779 36.586C30.0131 38.8323 28.7911 41.2783 27.9115 43.9171L31.7062 45.182ZM34.866 38.8639C36.2169 36.9029 37.8197 35.1355 39.6797 33.56L37.0943 30.5078C34.9698 32.3074 33.1273 34.3369 31.572 36.5946L34.866 38.8639ZM39.6797 33.56C41.5466 31.9786 43.5899 30.638 45.8133 29.5373L44.0387 25.9525C41.5278 27.1955 39.2117 28.7142 37.0943 30.5078L39.6797 33.56ZM45.8275 29.5302C48.0546 28.4056 50.4052 27.5443 52.883 26.947L51.9456 23.0584C49.1734 23.7267 46.5319 24.6935 44.0245 25.9596L45.8275 29.5302ZM52.883 26.947C55.3521 26.3518 57.8783 26.0535 60.4651 26.0535V22.0535C57.5675 22.0535 54.7265 22.388 51.9456 23.0584L52.883 26.947ZM60.4651 26.0535C63.3276 26.0535 65.9841 26.3973 68.4438 27.072L69.502 23.2146C66.6648 22.4362 63.6495 22.0535 60.4651 22.0535V26.0535ZM68.4639 27.0775C70.9582 27.7339 73.0841 28.6611 74.8687 29.8369L77.0693 26.4966C74.8695 25.0474 72.3313 23.959 69.4819 23.2092L68.4639 27.0775ZM74.8825 29.8459C76.6544 30.9924 78.0078 32.3488 78.9864 33.9064L82.3735 31.7786C81.0551 29.68 79.2679 27.9192 77.0555 26.4876L74.8825 29.8459ZM79.0025 33.9317C79.9563 35.4005 80.4377 37.0353 80.4377 38.8894H84.4377C84.4377 36.2904 83.7473 33.894 82.3573 31.7533L79.0025 33.9317ZM80.4377 38.8894C80.4377 40.6277 80.036 42.2845 79.2165 43.8835L82.7762 45.7078C83.8786 43.5568 84.4377 41.2761 84.4377 38.8894H80.4377ZM79.2212 43.8744C78.3891 45.4777 77.2376 46.9007 75.7433 48.1459L78.3041 51.2188C80.1847 49.6516 81.6817 47.8168 82.7715 45.7169L79.2212 43.8744ZM75.7328 48.1548C74.2654 49.3948 72.5184 50.3955 70.4675 51.1432L71.8376 54.9012C74.2868 54.0083 76.4538 52.7824 78.3146 51.21L75.7328 48.1548ZM70.4612 51.1455C68.4704 51.879 66.327 52.2527 64.0159 52.2527V56.2527C66.7672 56.2527 69.3816 55.8061 71.844 54.8989L70.4612 51.1455ZM64.0159 52.2527C62.1333 52.2527 60.5369 52.025 59.2 51.606L58.0036 55.4229C59.8074 55.9882 61.8204 56.2527 64.0159 56.2527V52.2527ZM59.2257 51.6142C57.8523 51.1632 56.7786 50.5727 55.9547 49.877L53.3739 52.9331C54.6594 54.0186 56.2107 54.8343 57.9779 55.4146L59.2257 51.6142ZM55.9547 49.877C55.1157 49.1685 54.5067 48.3628 54.0969 47.4539L50.4505 49.0983C51.1187 50.5801 52.1035 51.8603 53.3739 52.9331L55.9547 49.877ZM54.0969 47.4539C53.6807 46.5311 53.4651 45.524 53.4651 44.4089H49.4651C49.4651 46.0595 49.7886 47.6306 50.4505 49.0983L54.0969 47.4539ZM53.4651 44.4089C53.4651 43.4655 53.6091 42.6648 53.8651 41.9823L50.1198 40.5778C49.6726 41.7703 49.4651 43.0555 49.4651 44.4089H53.4651ZM53.8556 42.0071C54.1981 41.1293 54.5451 40.4248 54.887 39.8738L51.4885 37.7644C50.9867 38.5728 50.5367 39.5088 50.1293 40.5529L53.8556 42.0071ZM54.8607 39.9151C55.266 39.2964 55.5911 38.8926 55.8324 38.6513L53.004 35.8228C52.4954 36.3315 52.0001 36.9824 51.5148 37.723L54.8607 39.9151ZM55.8324 38.6513C55.8332 38.6505 55.834 38.6497 55.8348 38.6489C55.8355 38.6482 55.8363 38.6474 55.8371 38.6466C55.8379 38.6458 55.8386 38.6451 55.8394 38.6443C55.8402 38.6435 55.841 38.6427 55.8417 38.642C55.8425 38.6412 55.8433 38.6404 55.844 38.6397C55.8448 38.6389 55.8456 38.6381 55.8464 38.6373C55.8471 38.6366 55.8479 38.6358 55.8487 38.635C55.8494 38.6343 55.8502 38.6335 55.851 38.6327C55.8517 38.632 55.8525 38.6312 55.8533 38.6304C55.854 38.6297 55.8548 38.6289 55.8556 38.6281C55.8563 38.6274 55.8571 38.6266 55.8579 38.6258C55.8586 38.6251 55.8594 38.6243 55.8602 38.6235C55.8609 38.6228 55.8617 38.622 55.8624 38.6213C55.8632 38.6205 55.864 38.6197 55.8647 38.619C55.8655 38.6182 55.8662 38.6175 55.867 38.6167C55.8678 38.6159 55.8685 38.6152 55.8693 38.6144C55.87 38.6137 55.8708 38.6129 55.8715 38.6122C55.8723 38.6114 55.873 38.6107 55.8738 38.6099C55.8746 38.6091 55.8753 38.6084 55.8761 38.6076C55.8768 38.6069 55.8776 38.6061 55.8783 38.6054C55.8791 38.6046 55.8798 38.6039 55.8806 38.6031C55.8813 38.6024 55.8821 38.6016 55.8828 38.6009C55.8836 38.6001 55.8843 38.5994 55.8851 38.5986C55.8858 38.5979 55.8866 38.5971 55.8873 38.5964C55.888 38.5957 55.8888 38.5949 55.8895 38.5942C55.8903 38.5934 55.891 38.5927 55.8918 38.5919C55.8925 38.5912 55.8933 38.5904 55.894 38.5897C55.8947 38.589 55.8955 38.5882 55.8962 38.5875C55.897 38.5867 55.8977 38.586 55.8984 38.5853C55.8992 38.5845 55.8999 38.5838 55.9007 38.583C55.9014 38.5823 55.9021 38.5816 55.9029 38.5808C55.9036 38.5801 55.9043 38.5794 55.9051 38.5786C55.9058 38.5779 55.9065 38.5772 55.9073 38.5764C55.908 38.5757 55.9087 38.575 55.9095 38.5742C55.9102 38.5735 55.9109 38.5728 55.9117 38.572C55.9124 38.5713 55.9131 38.5706 55.9139 38.5698C55.9146 38.5691 55.9153 38.5684 55.9161 38.5676C55.9168 38.5669 55.9175 38.5662 55.9182 38.5655C55.919 38.5647 55.9197 38.564 55.9204 38.5633C55.9211 38.5626 55.9219 38.5618 55.9226 38.5611C55.9233 38.5604 55.924 38.5597 55.9248 38.5589C55.9255 38.5582 55.9262 38.5575 55.9269 38.5568C55.9277 38.556 55.9284 38.5553 55.9291 38.5546C55.9298 38.5539 55.9305 38.5532 55.9313 38.5524C55.932 38.5517 55.9327 38.551 55.9334 38.5503C55.9341 38.5496 55.9348 38.5489 55.9356 38.5481C55.9363 38.5474 55.937 38.5467 55.9377 38.546C55.9384 38.5453 55.9391 38.5446 55.9399 38.5438C55.9406 38.5431 55.9413 38.5424 55.942 38.5417C55.9427 38.541 55.9434 38.5403 55.9441 38.5396C55.9448 38.5389 55.9455 38.5382 55.9463 38.5374C55.947 38.5367 55.9477 38.536 55.9484 38.5353C55.9491 38.5346 55.9498 38.5339 55.9505 38.5332C55.9512 38.5325 55.9519 38.5318 55.9526 38.5311C55.9533 38.5304 55.954 38.5297 55.9547 38.529C55.9554 38.5283 55.9562 38.5275 55.9569 38.5268C55.9576 38.5261 55.9583 38.5254 55.959 38.5247C55.9597 38.524 55.9604 38.5233 55.9611 38.5226C55.9618 38.5219 55.9625 38.5212 55.9632 38.5205C55.9639 38.5198 55.9646 38.5191 55.9653 38.5184C55.966 38.5177 55.9667 38.517 55.9674 38.5163C55.968 38.5157 55.9687 38.515 55.9694 38.5143C55.9701 38.5136 55.9708 38.5129 55.9715 38.5122C55.9722 38.5115 55.9729 38.5108 55.9736 38.5101C55.9743 38.5094 55.975 38.5087 55.9757 38.508C55.9764 38.5073 55.9771 38.5066 55.9777 38.506C55.9784 38.5053 55.9791 38.5046 55.9798 38.5039C55.9805 38.5032 55.9812 38.5025 55.9819 38.5018C55.9826 38.5011 55.9833 38.5005 55.9839 38.4998C55.9846 38.4991 55.9853 38.4984 55.986 38.4977C55.9867 38.497 55.9874 38.4963 55.988 38.4957C55.9887 38.495 55.9894 38.4943 55.9901 38.4936C55.9908 38.4929 55.9915 38.4922 55.9921 38.4916C55.9928 38.4909 55.9935 38.4902 55.9942 38.4895C55.9948 38.4889 55.9955 38.4882 55.9962 38.4875C55.9969 38.4868 55.9976 38.4861 55.9982 38.4855C55.9989 38.4848 55.9996 38.4841 56.0003 38.4834C56.0009 38.4828 56.0016 38.4821 56.0023 38.4814C56.003 38.4807 56.0036 38.4801 56.0043 38.4794C56.005 38.4787 56.0056 38.4781 56.0063 38.4774C56.007 38.4767 56.0077 38.476 56.0083 38.4754C56.009 38.4747 56.0097 38.474 56.0103 38.4734C56.011 38.4727 56.0117 38.472 56.0123 38.4714C56.013 38.4707 56.0137 38.47 56.0143 38.4694C56.015 38.4687 56.0157 38.468 56.0163 38.4674C56.017 38.4667 56.0177 38.466 56.0183 38.4654C56.019 38.4647 56.0196 38.4641 56.0203 38.4634C56.021 38.4627 56.0216 38.4621 56.0223 38.4614C56.023 38.4607 56.0236 38.4601 56.0243 38.4594C56.0249 38.4588 56.0256 38.4581 56.0262 38.4575C56.0269 38.4568 56.0276 38.4561 56.0282 38.4555C56.0289 38.4548 56.0295 38.4542 56.0302 38.4535C56.0308 38.4529 56.0315 38.4522 56.0321 38.4516C56.0328 38.4509 56.0335 38.4502 56.0341 38.4496C56.0348 38.4489 56.0354 38.4483 56.0361 38.4476C56.0367 38.447 56.0374 38.4463 56.038 38.4457C56.0387 38.445 56.0393 38.4444 56.04 38.4437C56.0406 38.4431 56.0413 38.4425 56.0419 38.4418C56.0425 38.4412 56.0432 38.4405 56.0438 38.4399C56.0445 38.4392 56.0451 38.4386 56.0458 38.4379C56.0464 38.4373 56.0471 38.4366 56.0477 38.436C56.0483 38.4354 56.049 38.4347 56.0496 38.4341C56.0503 38.4334 56.0509 38.4328 56.0515 38.4322C56.0522 38.4315 56.0528 38.4309 56.0535 38.4302C56.0541 38.4296 56.0547 38.429 56.0554 38.4283C56.056 38.4277 56.0567 38.427 56.0573 38.4264C56.0579 38.4258 56.0586 38.4251 56.0592 38.4245C56.0598 38.4239 56.0605 38.4232 56.0611 38.4226C56.0617 38.422 56.0624 38.4213 56.063 38.4207C56.0636 38.4201 56.0643 38.4194 56.0649 38.4188C56.0655 38.4182 56.0662 38.4175 56.0668 38.4169C56.0674 38.4163 56.068 38.4157 56.0687 38.415C56.0693 38.4144 56.0699 38.4138 56.0705 38.4132C56.0712 38.4125 56.0718 38.4119 56.0724 38.4113C56.0731 38.4106 56.0737 38.41 56.0743 38.4094C56.0749 38.4088 56.0755 38.4082 56.0762 38.4075C56.0768 38.4069 56.0774 38.4063 56.078 38.4057C56.0787 38.405 56.0793 38.4044 56.0799 38.4038C56.0805 38.4032 56.0811 38.4026 56.0818 38.4019C56.0824 38.4013 56.083 38.4007 56.0836 38.4001C56.0842 38.3995 56.0848 38.3989 56.0855 38.3982C56.0861 38.3976 56.0867 38.397 56.0873 38.3964C56.0879 38.3958 56.0885 38.3952 56.0891 38.3946C56.0898 38.3939 56.0904 38.3933 56.091 38.3927C56.0916 38.3921 56.0922 38.3915 56.0928 38.3909C56.0934 38.3903 56.094 38.3897 56.0946 38.3891C56.0953 38.3884 56.0959 38.3878 56.0965 38.3872C56.0971 38.3866 56.0977 38.386 56.0983 38.3854C56.0989 38.3848 56.0995 38.3842 56.1001 38.3836C56.1007 38.383 56.1013 38.3824 56.1019 38.3818C56.1025 38.3812 56.1031 38.3806 56.1037 38.38C56.1043 38.3794 56.1049 38.3788 56.1055 38.3782C56.1061 38.3776 56.1067 38.377 56.1073 38.3764C56.1079 38.3758 56.1085 38.3752 56.1091 38.3746C56.1097 38.374 56.1103 38.3734 56.1109 38.3728C56.1115 38.3722 56.1121 38.3716 56.1127 38.371C56.1133 38.3704 56.1139 38.3698 56.1145 38.3692C56.1151 38.3686 56.1157 38.368 56.1163 38.3674C56.1169 38.3668 56.1175 38.3662 56.1181 38.3656C56.1187 38.365 56.1193 38.3644 56.1198 38.3639C56.1204 38.3633 56.121 38.3627 56.1216 38.3621C56.1222 38.3615 56.1228 38.3609 56.1234 38.3603C56.124 38.3597 56.1246 38.3591 56.1251 38.3586C56.1257 38.358 56.1263 38.3574 56.1269 38.3568C56.1275 38.3562 56.1281 38.3556 56.1286 38.3551C56.1292 38.3545 56.1298 38.3539 56.1304 38.3533C56.131 38.3527 56.1316 38.3521 56.1321 38.3516C56.1327 38.351 56.1333 38.3504 56.1339 38.3498C56.1345 38.3492 56.135 38.3487 56.1356 38.3481C56.1362 38.3475 56.1368 38.3469 56.1374 38.3463C56.1379 38.3458 56.1385 38.3452 56.1391 38.3446C56.1397 38.344 56.1402 38.3435 56.1408 38.3429C56.1414 38.3423 56.142 38.3417 56.1425 38.3412C56.1431 38.3406 56.1437 38.34 56.1442 38.3395C56.1448 38.3389 56.1454 38.3383 56.146 38.3377C56.1465 38.3372 56.1471 38.3366 56.1477 38.336C56.1482 38.3355 56.1488 38.3349 56.1494 38.3343C56.1499 38.3338 56.1505 38.3332 56.1511 38.3326C56.1516 38.3321 56.1522 38.3315 56.1528 38.3309C56.1533 38.3304 56.1539 38.3298 56.1545 38.3292C56.155 38.3287 56.1556 38.3281 56.1562 38.3275C56.1567 38.327 56.1573 38.3264 56.1578 38.3259C56.1584 38.3253 56.159 38.3247 56.1595 38.3242C56.1601 38.3236 56.1606 38.3231 56.1612 38.3225C56.1618 38.3219 56.1623 38.3214 56.1629 38.3208C56.1634 38.3203 56.164 38.3197 56.1645 38.3192C56.1651 38.3186 56.1656 38.3181 56.1662 38.3175C56.1668 38.3169 56.1673 38.3164 56.1679 38.3158C56.1684 38.3153 56.169 38.3147 56.1695 38.3142C56.1701 38.3136 56.1706 38.3131 56.1712 38.3125C56.1717 38.312 56.1723 38.3114 56.1728 38.3109C56.1734 38.3103 56.1739 38.3098 56.1745 38.3092C56.175 38.3087 56.1756 38.3081 56.1761 38.3076C56.1767 38.307 56.1772 38.3065 56.1777 38.306C56.1783 38.3054 56.1788 38.3049 56.1794 38.3043C56.1799 38.3038 56.1805 38.3032 56.181 38.3027C56.1815 38.3022 56.1821 38.3016 56.1826 38.3011C56.1832 38.3005 56.1837 38.3 56.1842 38.2995C56.1848 38.2989 56.1853 38.2984 56.1859 38.2978C56.1864 38.2973 56.1869 38.2968 56.1875 38.2962C56.188 38.2957 56.1885 38.2952 56.1891 38.2946C56.1896 38.2941 56.1902 38.2935 56.1907 38.293C56.1912 38.2925 56.1918 38.2919 56.1923 38.2914C56.1928 38.2909 56.1934 38.2903 56.1939 38.2898C56.1944 38.2893 56.1949 38.2888 56.1955 38.2882C56.196 38.2877 56.1965 38.2872 56.1971 38.2866C56.1976 38.2861 56.1981 38.2856 56.1987 38.2851C56.1992 38.2845 56.1997 38.284 56.2002 38.2835C56.2008 38.2829 56.2013 38.2824 56.2018 38.2819C56.2023 38.2814 56.2029 38.2808 56.2034 38.2803C56.2039 38.2798 56.2044 38.2793 56.2049 38.2788C56.2055 38.2782 56.206 38.2777 56.2065 38.2772C56.207 38.2767 56.2076 38.2761 56.2081 38.2756C56.2086 38.2751 56.2091 38.2746 56.2096 38.2741C56.2101 38.2736 56.2107 38.273 56.2112 38.2725C56.2117 38.272 56.2122 38.2715 56.2127 38.271C56.2132 38.2705 56.2138 38.2699 56.2143 38.2694C56.2148 38.2689 56.2153 38.2684 56.2158 38.2679C56.2163 38.2674 56.2168 38.2669 56.2173 38.2664C56.2179 38.2658 56.2184 38.2653 56.2189 38.2648C56.2194 38.2643 56.2199 38.2638 56.2204 38.2633C56.2209 38.2628 56.2214 38.2623 56.2219 38.2618C56.2224 38.2613 56.2229 38.2608 56.2235 38.2602C56.224 38.2597 56.2245 38.2592 56.225 38.2587C56.2255 38.2582 56.226 38.2577 56.2265 38.2572C56.227 38.2567 56.2275 38.2562 56.228 38.2557C56.2285 38.2552 56.229 38.2547 56.2295 38.2542C56.23 38.2537 56.2305 38.2532 56.231 38.2527C56.2315 38.2522 56.232 38.2517 56.2325 38.2512C56.233 38.2507 56.2335 38.2502 56.234 38.2497C56.2345 38.2492 56.235 38.2487 56.2355 38.2482C56.236 38.2477 56.2365 38.2472 56.2369 38.2468C56.2374 38.2463 56.2379 38.2458 56.2384 38.2453C56.2389 38.2448 56.2394 38.2443 56.2399 38.2438C56.2404 38.2433 56.2409 38.2428 56.2414 38.2423C56.2419 38.2418 56.2424 38.2413 56.2428 38.2409C56.2433 38.2404 56.2438 38.2399 56.2443 38.2394C56.2448 38.2389 56.2453 38.2384 56.2458 38.2379C56.2463 38.2374 56.2467 38.237 56.2472 38.2365C56.2477 38.236 56.2482 38.2355 56.2487 38.235C56.2492 38.2345 56.2496 38.2341 56.2501 38.2336C56.2506 38.2331 56.2511 38.2326 56.2516 38.2321C56.252 38.2317 56.2525 38.2312 56.253 38.2307C56.2535 38.2302 56.254 38.2297 56.2544 38.2293C56.2549 38.2288 56.2554 38.2283 56.2559 38.2278C56.2563 38.2274 56.2568 38.2269 56.2573 38.2264C56.2578 38.2259 56.2582 38.2255 56.2587 38.225C56.2592 38.2245 56.2597 38.224 56.2601 38.2236C56.2606 38.2231 56.2611 38.2226 56.2616 38.2221C56.262 38.2217 56.2625 38.2212 56.263 38.2207C56.2634 38.2203 56.2639 38.2198 56.2644 38.2193C56.2648 38.2189 56.2653 38.2184 56.2658 38.2179C56.2662 38.2175 56.2667 38.217 56.2672 38.2165C56.2676 38.2161 56.2681 38.2156 56.2686 38.2151C56.269 38.2147 56.2695 38.2142 56.27 38.2137C56.2704 38.2133 56.2709 38.2128 56.2713 38.2124C56.2718 38.2119 56.2723 38.2114 56.2727 38.211C56.2732 38.2105 56.2737 38.21 56.2741 38.2096C56.2746 38.2091 56.275 38.2087 56.2755 38.2082C56.2759 38.2078 56.2764 38.2073 56.2769 38.2068C56.2773 38.2064 56.2778 38.2059 56.2782 38.2055C56.2787 38.205 56.2791 38.2046 56.2796 38.2041C56.28 38.2037 56.2805 38.2032 56.2809 38.2028C56.2814 38.2023 56.2819 38.2018 56.2823 38.2014C56.2828 38.2009 56.2832 38.2005 56.2837 38.2C56.2841 38.1996 56.2846 38.1991 56.285 38.1987C56.2854 38.1983 56.2859 38.1978 56.2863 38.1974C56.2868 38.1969 56.2872 38.1965 56.2877 38.196C56.2881 38.1956 56.2886 38.1951 56.289 38.1947C56.2895 38.1942 56.2899 38.1938 56.2903 38.1934C56.2908 38.1929 56.2912 38.1925 56.2917 38.192C56.2921 38.1916 56.2926 38.1911 56.293 38.1907C56.2934 38.1903 56.2939 38.1898 56.2943 38.1894C56.2948 38.1889 56.2952 38.1885 56.2956 38.1881C56.2961 38.1876 56.2965 38.1872 56.2969 38.1868C56.2974 38.1863 56.2978 38.1859 56.2982 38.1855C56.2987 38.185 56.2991 38.1846 56.2995 38.1842C56.3 38.1837 56.3004 38.1833 56.3008 38.1829C56.3013 38.1824 56.3017 38.182 56.3021 38.1816C56.3026 38.1811 56.303 38.1807 56.3034 38.1803C56.3039 38.1798 56.3043 38.1794 56.3047 38.179C56.3051 38.1786 56.3056 38.1781 56.306 38.1777C56.3064 38.1773 56.3069 38.1768 56.3073 38.1764C56.3077 38.176 56.3081 38.1756 56.3086 38.1751C56.309 38.1747 56.3094 38.1743 56.3098 38.1739C56.3102 38.1735 56.3107 38.173 56.3111 38.1726C56.3115 38.1722 56.3119 38.1718 56.3124 38.1713C56.3128 38.1709 56.3132 38.1705 56.3136 38.1701C56.314 38.1697 56.3144 38.1693 56.3149 38.1688C56.3153 38.1684 56.3157 38.168 56.3161 38.1676C56.3165 38.1672 56.3169 38.1668 56.3174 38.1663C56.3178 38.1659 56.3182 38.1655 56.3186 38.1651C56.319 38.1647 56.3194 38.1643 56.3198 38.1639C56.3203 38.1634 56.3207 38.163 56.3211 38.1626C56.3215 38.1622 56.3219 38.1618 56.3223 38.1614C56.3227 38.161 56.3231 38.1606 56.3235 38.1602C56.3239 38.1598 56.3244 38.1594 56.3248 38.1589C56.3252 38.1585 56.3256 38.1581 56.326 38.1577C56.3264 38.1573 56.3268 38.1569 56.3272 38.1565C56.3276 38.1561 56.328 38.1557 56.3284 38.1553C56.3288 38.1549 56.3292 38.1545 56.3296 38.1541C56.33 38.1537 56.3304 38.1533 56.3308 38.1529C56.3312 38.1525 56.3316 38.1521 56.332 38.1517C56.3324 38.1513 56.3328 38.1509 56.3332 38.1505C56.3336 38.1501 56.334 38.1497 56.3344 38.1493C56.3348 38.1489 56.3352 38.1485 56.3356 38.1481C56.336 38.1477 56.3364 38.1473 56.3368 38.1469C56.3372 38.1466 56.3375 38.1462 56.3379 38.1458C56.3383 38.1454 56.3387 38.145 56.3391 38.1446C56.3395 38.1442 56.3399 38.1438 56.3403 38.1434C56.3407 38.143 56.3411 38.1426 56.3414 38.1423C56.3418 38.1419 56.3422 38.1415 56.3426 38.1411C56.343 38.1407 56.3434 38.1403 56.3438 38.1399C56.3441 38.1396 56.3445 38.1392 56.3449 38.1388C56.3453 38.1384 56.3457 38.138 56.3461 38.1376C56.3465 38.1373 56.3468 38.1369 56.3472 38.1365C56.3476 38.1361 56.348 38.1357 56.3484 38.1353C56.3487 38.135 56.3491 38.1346 56.3495 38.1342C56.3499 38.1338 56.3502 38.1335 56.3506 38.1331C56.351 38.1327 56.3514 38.1323 56.3518 38.1319C56.3521 38.1316 56.3525 38.1312 56.3529 38.1308C56.3533 38.1304 56.3536 38.1301 56.354 38.1297C56.3544 38.1293 56.3547 38.129 56.3551 38.1286C56.3555 38.1282 56.3559 38.1278 56.3562 38.1275C56.3566 38.1271 56.357 38.1267 56.3573 38.1264C56.3577 38.126 56.3581 38.1256 56.3584 38.1253C56.3588 38.1249 56.3592 38.1245 56.3596 38.1242C56.3599 38.1238 56.3603 38.1234 56.3606 38.1231C56.361 38.1227 56.3614 38.1223 56.3617 38.122C56.3621 38.1216 56.3625 38.1212 56.3628 38.1209C56.3632 38.1205 56.3636 38.1201 56.3639 38.1198C56.3643 38.1194 56.3646 38.1191 56.365 38.1187C56.3654 38.1183 56.3657 38.118 56.3661 38.1176C56.3664 38.1173 56.3668 38.1169 56.3671 38.1166C56.3675 38.1162 56.3679 38.1158 56.3682 38.1155C56.3686 38.1151 56.3689 38.1148 56.3693 38.1144C56.3696 38.1141 56.37 38.1137 56.3703 38.1134C56.3707 38.113 56.371 38.1127 56.3714 38.1123C56.3718 38.1119 56.3721 38.1116 56.3725 38.1112C56.3728 38.1109 56.3732 38.1105 56.3735 38.1102C56.3739 38.1098 56.3742 38.1095 56.3745 38.1092C56.3749 38.1088 56.3752 38.1085 56.3756 38.1081C56.3759 38.1078 56.3763 38.1074 56.3766 38.1071C56.377 38.1067 56.3773 38.1064 56.3777 38.106C56.378 38.1057 56.3783 38.1054 56.3787 38.105C56.379 38.1047 56.3794 38.1043 56.3797 38.104C56.3801 38.1036 56.3804 38.1033 56.3807 38.103C56.3811 38.1026 56.3814 38.1023 56.3818 38.1019C56.3821 38.1016 56.3824 38.1013 56.3828 38.1009C56.3831 38.1006 56.3834 38.1003 56.3838 38.0999C56.3841 38.0996 56.3844 38.0993 56.3848 38.0989C56.3851 38.0986 56.3854 38.0983 56.3858 38.0979C56.3861 38.0976 56.3864 38.0973 56.3868 38.0969C56.3871 38.0966 56.3874 38.0963 56.3878 38.0959C56.3881 38.0956 56.3884 38.0953 56.3888 38.0949C56.3891 38.0946 56.3894 38.0943 56.3897 38.094C56.3901 38.0936 56.3904 38.0933 56.3907 38.093C56.391 38.0927 56.3914 38.0923 56.3917 38.092C56.392 38.0917 56.3923 38.0914 56.3927 38.091C56.393 38.0907 56.3933 38.0904 56.3936 38.0901C56.394 38.0897 56.3943 38.0894 56.3946 38.0891C56.3949 38.0888 56.3952 38.0885 56.3956 38.0881C56.3959 38.0878 56.3962 38.0875 56.3965 38.0872C56.3968 38.0869 56.3972 38.0865 56.3975 38.0862C56.3978 38.0859 56.3981 38.0856 56.3984 38.0853C56.3987 38.085 56.3991 38.0846 56.3994 38.0843C56.3997 38.084 56.4 38.0837 56.4003 38.0834C56.4006 38.0831 56.4009 38.0828 56.4012 38.0825C56.4016 38.0821 56.4019 38.0818 56.4022 38.0815C56.4025 38.0812 56.4028 38.0809 56.4031 38.0806C56.4034 38.0803 56.4037 38.08 56.404 38.0797C56.4043 38.0794 56.4046 38.0791 56.405 38.0787C56.4053 38.0784 56.4056 38.0781 56.4059 38.0778C56.4062 38.0775 56.4065 38.0772 56.4068 38.0769C56.4071 38.0766 56.4074 38.0763 56.4077 38.076C56.408 38.0757 56.4083 38.0754 56.4086 38.0751C56.4089 38.0748 56.4092 38.0745 56.4095 38.0742C56.4098 38.0739 56.4101 38.0736 56.4104 38.0733C56.4107 38.073 56.411 38.0727 56.4113 38.0724C56.4116 38.0721 56.4119 38.0718 56.4122 38.0715C56.4125 38.0712 56.4128 38.0709 56.4131 38.0706C56.4133 38.0704 56.4136 38.0701 56.4139 38.0698C56.4142 38.0695 56.4145 38.0692 56.4148 38.0689C56.4151 38.0686 56.4154 38.0683 56.4157 38.068C56.416 38.0677 56.4163 38.0674 56.4166 38.0672C56.4168 38.0669 56.4171 38.0666 56.4174 38.0663C56.4177 38.066 56.418 38.0657 56.4183 38.0654C56.4186 38.0651 56.4188 38.0649 56.4191 38.0646C56.4194 38.0643 56.4197 38.064 56.42 38.0637C56.4203 38.0634 56.4205 38.0632 56.4208 38.0629C56.4211 38.0626 56.4214 38.0623 56.4217 38.062C56.422 38.0617 56.4222 38.0615 56.4225 38.0612C56.4228 38.0609 56.4231 38.0606 56.4234 38.0604C56.4236 38.0601 56.4239 38.0598 56.4242 38.0595C56.4245 38.0592 56.4247 38.059 56.425 38.0587C56.4253 38.0584 56.4256 38.0581 56.4258 38.0579C56.4261 38.0576 56.4264 38.0573 56.4267 38.057C56.4269 38.0568 56.4272 38.0565 56.4275 38.0562C56.4277 38.056 56.428 38.0557 56.4283 38.0554C56.4286 38.0551 56.4288 38.0549 56.4291 38.0546C56.4294 38.0543 56.4296 38.0541 56.4299 38.0538C56.4302 38.0535 56.4304 38.0533 56.4307 38.053C56.431 38.0527 56.4312 38.0525 56.4315 38.0522C56.4318 38.0519 56.432 38.0517 56.4323 38.0514C56.4325 38.0512 56.4328 38.0509 56.4331 38.0506C56.4333 38.0504 56.4336 38.0501 56.4339 38.0498C56.4341 38.0496 56.4344 38.0493 56.4346 38.0491C56.4349 38.0488 56.4351 38.0486 56.4354 38.0483C56.4357 38.048 56.4359 38.0478 56.4362 38.0475C56.4364 38.0473 56.4367 38.047 56.4369 38.0468C56.4372 38.0465 56.4375 38.0462 56.4377 38.046C56.438 38.0457 56.4382 38.0455 56.4385 38.0452C56.4387 38.045 56.439 38.0447 56.4392 38.0445C56.4395 38.0442 56.4397 38.044 56.44 38.0437C56.4402 38.0435 56.4405 38.0432 56.4407 38.043C56.441 38.0427 56.4412 38.0425 56.4415 38.0422C56.4417 38.042 56.442 38.0417 56.4422 38.0415C56.4425 38.0412 56.4427 38.041 56.4429 38.0408C56.4432 38.0405 56.4434 38.0403 56.4437 38.04C56.4439 38.0398 56.4442 38.0395 56.4444 38.0393C56.4446 38.0391 56.4449 38.0388 56.4451 38.0386C56.4454 38.0383 56.4456 38.0381 56.4458 38.0379C56.4461 38.0376 56.4463 38.0374 56.4466 38.0371C56.4468 38.0369 56.447 38.0367 56.4473 38.0364C56.4475 38.0362 56.4477 38.036 56.448 38.0357C56.4482 38.0355 56.4484 38.0353 56.4487 38.035C56.4489 38.0348 56.4491 38.0346 56.4494 38.0343C56.4496 38.0341 56.4498 38.0339 56.4501 38.0336C56.4503 38.0334 56.4505 38.0332 56.4508 38.0329C56.451 38.0327 56.4512 38.0325 56.4515 38.0322C56.4517 38.032 56.4519 38.0318 56.4521 38.0316C56.4524 38.0313 56.4526 38.0311 56.4528 38.0309C56.453 38.0307 56.4533 38.0304 56.4535 38.0302C56.4537 38.03 56.4539 38.0298 56.4542 38.0295C56.4544 38.0293 56.4546 38.0291 56.4548 38.0289C56.455 38.0287 56.4553 38.0284 56.4555 38.0282C56.4557 38.028 56.4559 38.0278 56.4561 38.0276C56.4564 38.0273 56.4566 38.0271 56.4568 38.0269C56.457 38.0267 56.4572 38.0265 56.4575 38.0262C56.4577 38.026 56.4579 38.0258 56.4581 38.0256C56.4583 38.0254 56.4585 38.0252 56.4587 38.025C56.459 38.0247 56.4592 38.0245 56.4594 38.0243C56.4596 38.0241 56.4598 38.0239 56.46 38.0237C56.4602 38.0235 56.4604 38.0233 56.4606 38.0231C56.4609 38.0228 56.4611 38.0226 56.4613 38.0224C56.4615 38.0222 56.4617 38.022 56.4619 38.0218C56.4621 38.0216 56.4623 38.0214 56.4625 38.0212C56.4627 38.021 56.4629 38.0208 56.4631 38.0206C56.4633 38.0204 56.4635 38.0202 56.4637 38.02C56.4639 38.0198 56.4641 38.0196 56.4643 38.0194C56.4645 38.0192 56.4647 38.019 56.4649 38.0188C56.4651 38.0186 56.4653 38.0184 56.4655 38.0182C56.4657 38.018 56.4659 38.0178 56.4661 38.0176C56.4663 38.0174 56.4665 38.0172 56.4667 38.017C56.4669 38.0168 56.4671 38.0166 56.4673 38.0164C56.4675 38.0162 56.4677 38.016 56.4679 38.0158C56.4681 38.0156 56.4683 38.0154 56.4685 38.0152C56.4687 38.015 56.4689 38.0148 56.4691 38.0146C56.4692 38.0145 56.4694 38.0143 56.4696 38.0141C56.4698 38.0139 56.47 38.0137 56.4702 38.0135C56.4704 38.0133 56.4706 38.0131 56.4708 38.0129C56.4709 38.0128 56.4711 38.0126 56.4713 38.0124C56.4715 38.0122 56.4717 38.012 56.4719 38.0118C56.4721 38.0117 56.4722 38.0115 56.4724 38.0113C56.4726 38.0111 56.4728 38.0109 56.473 38.0107C56.4731 38.0106 56.4733 38.0104 56.4735 38.0102C56.4737 38.01 56.4739 38.0098 56.474 38.0097C56.4742 38.0095 56.4744 38.0093 56.4746 38.0091C56.4748 38.0089 56.4749 38.0088 56.4751 38.0086C56.4753 38.0084 56.4755 38.0082 56.4756 38.0081C56.4758 38.0079 56.476 38.0077 56.4762 38.0075C56.4763 38.0074 56.4765 38.0072 56.4767 38.007C56.4768 38.0069 56.477 38.0067 56.4772 38.0065C56.4774 38.0063 56.4775 38.0062 56.4777 38.006C56.4779 38.0058 56.478 38.0057 56.4782 38.0055C56.4784 38.0053 56.4785 38.0052 56.4787 38.005C56.4789 38.0048 56.479 38.0047 56.4792 38.0045C56.4794 38.0043 56.4795 38.0042 56.4797 38.004C56.4799 38.0038 56.48 38.0037 56.4802 38.0035C56.4804 38.0034 56.4805 38.0032 56.4807 38.003C56.4808 38.0029 56.481 38.0027 56.4812 38.0025C56.4813 38.0024 56.4815 38.0022 56.4816 38.0021C56.4818 38.0019 56.4819 38.0018 56.4821 38.0016C56.4823 38.0014 56.4824 38.0013 56.4826 38.0011C56.4827 38.001 56.4829 38.0008 56.483 38.0007C56.4832 38.0005 56.4834 38.0003 56.4835 38.0002C56.4837 38 56.4838 37.9999 56.484 37.9997C56.4841 37.9996 56.4843 37.9994 56.4844 37.9993C56.4846 37.9991 56.4847 37.999 56.4849 37.9988C56.485 37.9987 56.4852 37.9985 56.4853 37.9984C56.4855 37.9982 56.4856 37.9981 56.4858 37.9979C56.4859 37.9978 56.486 37.9977 56.4862 37.9975C56.4863 37.9974 56.4865 37.9972 56.4866 37.9971C56.4868 37.9969 56.4869 37.9968 56.4871 37.9966C56.4872 37.9965 56.4873 37.9964 56.4875 37.9962C56.4876 37.9961 56.4878 37.9959 56.4879 37.9958C56.488 37.9957 56.4882 37.9955 56.4883 37.9954C56.4885 37.9952 56.4886 37.9951 56.4887 37.995C56.4889 37.9948 56.489 37.9947 56.4891 37.9946C56.4893 37.9944 56.4894 37.9943 56.4895 37.9942C56.4897 37.994 56.4898 37.9939 56.4899 37.9938C56.4901 37.9936 56.4902 37.9935 56.4903 37.9934C56.4905 37.9932 56.4906 37.9931 56.4907 37.993C56.4909 37.9928 56.491 37.9927 56.4911 37.9926C56.4913 37.9924 56.4914 37.9923 56.4915 37.9922C56.4916 37.9921 56.4918 37.9919 56.4919 37.9918C56.492 37.9917 56.4921 37.9916 56.4923 37.9914C56.4924 37.9913 56.4925 37.9912 56.4926 37.9911C56.4928 37.9909 56.4929 37.9908 56.493 37.9907C56.4931 37.9906 56.4933 37.9904 56.4934 37.9903C56.4935 37.9902 56.4936 37.9901 56.4937 37.99C56.4939 37.9898 56.494 37.9897 56.4941 37.9896C56.4942 37.9895 56.4943 37.9894 56.4945 37.9893C56.4946 37.9891 56.4947 37.989 56.4948 37.9889C56.4949 37.9888 56.495 37.9887 56.4951 37.9886C56.4953 37.9884 56.4954 37.9883 56.4955 37.9882C56.4956 37.9881 56.4957 37.988 56.4958 37.9879C56.4959 37.9878 56.496 37.9877 56.4962 37.9875C56.4963 37.9874 56.4964 37.9873 56.4965 37.9872C56.4966 37.9871 56.4967 37.987 56.4968 37.9869C56.4969 37.9868 56.497 37.9867 56.4971 37.9866C56.4972 37.9865 56.4973 37.9864 56.4974 37.9863C56.4976 37.9861 56.4977 37.986 56.4978 37.9859C56.4979 37.9858 56.498 37.9857 56.4981 37.9856C56.4982 37.9855 56.4983 37.9854 56.4984 37.9853C56.4985 37.9852 56.4986 37.9851 56.4987 37.985C56.4988 37.9849 56.4989 37.9848 56.499 37.9847C56.4991 37.9846 56.4992 37.9845 56.4993 37.9844C56.4994 37.9843 56.4995 37.9842 56.4996 37.9841C56.4996 37.9841 56.4997 37.984 56.4998 37.9839C56.4999 37.9838 56.5 37.9837 56.5001 37.9836C56.5002 37.9835 56.5003 37.9834 56.5004 37.9833L53.672 35.1549C53.6719 35.155 53.6718 35.1551 53.6717 35.1552C53.6716 35.1552 53.6715 35.1553 53.6714 35.1554C53.6713 35.1555 53.6712 35.1556 53.6711 35.1557C53.671 35.1558 53.6709 35.1559 53.6708 35.156C53.6707 35.1561 53.6706 35.1562 53.6705 35.1563C53.6704 35.1564 53.6703 35.1565 53.6702 35.1566C53.6701 35.1567 53.67 35.1568 53.6699 35.1569C53.6698 35.157 53.6697 35.1571 53.6696 35.1572C53.6695 35.1573 53.6694 35.1574 53.6693 35.1575C53.6692 35.1576 53.6691 35.1577 53.669 35.1578C53.6689 35.1579 53.6688 35.158 53.6687 35.1581C53.6686 35.1582 53.6685 35.1584 53.6684 35.1585C53.6683 35.1586 53.6682 35.1587 53.6681 35.1588C53.6679 35.1589 53.6678 35.159 53.6677 35.1591C53.6676 35.1592 53.6675 35.1593 53.6674 35.1595C53.6673 35.1596 53.6672 35.1597 53.6671 35.1598C53.6669 35.1599 53.6668 35.16 53.6667 35.1601C53.6666 35.1602 53.6665 35.1604 53.6664 35.1605C53.6663 35.1606 53.6661 35.1607 53.666 35.1608C53.6659 35.1609 53.6658 35.1611 53.6657 35.1612C53.6656 35.1613 53.6654 35.1614 53.6653 35.1615C53.6652 35.1617 53.6651 35.1618 53.665 35.1619C53.6648 35.162 53.6647 35.1621 53.6646 35.1623C53.6645 35.1624 53.6643 35.1625 53.6642 35.1626C53.6641 35.1628 53.664 35.1629 53.6638 35.163C53.6637 35.1631 53.6636 35.1633 53.6635 35.1634C53.6633 35.1635 53.6632 35.1636 53.6631 35.1638C53.663 35.1639 53.6628 35.164 53.6627 35.1641C53.6626 35.1643 53.6624 35.1644 53.6623 35.1645C53.6622 35.1647 53.662 35.1648 53.6619 35.1649C53.6618 35.1651 53.6617 35.1652 53.6615 35.1653C53.6614 35.1655 53.6613 35.1656 53.6611 35.1657C53.661 35.1659 53.6608 35.166 53.6607 35.1661C53.6606 35.1663 53.6604 35.1664 53.6603 35.1665C53.6602 35.1667 53.66 35.1668 53.6599 35.167C53.6598 35.1671 53.6596 35.1672 53.6595 35.1674C53.6593 35.1675 53.6592 35.1677 53.6591 35.1678C53.6589 35.1679 53.6588 35.1681 53.6586 35.1682C53.6585 35.1684 53.6583 35.1685 53.6582 35.1686C53.6581 35.1688 53.6579 35.1689 53.6578 35.1691C53.6576 35.1692 53.6575 35.1694 53.6573 35.1695C53.6572 35.1697 53.657 35.1698 53.6569 35.17C53.6567 35.1701 53.6566 35.1703 53.6564 35.1704C53.6563 35.1706 53.6561 35.1707 53.656 35.1709C53.6558 35.171 53.6557 35.1712 53.6555 35.1713C53.6554 35.1715 53.6552 35.1716 53.6551 35.1718C53.6549 35.1719 53.6548 35.1721 53.6546 35.1722C53.6545 35.1724 53.6543 35.1725 53.6541 35.1727C53.654 35.1729 53.6538 35.173 53.6537 35.1732C53.6535 35.1733 53.6534 35.1735 53.6532 35.1736C53.653 35.1738 53.6529 35.174 53.6527 35.1741C53.6526 35.1743 53.6524 35.1744 53.6522 35.1746C53.6521 35.1748 53.6519 35.1749 53.6518 35.1751C53.6516 35.1752 53.6514 35.1754 53.6513 35.1756C53.6511 35.1757 53.6509 35.1759 53.6508 35.1761C53.6506 35.1762 53.6504 35.1764 53.6503 35.1766C53.6501 35.1767 53.6499 35.1769 53.6498 35.1771C53.6496 35.1772 53.6494 35.1774 53.6493 35.1776C53.6491 35.1777 53.6489 35.1779 53.6488 35.1781C53.6486 35.1783 53.6484 35.1784 53.6482 35.1786C53.6481 35.1788 53.6479 35.1789 53.6477 35.1791C53.6476 35.1793 53.6474 35.1795 53.6472 35.1796C53.647 35.1798 53.6469 35.18 53.6467 35.1802C53.6465 35.1803 53.6463 35.1805 53.6462 35.1807C53.646 35.1809 53.6458 35.1811 53.6456 35.1812C53.6454 35.1814 53.6453 35.1816 53.6451 35.1818C53.6449 35.1819 53.6447 35.1821 53.6445 35.1823C53.6444 35.1825 53.6442 35.1827 53.644 35.1829C53.6438 35.183 53.6436 35.1832 53.6434 35.1834C53.6433 35.1836 53.6431 35.1838 53.6429 35.184C53.6427 35.1841 53.6425 35.1843 53.6423 35.1845C53.6421 35.1847 53.642 35.1849 53.6418 35.1851C53.6416 35.1853 53.6414 35.1855 53.6412 35.1856C53.641 35.1858 53.6408 35.186 53.6406 35.1862C53.6404 35.1864 53.6402 35.1866 53.6401 35.1868C53.6399 35.187 53.6397 35.1872 53.6395 35.1874C53.6393 35.1876 53.6391 35.1878 53.6389 35.188C53.6387 35.1881 53.6385 35.1883 53.6383 35.1885C53.6381 35.1887 53.6379 35.1889 53.6377 35.1891C53.6375 35.1893 53.6373 35.1895 53.6371 35.1897C53.6369 35.1899 53.6367 35.1901 53.6365 35.1903C53.6363 35.1905 53.6361 35.1907 53.6359 35.1909C53.6357 35.1911 53.6355 35.1913 53.6353 35.1915C53.6351 35.1917 53.6349 35.1919 53.6347 35.1921C53.6345 35.1923 53.6343 35.1926 53.6341 35.1928C53.6339 35.193 53.6337 35.1932 53.6335 35.1934C53.6333 35.1936 53.6331 35.1938 53.6328 35.194C53.6326 35.1942 53.6324 35.1944 53.6322 35.1946C53.632 35.1948 53.6318 35.195 53.6316 35.1953C53.6314 35.1955 53.6312 35.1957 53.631 35.1959C53.6307 35.1961 53.6305 35.1963 53.6303 35.1965C53.6301 35.1967 53.6299 35.197 53.6297 35.1972C53.6295 35.1974 53.6292 35.1976 53.629 35.1978C53.6288 35.198 53.6286 35.1983 53.6284 35.1985C53.6282 35.1987 53.6279 35.1989 53.6277 35.1991C53.6275 35.1993 53.6273 35.1996 53.6271 35.1998C53.6268 35.2 53.6266 35.2002 53.6264 35.2004C53.6262 35.2007 53.626 35.2009 53.6257 35.2011C53.6255 35.2013 53.6253 35.2016 53.6251 35.2018C53.6248 35.202 53.6246 35.2022 53.6244 35.2025C53.6242 35.2027 53.6239 35.2029 53.6237 35.2031C53.6235 35.2034 53.6233 35.2036 53.623 35.2038C53.6228 35.2041 53.6226 35.2043 53.6223 35.2045C53.6221 35.2047 53.6219 35.205 53.6216 35.2052C53.6214 35.2054 53.6212 35.2057 53.621 35.2059C53.6207 35.2061 53.6205 35.2064 53.6203 35.2066C53.62 35.2068 53.6198 35.2071 53.6195 35.2073C53.6193 35.2075 53.6191 35.2078 53.6188 35.208C53.6186 35.2082 53.6184 35.2085 53.6181 35.2087C53.6179 35.209 53.6177 35.2092 53.6174 35.2094C53.6172 35.2097 53.6169 35.2099 53.6167 35.2102C53.6165 35.2104 53.6162 35.2106 53.616 35.2109C53.6157 35.2111 53.6155 35.2114 53.6152 35.2116C53.615 35.2118 53.6148 35.2121 53.6145 35.2123C53.6143 35.2126 53.614 35.2128 53.6138 35.2131C53.6135 35.2133 53.6133 35.2136 53.613 35.2138C53.6128 35.2141 53.6125 35.2143 53.6123 35.2146C53.612 35.2148 53.6118 35.215 53.6115 35.2153C53.6113 35.2155 53.611 35.2158 53.6108 35.216C53.6105 35.2163 53.6103 35.2166 53.61 35.2168C53.6098 35.2171 53.6095 35.2173 53.6093 35.2176C53.609 35.2178 53.6088 35.2181 53.6085 35.2183C53.6083 35.2186 53.608 35.2188 53.6078 35.2191C53.6075 35.2194 53.6072 35.2196 53.607 35.2199C53.6067 35.2201 53.6065 35.2204 53.6062 35.2206C53.6059 35.2209 53.6057 35.2212 53.6054 35.2214C53.6052 35.2217 53.6049 35.2219 53.6046 35.2222C53.6044 35.2225 53.6041 35.2227 53.6039 35.223C53.6036 35.2233 53.6033 35.2235 53.6031 35.2238C53.6028 35.224 53.6025 35.2243 53.6023 35.2246C53.602 35.2248 53.6017 35.2251 53.6015 35.2254C53.6012 35.2256 53.6009 35.2259 53.6007 35.2262C53.6004 35.2265 53.6001 35.2267 53.5999 35.227C53.5996 35.2273 53.5993 35.2275 53.599 35.2278C53.5988 35.2281 53.5985 35.2283 53.5982 35.2286C53.598 35.2289 53.5977 35.2292 53.5974 35.2294C53.5971 35.2297 53.5969 35.23 53.5966 35.2303C53.5963 35.2305 53.596 35.2308 53.5958 35.2311C53.5955 35.2314 53.5952 35.2316 53.5949 35.2319C53.5946 35.2322 53.5944 35.2325 53.5941 35.2328C53.5938 35.233 53.5935 35.2333 53.5932 35.2336C53.593 35.2339 53.5927 35.2342 53.5924 35.2344C53.5921 35.2347 53.5918 35.235 53.5916 35.2353C53.5913 35.2356 53.591 35.2359 53.5907 35.2361C53.5904 35.2364 53.5901 35.2367 53.5898 35.237C53.5896 35.2373 53.5893 35.2376 53.589 35.2379C53.5887 35.2381 53.5884 35.2384 53.5881 35.2387C53.5878 35.239 53.5875 35.2393 53.5873 35.2396C53.587 35.2399 53.5867 35.2402 53.5864 35.2405C53.5861 35.2408 53.5858 35.241 53.5855 35.2413C53.5852 35.2416 53.5849 35.2419 53.5846 35.2422C53.5843 35.2425 53.584 35.2428 53.5837 35.2431C53.5834 35.2434 53.5832 35.2437 53.5829 35.244C53.5826 35.2443 53.5823 35.2446 53.582 35.2449C53.5817 35.2452 53.5814 35.2455 53.5811 35.2458C53.5808 35.2461 53.5805 35.2464 53.5802 35.2467C53.5799 35.247 53.5796 35.2473 53.5793 35.2476C53.579 35.2479 53.5787 35.2482 53.5784 35.2485C53.578 35.2488 53.5777 35.2491 53.5774 35.2494C53.5771 35.2497 53.5768 35.25 53.5765 35.2503C53.5762 35.2506 53.5759 35.2509 53.5756 35.2512C53.5753 35.2515 53.575 35.2519 53.5747 35.2522C53.5744 35.2525 53.5741 35.2528 53.5738 35.2531C53.5734 35.2534 53.5731 35.2537 53.5728 35.254C53.5725 35.2543 53.5722 35.2547 53.5719 35.255C53.5716 35.2553 53.5713 35.2556 53.5709 35.2559C53.5706 35.2562 53.5703 35.2565 53.57 35.2568C53.5697 35.2572 53.5694 35.2575 53.569 35.2578C53.5687 35.2581 53.5684 35.2584 53.5681 35.2588C53.5678 35.2591 53.5675 35.2594 53.5671 35.2597C53.5668 35.26 53.5665 35.2603 53.5662 35.2607C53.5659 35.261 53.5655 35.2613 53.5652 35.2616C53.5649 35.262 53.5646 35.2623 53.5642 35.2626C53.5639 35.2629 53.5636 35.2632 53.5633 35.2636C53.5629 35.2639 53.5626 35.2642 53.5623 35.2646C53.562 35.2649 53.5616 35.2652 53.5613 35.2655C53.561 35.2659 53.5607 35.2662 53.5603 35.2665C53.56 35.2668 53.5597 35.2672 53.5593 35.2675C53.559 35.2678 53.5587 35.2682 53.5583 35.2685C53.558 35.2688 53.5577 35.2692 53.5574 35.2695C53.557 35.2698 53.5567 35.2702 53.5564 35.2705C53.556 35.2708 53.5557 35.2712 53.5553 35.2715C53.555 35.2718 53.5547 35.2722 53.5543 35.2725C53.554 35.2728 53.5537 35.2732 53.5533 35.2735C53.553 35.2739 53.5526 35.2742 53.5523 35.2745C53.552 35.2749 53.5516 35.2752 53.5513 35.2756C53.5509 35.2759 53.5506 35.2762 53.5503 35.2766C53.5499 35.2769 53.5496 35.2773 53.5492 35.2776C53.5489 35.278 53.5485 35.2783 53.5482 35.2786C53.5479 35.279 53.5475 35.2793 53.5472 35.2797C53.5468 35.28 53.5465 35.2804 53.5461 35.2807C53.5458 35.2811 53.5454 35.2814 53.5451 35.2818C53.5447 35.2821 53.5444 35.2825 53.544 35.2828C53.5437 35.2832 53.5433 35.2835 53.543 35.2839C53.5426 35.2842 53.5423 35.2846 53.5419 35.2849C53.5416 35.2853 53.5412 35.2856 53.5409 35.286C53.5405 35.2863 53.5401 35.2867 53.5398 35.2871C53.5394 35.2874 53.5391 35.2878 53.5387 35.2881C53.5384 35.2885 53.538 35.2888 53.5376 35.2892C53.5373 35.2896 53.5369 35.2899 53.5366 35.2903C53.5362 35.2906 53.5358 35.291 53.5355 35.2914C53.5351 35.2917 53.5348 35.2921 53.5344 35.2924C53.534 35.2928 53.5337 35.2932 53.5333 35.2935C53.533 35.2939 53.5326 35.2943 53.5322 35.2946C53.5319 35.295 53.5315 35.2954 53.5311 35.2957C53.5308 35.2961 53.5304 35.2965 53.53 35.2968C53.5297 35.2972 53.5293 35.2976 53.5289 35.2979C53.5285 35.2983 53.5282 35.2987 53.5278 35.299C53.5274 35.2994 53.5271 35.2998 53.5267 35.3002C53.5263 35.3005 53.5259 35.3009 53.5256 35.3013C53.5252 35.3016 53.5248 35.302 53.5245 35.3024C53.5241 35.3028 53.5237 35.3031 53.5233 35.3035C53.523 35.3039 53.5226 35.3043 53.5222 35.3046C53.5218 35.305 53.5214 35.3054 53.5211 35.3058C53.5207 35.3062 53.5203 35.3065 53.5199 35.3069C53.5195 35.3073 53.5192 35.3077 53.5188 35.3081C53.5184 35.3084 53.518 35.3088 53.5176 35.3092C53.5173 35.3096 53.5169 35.31 53.5165 35.3104C53.5161 35.3107 53.5157 35.3111 53.5153 35.3115C53.515 35.3119 53.5146 35.3123 53.5142 35.3127C53.5138 35.3131 53.5134 35.3134 53.513 35.3138C53.5126 35.3142 53.5122 35.3146 53.5119 35.315C53.5115 35.3154 53.5111 35.3158 53.5107 35.3162C53.5103 35.3166 53.5099 35.3169 53.5095 35.3173C53.5091 35.3177 53.5087 35.3181 53.5083 35.3185C53.5079 35.3189 53.5075 35.3193 53.5071 35.3197C53.5068 35.3201 53.5064 35.3205 53.506 35.3209C53.5056 35.3213 53.5052 35.3217 53.5048 35.3221C53.5044 35.3225 53.504 35.3229 53.5036 35.3233C53.5032 35.3237 53.5028 35.3241 53.5024 35.3245C53.502 35.3249 53.5016 35.3253 53.5012 35.3257C53.5008 35.3261 53.5004 35.3265 53.5 35.3269C53.4996 35.3273 53.4992 35.3277 53.4988 35.3281C53.4984 35.3285 53.498 35.3289 53.4975 35.3293C53.4971 35.3297 53.4967 35.3301 53.4963 35.3305C53.4959 35.3309 53.4955 35.3313 53.4951 35.3317C53.4947 35.3321 53.4943 35.3326 53.4939 35.333C53.4935 35.3334 53.4931 35.3338 53.4927 35.3342C53.4922 35.3346 53.4918 35.335 53.4914 35.3354C53.491 35.3358 53.4906 35.3363 53.4902 35.3367C53.4898 35.3371 53.4894 35.3375 53.4889 35.3379C53.4885 35.3383 53.4881 35.3387 53.4877 35.3392C53.4873 35.3396 53.4869 35.34 53.4864 35.3404C53.486 35.3408 53.4856 35.3412 53.4852 35.3417C53.4848 35.3421 53.4843 35.3425 53.4839 35.3429C53.4835 35.3433 53.4831 35.3438 53.4827 35.3442C53.4822 35.3446 53.4818 35.345 53.4814 35.3454C53.481 35.3459 53.4806 35.3463 53.4801 35.3467C53.4797 35.3471 53.4793 35.3476 53.4789 35.348C53.4784 35.3484 53.478 35.3488 53.4776 35.3493C53.4771 35.3497 53.4767 35.3501 53.4763 35.3506C53.4759 35.351 53.4754 35.3514 53.475 35.3518C53.4746 35.3523 53.4741 35.3527 53.4737 35.3531C53.4733 35.3536 53.4729 35.354 53.4724 35.3544C53.472 35.3549 53.4716 35.3553 53.4711 35.3557C53.4707 35.3562 53.4703 35.3566 53.4698 35.357C53.4694 35.3575 53.4689 35.3579 53.4685 35.3583C53.4681 35.3588 53.4676 35.3592 53.4672 35.3596C53.4668 35.3601 53.4663 35.3605 53.4659 35.361C53.4654 35.3614 53.465 35.3618 53.4646 35.3623C53.4641 35.3627 53.4637 35.3632 53.4632 35.3636C53.4628 35.364 53.4624 35.3645 53.4619 35.3649C53.4615 35.3654 53.461 35.3658 53.4606 35.3663C53.4601 35.3667 53.4597 35.3671 53.4593 35.3676C53.4588 35.368 53.4584 35.3685 53.4579 35.3689C53.4575 35.3694 53.457 35.3698 53.4566 35.3703C53.4561 35.3707 53.4557 35.3712 53.4552 35.3716C53.4548 35.3721 53.4543 35.3725 53.4539 35.373C53.4534 35.3734 53.453 35.3739 53.4525 35.3743C53.4521 35.3748 53.4516 35.3752 53.4512 35.3757C53.4507 35.3761 53.4503 35.3766 53.4498 35.377C53.4493 35.3775 53.4489 35.378 53.4484 35.3784C53.448 35.3789 53.4475 35.3793 53.4471 35.3798C53.4466 35.3802 53.4461 35.3807 53.4457 35.3812C53.4452 35.3816 53.4448 35.3821 53.4443 35.3825C53.4438 35.383 53.4434 35.3835 53.4429 35.3839C53.4425 35.3844 53.442 35.3848 53.4415 35.3853C53.4411 35.3858 53.4406 35.3862 53.4401 35.3867C53.4397 35.3872 53.4392 35.3876 53.4387 35.3881C53.4383 35.3886 53.4378 35.389 53.4373 35.3895C53.4369 35.39 53.4364 35.3904 53.4359 35.3909C53.4355 35.3914 53.435 35.3918 53.4345 35.3923C53.4341 35.3928 53.4336 35.3932 53.4331 35.3937C53.4327 35.3942 53.4322 35.3947 53.4317 35.3951C53.4312 35.3956 53.4308 35.3961 53.4303 35.3966C53.4298 35.397 53.4293 35.3975 53.4289 35.398C53.4284 35.3985 53.4279 35.3989 53.4274 35.3994C53.427 35.3999 53.4265 35.4004 53.426 35.4008C53.4255 35.4013 53.4251 35.4018 53.4246 35.4023C53.4241 35.4027 53.4236 35.4032 53.4231 35.4037C53.4227 35.4042 53.4222 35.4047 53.4217 35.4052C53.4212 35.4056 53.4207 35.4061 53.4202 35.4066C53.4198 35.4071 53.4193 35.4076 53.4188 35.4081C53.4183 35.4085 53.4178 35.409 53.4173 35.4095C53.4169 35.41 53.4164 35.4105 53.4159 35.411C53.4154 35.4115 53.4149 35.4119 53.4144 35.4124C53.4139 35.4129 53.4134 35.4134 53.4129 35.4139C53.4125 35.4144 53.412 35.4149 53.4115 35.4154C53.411 35.4159 53.4105 35.4164 53.41 35.4168C53.4095 35.4173 53.409 35.4178 53.4085 35.4183C53.408 35.4188 53.4075 35.4193 53.407 35.4198C53.4065 35.4203 53.406 35.4208 53.4056 35.4213C53.4051 35.4218 53.4046 35.4223 53.4041 35.4228C53.4036 35.4233 53.4031 35.4238 53.4026 35.4243C53.4021 35.4248 53.4016 35.4253 53.4011 35.4258C53.4006 35.4263 53.4001 35.4268 53.3996 35.4273C53.3991 35.4278 53.3986 35.4283 53.3981 35.4288C53.3975 35.4293 53.397 35.4298 53.3965 35.4303C53.396 35.4308 53.3955 35.4313 53.395 35.4318C53.3945 35.4323 53.394 35.4328 53.3935 35.4333C53.393 35.4338 53.3925 35.4344 53.392 35.4349C53.3915 35.4354 53.391 35.4359 53.3905 35.4364C53.3899 35.4369 53.3894 35.4374 53.3889 35.4379C53.3884 35.4384 53.3879 35.4389 53.3874 35.4395C53.3869 35.44 53.3864 35.4405 53.3858 35.441C53.3853 35.4415 53.3848 35.442 53.3843 35.4425C53.3838 35.4431 53.3833 35.4436 53.3828 35.4441C53.3822 35.4446 53.3817 35.4451 53.3812 35.4456C53.3807 35.4462 53.3802 35.4467 53.3796 35.4472C53.3791 35.4477 53.3786 35.4482 53.3781 35.4488C53.3776 35.4493 53.377 35.4498 53.3765 35.4503C53.376 35.4508 53.3755 35.4514 53.375 35.4519C53.3744 35.4524 53.3739 35.4529 53.3734 35.4535C53.3729 35.454 53.3723 35.4545 53.3718 35.455C53.3713 35.4556 53.3708 35.4561 53.3702 35.4566C53.3697 35.4572 53.3692 35.4577 53.3686 35.4582C53.3681 35.4587 53.3676 35.4593 53.3671 35.4598C53.3665 35.4603 53.366 35.4609 53.3655 35.4614C53.3649 35.4619 53.3644 35.4625 53.3639 35.463C53.3633 35.4635 53.3628 35.4641 53.3623 35.4646C53.3617 35.4651 53.3612 35.4657 53.3607 35.4662C53.3601 35.4667 53.3596 35.4673 53.359 35.4678C53.3585 35.4683 53.358 35.4689 53.3574 35.4694C53.3569 35.4699 53.3564 35.4705 53.3558 35.471C53.3553 35.4716 53.3547 35.4721 53.3542 35.4726C53.3537 35.4732 53.3531 35.4737 53.3526 35.4743C53.352 35.4748 53.3515 35.4754 53.3509 35.4759C53.3504 35.4764 53.3499 35.477 53.3493 35.4775C53.3488 35.4781 53.3482 35.4786 53.3477 35.4792C53.3471 35.4797 53.3466 35.4803 53.346 35.4808C53.3455 35.4814 53.3449 35.4819 53.3444 35.4825C53.3438 35.483 53.3433 35.4836 53.3427 35.4841C53.3422 35.4847 53.3416 35.4852 53.3411 35.4858C53.3405 35.4863 53.34 35.4869 53.3394 35.4874C53.3389 35.488 53.3383 35.4885 53.3378 35.4891C53.3372 35.4896 53.3367 35.4902 53.3361 35.4907C53.3356 35.4913 53.335 35.4918 53.3344 35.4924C53.3339 35.493 53.3333 35.4935 53.3328 35.4941C53.3322 35.4946 53.3317 35.4952 53.3311 35.4958C53.3305 35.4963 53.33 35.4969 53.3294 35.4974C53.3288 35.498 53.3283 35.4986 53.3277 35.4991C53.3272 35.4997 53.3266 35.5002 53.326 35.5008C53.3255 35.5014 53.3249 35.5019 53.3243 35.5025C53.3238 35.5031 53.3232 35.5036 53.3226 35.5042C53.3221 35.5048 53.3215 35.5053 53.3209 35.5059C53.3204 35.5065 53.3198 35.507 53.3192 35.5076C53.3187 35.5082 53.3181 35.5087 53.3175 35.5093C53.317 35.5099 53.3164 35.5105 53.3158 35.511C53.3152 35.5116 53.3147 35.5122 53.3141 35.5127C53.3135 35.5133 53.313 35.5139 53.3124 35.5145C53.3118 35.515 53.3112 35.5156 53.3107 35.5162C53.3101 35.5168 53.3095 35.5173 53.3089 35.5179C53.3083 35.5185 53.3078 35.5191 53.3072 35.5197C53.3066 35.5202 53.306 35.5208 53.3055 35.5214C53.3049 35.522 53.3043 35.5226 53.3037 35.5231C53.3031 35.5237 53.3026 35.5243 53.302 35.5249C53.3014 35.5255 53.3008 35.526 53.3002 35.5266C53.2996 35.5272 53.2991 35.5278 53.2985 35.5284C53.2979 35.529 53.2973 35.5295 53.2967 35.5301C53.2961 35.5307 53.2955 35.5313 53.2949 35.5319C53.2944 35.5325 53.2938 35.5331 53.2932 35.5337C53.2926 35.5343 53.292 35.5348 53.2914 35.5354C53.2908 35.536 53.2902 35.5366 53.2896 35.5372C53.289 35.5378 53.2885 35.5384 53.2879 35.539C53.2873 35.5396 53.2867 35.5402 53.2861 35.5408C53.2855 35.5414 53.2849 35.542 53.2843 35.5425C53.2837 35.5431 53.2831 35.5437 53.2825 35.5443C53.2819 35.5449 53.2813 35.5455 53.2807 35.5461C53.2801 35.5467 53.2795 35.5473 53.2789 35.5479C53.2783 35.5485 53.2777 35.5491 53.2771 35.5497C53.2765 35.5503 53.2759 35.5509 53.2753 35.5515C53.2747 35.5521 53.2741 35.5527 53.2735 35.5533C53.2729 35.554 53.2723 35.5546 53.2717 35.5552C53.2711 35.5558 53.2705 35.5564 53.2699 35.557C53.2693 35.5576 53.2687 35.5582 53.268 35.5588C53.2674 35.5594 53.2668 35.56 53.2662 35.5606C53.2656 35.5612 53.265 35.5618 53.2644 35.5625C53.2638 35.5631 53.2632 35.5637 53.2626 35.5643C53.2619 35.5649 53.2613 35.5655 53.2607 35.5661C53.2601 35.5667 53.2595 35.5674 53.2589 35.568C53.2583 35.5686 53.2576 35.5692 53.257 35.5698C53.2564 35.5704 53.2558 35.571 53.2552 35.5717C53.2546 35.5723 53.2539 35.5729 53.2533 35.5735C53.2527 35.5741 53.2521 35.5748 53.2515 35.5754C53.2509 35.576 53.2502 35.5766 53.2496 35.5772C53.249 35.5779 53.2484 35.5785 53.2477 35.5791C53.2471 35.5797 53.2465 35.5803 53.2459 35.581C53.2452 35.5816 53.2446 35.5822 53.244 35.5828C53.2434 35.5835 53.2427 35.5841 53.2421 35.5847C53.2415 35.5854 53.2409 35.586 53.2402 35.5866C53.2396 35.5872 53.239 35.5879 53.2384 35.5885C53.2377 35.5891 53.2371 35.5898 53.2365 35.5904C53.2358 35.591 53.2352 35.5916 53.2346 35.5923C53.2339 35.5929 53.2333 35.5935 53.2327 35.5942C53.232 35.5948 53.2314 35.5954 53.2308 35.5961C53.2301 35.5967 53.2295 35.5973 53.2289 35.598C53.2282 35.5986 53.2276 35.5993 53.227 35.5999C53.2263 35.6005 53.2257 35.6012 53.225 35.6018C53.2244 35.6024 53.2238 35.6031 53.2231 35.6037C53.2225 35.6044 53.2218 35.605 53.2212 35.6056C53.2206 35.6063 53.2199 35.6069 53.2193 35.6076C53.2186 35.6082 53.218 35.6089 53.2173 35.6095C53.2167 35.6101 53.2161 35.6108 53.2154 35.6114C53.2148 35.6121 53.2141 35.6127 53.2135 35.6134C53.2128 35.614 53.2122 35.6147 53.2115 35.6153C53.2109 35.616 53.2102 35.6166 53.2096 35.6173C53.2089 35.6179 53.2083 35.6186 53.2076 35.6192C53.207 35.6199 53.2063 35.6205 53.2057 35.6212C53.205 35.6218 53.2044 35.6225 53.2037 35.6231C53.2031 35.6238 53.2024 35.6244 53.2018 35.6251C53.2011 35.6257 53.2004 35.6264 53.1998 35.6271C53.1991 35.6277 53.1985 35.6284 53.1978 35.629C53.1972 35.6297 53.1965 35.6303 53.1958 35.631C53.1952 35.6317 53.1945 35.6323 53.1939 35.633C53.1932 35.6336 53.1925 35.6343 53.1919 35.635C53.1912 35.6356 53.1906 35.6363 53.1899 35.637C53.1892 35.6376 53.1886 35.6383 53.1879 35.6389C53.1872 35.6396 53.1866 35.6403 53.1859 35.6409C53.1852 35.6416 53.1846 35.6423 53.1839 35.6429C53.1832 35.6436 53.1826 35.6443 53.1819 35.6449C53.1812 35.6456 53.1806 35.6463 53.1799 35.6469C53.1792 35.6476 53.1786 35.6483 53.1779 35.649C53.1772 35.6496 53.1765 35.6503 53.1759 35.651C53.1752 35.6516 53.1745 35.6523 53.1739 35.653C53.1732 35.6537 53.1725 35.6543 53.1718 35.655C53.1712 35.6557 53.1705 35.6564 53.1698 35.657C53.1691 35.6577 53.1685 35.6584 53.1678 35.6591C53.1671 35.6597 53.1664 35.6604 53.1657 35.6611C53.1651 35.6618 53.1644 35.6625 53.1637 35.6631C53.163 35.6638 53.1623 35.6645 53.1617 35.6652C53.161 35.6659 53.1603 35.6665 53.1596 35.6672C53.1589 35.6679 53.1582 35.6686 53.1576 35.6693C53.1569 35.67 53.1562 35.6707 53.1555 35.6713C53.1548 35.672 53.1541 35.6727 53.1534 35.6734C53.1528 35.6741 53.1521 35.6748 53.1514 35.6755C53.1507 35.6761 53.15 35.6768 53.1493 35.6775C53.1486 35.6782 53.1479 35.6789 53.1472 35.6796C53.1466 35.6803 53.1459 35.681 53.1452 35.6817C53.1445 35.6824 53.1438 35.6831 53.1431 35.6838C53.1424 35.6844 53.1417 35.6851 53.141 35.6858C53.1403 35.6865 53.1396 35.6872 53.1389 35.6879C53.1382 35.6886 53.1375 35.6893 53.1368 35.69C53.1361 35.6907 53.1354 35.6914 53.1347 35.6921C53.134 35.6928 53.1333 35.6935 53.1326 35.6942C53.1319 35.6949 53.1312 35.6956 53.1305 35.6963C53.1298 35.697 53.1291 35.6977 53.1284 35.6984C53.1277 35.6991 53.127 35.6998 53.1263 35.7005C53.1256 35.7012 53.1249 35.7019 53.1242 35.7026C53.1235 35.7034 53.1228 35.7041 53.1221 35.7048C53.1214 35.7055 53.1207 35.7062 53.12 35.7069C53.1193 35.7076 53.1185 35.7083 53.1178 35.709C53.1171 35.7097 53.1164 35.7104 53.1157 35.7111C53.115 35.7119 53.1143 35.7126 53.1136 35.7133C53.1129 35.714 53.1121 35.7147 53.1114 35.7154C53.1107 35.7161 53.11 35.7168 53.1093 35.7176C53.1086 35.7183 53.1079 35.719 53.1071 35.7197C53.1064 35.7204 53.1057 35.7211 53.105 35.7219C53.1043 35.7226 53.1035 35.7233 53.1028 35.724C53.1021 35.7247 53.1014 35.7255 53.1007 35.7262C53.0999 35.7269 53.0992 35.7276 53.0985 35.7283C53.0978 35.7291 53.0971 35.7298 53.0963 35.7305C53.0956 35.7312 53.0949 35.732 53.0942 35.7327C53.0934 35.7334 53.0927 35.7341 53.092 35.7349C53.0913 35.7356 53.0905 35.7363 53.0898 35.737C53.0891 35.7378 53.0884 35.7385 53.0876 35.7392C53.0869 35.7399 53.0862 35.7407 53.0854 35.7414C53.0847 35.7421 53.084 35.7429 53.0832 35.7436C53.0825 35.7443 53.0818 35.7451 53.0811 35.7458C53.0803 35.7465 53.0796 35.7473 53.0789 35.748C53.0781 35.7487 53.0774 35.7495 53.0766 35.7502C53.0759 35.7509 53.0752 35.7517 53.0744 35.7524C53.0737 35.7531 53.073 35.7539 53.0722 35.7546C53.0715 35.7554 53.0708 35.7561 53.07 35.7568C53.0693 35.7576 53.0685 35.7583 53.0678 35.7591C53.0671 35.7598 53.0663 35.7605 53.0656 35.7613C53.0648 35.762 53.0641 35.7628 53.0633 35.7635C53.0626 35.7643 53.0619 35.765 53.0611 35.7657C53.0604 35.7665 53.0596 35.7672 53.0589 35.768C53.0581 35.7687 53.0574 35.7695 53.0566 35.7702C53.0559 35.771 53.0551 35.7717 53.0544 35.7725C53.0536 35.7732 53.0529 35.774 53.0521 35.7747C53.0514 35.7755 53.0506 35.7762 53.0499 35.777C53.0491 35.7777 53.0484 35.7785 53.0476 35.7792C53.0469 35.78 53.0461 35.7807 53.0454 35.7815C53.0446 35.7822 53.0439 35.783 53.0431 35.7837C53.0424 35.7845 53.0416 35.7853 53.0408 35.786C53.0401 35.7868 53.0393 35.7875 53.0386 35.7883C53.0378 35.789 53.037 35.7898 53.0363 35.7906C53.0355 35.7913 53.0348 35.7921 53.034 35.7928C53.0332 35.7936 53.0325 35.7944 53.0317 35.7951C53.031 35.7959 53.0302 35.7966 53.0294 35.7974C53.0287 35.7982 53.0279 35.7989 53.0271 35.7997C53.0264 35.8005 53.0256 35.8012 53.0248 35.802C53.0241 35.8028 53.0233 35.8035 53.0225 35.8043C53.0218 35.8051 53.021 35.8058 53.0202 35.8066C53.0195 35.8074 53.0187 35.8081 53.0179 35.8089C53.0172 35.8097 53.0164 35.8105 53.0156 35.8112C53.0149 35.812 53.0141 35.8128 53.0133 35.8135C53.0125 35.8143 53.0118 35.8151 53.011 35.8159C53.0102 35.8166 53.0094 35.8174 53.0087 35.8182C53.0079 35.819 53.0071 35.8197 53.0063 35.8205C53.0056 35.8213 53.0048 35.8221 53.004 35.8228L55.8324 38.6513ZM56.5004 37.9833C56.3723 38.1114 56.1362 38.2752 55.8017 38.3309L55.1441 34.3854C54.5283 34.488 54.0345 34.7924 53.672 35.1549L56.5004 37.9833ZM56.0223 38.2812C56.0444 38.2749 56.0097 38.2878 55.9299 38.2878V34.2878C55.5689 34.2878 55.2296 34.3476 54.9235 34.4351L56.0223 38.2812ZM55.9299 38.2878C55.9066 38.2878 55.8414 38.2836 55.7539 38.2512C55.6639 38.2179 55.5882 38.1687 55.5338 38.1193L58.2245 35.1595C57.569 34.5637 56.7611 34.2878 55.9299 34.2878V38.2878ZM55.5338 38.1193C55.4601 38.0522 55.3816 37.9515 55.3273 37.823C55.2744 37.698 55.2659 37.5981 55.2659 37.5535H59.2659C59.2659 36.6632 58.9337 35.8042 58.2245 35.1595L55.5338 38.1193ZM55.2659 37.5535C55.2659 37.5187 55.2734 37.4379 55.3165 37.3383C55.36 37.238 55.4169 37.1712 55.4523 37.1385L58.1654 40.0778C58.8883 39.4105 59.2659 38.5225 59.2659 37.5535H55.2659ZM55.9144 36.8193C55.6334 36.9598 55.4311 37.1501 55.423 37.1573C55.3548 37.2179 55.29 37.281 55.2364 37.3346C55.1264 37.4446 54.9941 37.5845 54.847 37.7438L57.7863 40.4569C57.8518 40.3859 57.9081 40.3257 57.9556 40.2757C58.0037 40.2251 58.0396 40.1883 58.0648 40.163C58.0773 40.1506 58.0852 40.1429 58.0891 40.1391C58.0936 40.1349 58.0902 40.1383 58.0804 40.1469C58.0753 40.1515 58.0668 40.159 58.0553 40.1686C58.0442 40.1779 58.0272 40.1919 58.0052 40.2088C57.9841 40.225 57.9509 40.2497 57.9081 40.2783C57.8861 40.2929 57.8586 40.3106 57.8263 40.3298C57.7943 40.3488 57.7529 40.3722 57.7033 40.397L55.9144 36.8193ZM54.9024 37.6861C54.4786 38.1099 54.0848 38.6413 53.7153 39.2219L57.0899 41.3694C57.3767 40.9188 57.5922 40.6532 57.7309 40.5146L54.9024 37.6861ZM53.7385 39.1863C53.3157 39.8204 52.9507 40.548 52.6316 41.3458L56.3455 42.8314C56.5888 42.223 56.8332 41.7553 57.0667 41.4051L53.7385 39.1863ZM52.6108 41.4001C52.2625 42.3499 52.1018 43.3598 52.1018 44.4089H56.1018C56.1018 43.7706 56.1989 43.2336 56.3663 42.7771L52.6108 41.4001ZM52.1018 44.4089C52.1018 46.0391 52.4615 47.56 53.297 48.8633L56.6645 46.7046C56.3281 46.1798 56.1018 45.4507 56.1018 44.4089H52.1018ZM53.3166 48.8933C54.0916 50.0558 55.0916 51.0078 56.295 51.7415L58.3774 48.3263C57.6589 47.8882 57.0886 47.3402 56.6448 46.6745L53.3166 48.8933ZM56.3258 51.76C57.4807 52.436 58.7454 52.9184 60.1057 53.2177L60.9651 49.3111C59.9816 49.0948 59.1135 48.7569 58.3465 48.3079L56.3258 51.76ZM60.1432 53.2256C61.4416 53.4853 62.7449 53.616 64.051 53.616V49.616C63.0134 49.616 61.9729 49.5123 60.9276 49.3032L60.1432 53.2256ZM64.051 53.616C66.4495 53.616 68.7256 53.2284 70.8628 52.4368L69.4736 48.6858C67.814 49.3004 66.0119 49.616 64.051 49.616V53.616ZM70.8554 52.4395C72.9656 51.6675 74.8426 50.6241 76.4634 49.2956L73.9277 46.202C72.6892 47.2172 71.2146 48.0488 69.481 48.683L70.8554 52.4395ZM76.4634 49.2956C78.081 47.9697 79.3792 46.4226 80.3315 44.654L76.8096 42.7576C76.1213 44.0359 75.1695 45.1841 73.9277 46.202L76.4634 49.2956ZM80.3315 44.654C81.3023 42.8512 81.801 40.933 81.801 38.9246H77.801C77.801 40.2443 77.4795 41.5136 76.8096 42.7576L80.3315 44.654ZM81.801 38.9246C81.801 36.6937 81.1637 34.6342 79.9022 32.7993L76.6061 35.0654C77.4071 36.2305 77.801 37.4992 77.801 38.9246H81.801ZM79.9104 32.8112C78.698 31.0202 77.0784 29.5375 75.0995 28.3502L73.0416 31.7802C74.5783 32.7022 75.7478 33.7977 76.5979 35.0535L79.9104 32.8112ZM75.1162 28.3603C73.1547 27.1573 70.8948 26.2542 68.3636 25.6277L67.4025 29.5105C69.6057 30.0558 71.4708 30.8169 73.0249 31.7701L75.1162 28.3603ZM68.3681 25.6288C65.85 24.9993 63.178 24.6902 60.3596 24.6902V28.6902C62.885 28.6902 65.2286 28.967 67.398 29.5094L68.3681 25.6288ZM60.3596 24.6902C58.1813 24.6902 55.9148 24.9561 53.5647 25.4756L54.428 29.3813C56.531 28.9165 58.5067 28.6902 60.3596 28.6902V24.6902ZM53.5801 25.4723C51.2338 25.9715 48.921 26.7311 46.6432 27.7462L48.2714 31.3998C50.306 30.4931 52.3526 29.823 54.4126 29.3847L53.5801 25.4723ZM46.6432 27.7462C44.3558 28.7656 42.1726 30.0316 40.0946 31.5406L42.445 34.7772C44.3044 33.4269 46.2463 32.3023 48.2714 31.3998L46.6432 27.7462ZM40.0854 31.5474C37.9878 33.089 36.1418 34.8972 34.551 36.9678L37.7229 39.4048C39.0853 37.6316 40.6612 36.0883 42.4542 34.7705L40.0854 31.5474ZM34.5583 36.9584C32.9519 39.0237 31.6721 41.3347 30.7143 43.8804L34.4581 45.289C35.2815 43.1003 36.3689 41.1458 37.7157 39.4142L34.5583 36.9584ZM30.7082 43.8968C29.7515 46.5083 29.2854 49.334 29.2854 52.3542H33.2854C33.2854 49.7495 33.6865 47.3955 34.4641 45.2727L30.7082 43.8968ZM29.2854 52.3542C29.2854 55.0915 29.6621 57.6228 30.4471 59.9254L34.2331 58.6347C33.6118 56.8123 33.2854 54.7264 33.2854 52.3542H29.2854ZM30.4537 59.9445C31.2478 62.1987 32.3453 64.233 33.7534 66.0322L36.9034 63.5669C35.7802 62.1317 34.8855 60.4863 34.2265 58.6155L30.4537 59.9445ZM33.7621 66.0433C35.1505 67.7916 36.7708 69.3084 38.6173 70.5907L40.8988 67.3053C39.3703 66.2438 38.0375 64.995 36.8946 63.5558L33.7621 66.0433ZM38.6279 70.5981C40.4623 71.8545 42.4218 72.8968 44.5035 73.7245L45.9814 70.0075C44.1725 69.2883 42.4757 68.3853 40.8882 67.2979L38.6279 70.5981ZM44.5304 73.7349C46.6209 74.5313 48.7943 75.1269 51.0484 75.5233L51.7411 71.5837C49.7296 71.23 47.8015 70.7006 45.9544 69.997L44.5304 73.7349ZM51.0695 75.5268C53.3072 75.8957 55.537 76.0808 57.7581 76.0808V72.0808C55.7603 72.0808 53.748 71.9144 51.7201 71.5801L51.0695 75.5268ZM57.7581 76.0808C60.7565 76.0808 63.6559 75.6681 66.4491 74.8377L65.3092 71.0036C62.8993 71.7201 60.3846 72.0808 57.7581 72.0808V76.0808ZM66.4649 74.833C69.1995 73.9953 71.7408 72.9063 74.0824 71.5611L72.0899 68.0927C70.0254 69.2787 67.762 70.2522 65.2934 71.0084L66.4649 74.833ZM74.0883 71.5578C76.432 70.2008 78.5244 68.6719 80.3556 66.9661L77.6292 64.0392C76.0386 65.5209 74.1935 66.8748 72.0841 68.0961L74.0883 71.5578ZM80.3556 66.9661C82.1674 65.2785 83.6488 63.5399 84.7679 61.7441L81.3732 59.6285C80.4767 61.0671 79.2394 62.5394 77.6292 64.0392L80.3556 66.9661ZM84.8189 61.6576C84.7831 61.7219 84.7263 61.8015 84.6424 61.8794C84.5578 61.958 84.4648 62.017 84.375 62.0569L82.7505 58.4016C82.124 58.6801 81.64 59.143 81.3222 59.715L84.8189 61.6576ZM84.534 61.9776C84.5008 61.9961 84.4544 62.0164 84.3969 62.0316C84.3391 62.0468 84.2822 62.0535 84.2307 62.0535V58.0535C83.6461 58.0535 83.0904 58.2038 82.5915 58.4809L84.534 61.9776ZM84.2307 62.0535C84.1921 62.0535 84.0878 62.0458 83.9546 61.9866C83.8166 61.9252 83.711 61.8367 83.6435 61.7557L86.7164 59.195C86.0655 58.4139 85.1632 58.0535 84.2307 58.0535V62.0535ZM83.7001 61.8207C83.6733 61.7912 83.6255 61.7284 83.5867 61.6312C83.547 61.532 83.5315 61.4343 83.5315 61.3542H87.5315C87.5315 60.4959 87.2062 59.731 86.6598 59.13L83.7001 61.8207ZM83.5315 61.3542C83.5315 61.3371 83.5333 61.323 83.5352 61.3136L87.4575 62.098C87.5063 61.8543 87.5315 61.6057 87.5315 61.3542H83.5315ZM83.5352 61.3136C83.5626 61.1762 83.6098 61.08 83.6407 61.0284L87.0707 63.0864C87.2423 62.8004 87.3832 62.4698 87.4575 62.098L83.5352 61.3136Z" fill="black"/>
</g>
<defs>
<filter id="filter0_d_101_26" x="24.6135" y="24.0535" width="64.918" height="60.6641" filterUnits="userSpaceOnUse" color-interpolation-filters="sRGB">
<feFlood flood-opacity="0" result="BackgroundImageFix"/>
<feColorMatrix in="SourceAlpha" type="matrix" values="0 0 0 0 0 0 0 0 0 0 0 0 0 0 0 0 0 0 127 0" result="hardAlpha"/>
<feOffset dy="4"/>
<feGaussianBlur stdDeviation="2"/>
<feComposite in2="hardAlpha" operator="out"/>
<feColorMatrix type="matrix" values="0 0 0 0 0 0 0 0 0 0 0 0 0 0 0 0 0 0 0.25 0"/>
<feBlend mode="normal" in2="BackgroundImageFix" result="effect1_dropShadow_101_26"/>
<feBlend mode="normal" in="SourceGraphic" in2="effect1_dropShadow_101_26" result="shape"/>
</filter>
</defs>
</svg>
